<svg width="591" height="422" viewBox="0 0 591 422" fill="none" xmlns="http://www.w3.org/2000/svg">
<rect x="47.1211" y="163.924" width="33.5432" height="47.1202" rx="10" fill="#D9D9D9"/>
<rect x="208.446" y="163.924" width="33.5432" height="47.1202" rx="10" fill="#D9D9D9"/>
<rect x="169.312" y="163.924" width="33.5432" height="47.1202" rx="10" fill="#D9D9D9"/>
<rect x="126.984" y="163.924" width="33.5432" height="47.1202" rx="10" fill="#D9D9D9"/>
<rect x="87.0527" y="163.924" width="33.5432" height="47.1202" rx="10" fill="#D9D9D9"/>
<circle cx="63.8904" cy="187.884" r="9.58377" fill="black"/>
<circle cx="225.219" cy="187.884" r="9.58377" fill="black"/>
<circle cx="186.085" cy="187.884" r="9.58377" fill="black"/>
<circle cx="143.757" cy="187.884" r="9.58377" fill="black"/>
<circle cx="103.824" cy="187.884" r="9.58377" fill="black"/>
<path d="M7.9873 20.5669V239.796H290.709V20.5669M7.9873 20.5669V1H290.709V20.5669M7.9873 20.5669H290.709" stroke="#D9D9D9"/>
<path d="M231.209 239.796C224.181 231.809 222.158 217.3 222.024 211.044L241.591 176.303C242.869 174.706 245.318 177.767 246.383 179.498C246.703 173.109 253.438 176.836 256.766 179.498L258.363 171.112L253.172 156.337C251.255 152.504 252.373 149.415 253.172 148.351C255.727 146.114 263.554 160.197 267.148 167.518L269.544 190.679C274.975 192.915 277.397 196.669 277.93 198.266C280.485 201.78 271.541 222.359 266.749 232.209L269.943 246.584L231.209 250.977V239.796Z" fill="#F7A893"/>
<path d="M507.141 232.608L376.562 228.215C347.491 210.006 357.794 170.846 366.579 153.542C356.037 143.958 354.732 127.453 355.398 120.398C375.524 74.3957 416.228 80.1992 434.065 88.8512C471.761 84.3788 472.932 116.538 468.806 133.176C459.861 159.052 480.253 165.255 491.567 165.122C526.388 177.581 516.459 215.304 507.141 232.608Z" fill="#2C2C2C"/>
<path d="M231.607 246.984H279.526V298.097C296.458 260.72 350.606 229.413 376.562 229.413L436.461 219.83C470.004 216.954 497.291 227.151 506.742 232.608C544.438 246.984 580.217 342.422 590.6 391.14C591.877 405.835 585.808 410.307 582.613 410.706L386.545 411.505L286.714 410.307L231.607 246.984Z" fill="#6F8BEF"/>
<path d="M382.953 242.591C369.855 237.16 379.758 218.232 382.953 223.424L384.95 192.276C369.935 186.206 368.311 147.419 369.376 128.784L380.956 115.606C397.888 131.579 417.029 133.975 424.483 133.176C448.123 150.746 436.196 176.436 427.278 187.085V217.434C434.306 217.753 436.862 219.164 437.261 219.83C420.969 245.706 394.267 245.786 382.953 242.591Z" fill="#F7A893"/>
<path d="M230.809 247.383H51.9122C41.6895 249.619 41.5298 260.294 42.7277 265.352L84.6568 391.539C88.1708 404.956 99.9642 409.375 105.422 409.908H283.52C295.979 409.269 297.496 398.727 296.698 393.535L253.571 265.352C248.459 251.296 236.267 247.516 230.809 247.383Z" fill="#FCDBCC"/>
<path d="M65.8889 361.989H15.1748V397.928C18.3694 407.831 25.0248 411.106 27.9532 411.505H53.9092C64.1319 407.991 66.1552 400.99 65.8889 397.928V361.989Z" fill="#F37453"/>
<path d="M9.18445 378.361H14.3757V373.969H9.18445C5.03148 374.288 0.399324 379.16 0 382.754V390.341C0.638918 395.452 5.32432 398.594 7.58715 399.525H14.3757V395.133H9.18445C6.62878 395.133 5.19121 391.938 4.79189 390.341V382.754C5.75026 379.559 8.11959 378.494 9.18445 378.361Z" fill="#7998DC"/>
<circle cx="19.9669" cy="11.3824" r="3.49324" stroke="#D9D9D9"/>
<circle cx="38.335" cy="11.3824" r="3.49324" stroke="#D9D9D9"/>
<circle cx="29.5499" cy="11.3824" r="3.49324" stroke="#D9D9D9"/>
<circle cx="155.736" cy="332.439" r="9.58377" fill="#4D4D4D"/>
<circle cx="146.152" cy="72.8783" r="39.9324" fill="#6B6BB1"/>
<path d="M153.785 68.7248H152.238V64.605C152.238 62.9866 151.595 61.4344 150.451 60.29C149.306 59.1456 147.754 58.5027 146.136 58.5027C144.517 58.5027 142.965 59.1456 141.821 60.29C140.676 61.4344 140.034 62.9866 140.034 64.605V68.7248H138.487C137.555 68.7248 136.66 69.0951 136.001 69.7544C135.342 70.4136 134.972 71.3077 134.972 72.24V82.9402C134.974 83.8716 135.345 84.7642 136.004 85.4229C136.663 86.0816 137.555 86.4527 138.487 86.4553H153.785C154.716 86.4527 155.609 86.0816 156.268 85.4229C156.926 84.7642 157.297 83.8716 157.3 82.9402V72.24C157.3 71.3077 156.93 70.4136 156.271 69.7544C155.611 69.0951 154.717 68.7248 153.785 68.7248ZM141.44 64.605C141.44 63.3595 141.934 62.165 142.815 61.2842C143.696 60.4035 144.89 59.9087 146.136 59.9087C147.381 59.9087 148.576 60.4035 149.457 61.2842C150.337 62.165 150.832 63.3595 150.832 64.605V68.7248H141.44V64.605ZM155.894 82.9402C155.89 83.4983 155.666 84.0324 155.272 84.427C154.877 84.8217 154.343 85.0452 153.785 85.0493H138.487C137.929 85.0452 137.395 84.8217 137 84.427C136.605 84.0324 136.382 83.4983 136.378 82.9402V72.24C136.378 71.6806 136.6 71.1441 136.995 70.7486C137.391 70.3531 137.927 70.1309 138.487 70.1309H153.785C154.344 70.1309 154.881 70.3531 155.276 70.7486C155.672 71.1441 155.894 71.6806 155.894 72.24V82.9402Z" fill="white"/>
<path d="M147.542 76.6269C147.542 76.8727 147.478 77.1143 147.354 77.3269C147.231 77.5394 147.053 77.7152 146.839 77.8361V79.9452C146.839 80.1317 146.765 80.3105 146.633 80.4423C146.501 80.5742 146.322 80.6482 146.136 80.6482C145.949 80.6482 145.77 80.5742 145.638 80.4423C145.507 80.3105 145.433 80.1317 145.433 79.9452V77.8361C145.218 77.7152 145.041 77.5394 144.917 77.3269C144.793 77.1143 144.729 76.8727 144.729 76.6269C144.729 76.254 144.878 75.8963 145.141 75.6326C145.405 75.3689 145.763 75.2208 146.136 75.2208C146.508 75.2208 146.866 75.3689 147.13 75.6326C147.394 75.8963 147.542 76.254 147.542 76.6269Z" fill="white"/>
<path d="M465.609 373.569L469.203 372.771C472.078 384.591 472.531 403.785 472.398 411.904C416.173 412.543 386.145 418.294 394.529 381.955C423.281 344.578 453.896 360.791 465.609 373.569Z" fill="#F7A893"/>
<path d="M469.206 372.771C486.111 364.518 526.948 351.367 555.061 364.784" stroke="black"/>
<path d="M526.31 359.194C513.664 344.951 488.693 309.438 489.971 281.325" stroke="black"/>
<path d="M349.409 280.127C348.477 293.571 339.905 327.966 313.07 357.996" stroke="black"/>
<path d="M371.77 147.153C372.568 144.49 375.204 140.524 379.357 145.955" stroke="black"/>
<path d="M399.724 140.763C400.522 138.101 403.158 134.135 407.311 139.565" stroke="black"/>
<ellipse cx="376.961" cy="154.34" rx="3.19459" ry="3.99324" fill="#2D2D2D"/>
<ellipse cx="404.116" cy="147.951" rx="3.19459" ry="3.99324" fill="#2D2D2D"/>
<path d="M389.187 177.102L409.951 171.112C408.088 175.904 401.326 183.811 389.187 177.102Z" fill="#D9D9D9"/>
<path d="M391.183 156.736C388.654 160.596 386.151 167.758 396.374 165.521" stroke="black"/>
<rect x="14.376" y="411.505" width="576.624" height="9.58377" fill="#0E1738"/>
</svg>
