<svg width="486" height="507" viewBox="0 0 486 507" fill="none" xmlns="http://www.w3.org/2000/svg">
<path d="M462.499 0H220.746C209.7 0 200.746 8.95429 200.746 20V486.5C200.746 497.546 209.7 506.5 220.746 506.5H465.233C476.325 506.5 485.298 497.474 485.233 486.383L482.499 19.8828C482.434 8.88303 473.499 0 462.499 0Z" fill="#032068"/>
<path d="M282.751 11.503H207.797C206.312 11.503 205.199 15.9557 204.828 18.1821L207.797 493.884H475.704C476.594 493.884 478.054 489.431 478.672 487.205V20.0374C478.375 12.913 476.075 11.3793 474.961 11.503H398.523C395.851 22.1896 386.772 25.8507 382.567 26.3455H300.562C290.469 25.1581 284.483 15.9557 282.751 11.503Z" fill="white"/>
<rect x="235.255" y="292.397" width="97.9604" height="11.1319" rx="5.56593" fill="#032068"/>
<circle cx="342.121" cy="184.789" r="86.8286" fill="#E7E8FF"/>
<path d="M145.458 131.727L125.421 126.532L142.49 110.577L145.458 131.727Z" fill="white" stroke="#032068" stroke-width="2"/>
<circle cx="103.528" cy="87.1996" r="46.1249" fill="white" stroke="#032068" stroke-width="2"/>
<path d="M164.753 266.052C140.412 274.957 127.4 262.341 123.936 254.92C57.6615 254.92 29.1684 315.435 14.8442 371.433C8.95829 394.443 1.6912 416.074 1.11485 433.401C-5.56425 483.865 31.0472 492.771 51.9504 491.286V505.016H221.155C252.324 506.797 265.559 498.831 268.28 494.626C270.951 484.83 267.167 432.906 264.94 408.169L225.608 289.8L164.753 266.052Z" fill="#F4AD5E"/>
<path d="M173.762 342.363L145.914 347.071C143.508 347.478 141.747 349.562 141.747 352.001V412.455C141.747 415.611 144.636 417.978 147.731 417.357L175.58 411.766C177.915 411.297 179.595 409.246 179.595 406.864V347.294C179.595 344.199 176.813 341.848 173.762 342.363Z" fill="#032068"/>
<path d="M170.342 345.817L148.43 349.894C146.062 350.334 144.345 352.401 144.345 354.809V410.107C144.345 413.303 147.302 415.678 150.423 414.989L172.335 410.148C174.625 409.642 176.256 407.612 176.256 405.266V350.733C176.256 347.605 173.417 345.245 170.342 345.817Z" fill="#D9D9D9"/>
<path d="M125.421 153.249L126.534 152.507" stroke="black"/>
<path d="M203.344 161.041C179.892 132.84 147.561 155.228 134.326 169.947C95.4386 164.306 114.412 220.287 128.76 248.983L130.986 228.203C120.3 221.673 125.049 210.145 128.76 205.197C132.916 201.042 136.923 213.608 138.408 220.411L147.313 194.066C210.394 206.682 211.754 177.739 203.344 161.041Z" fill="#032068"/>
<path d="M185.903 195.921C177.888 198.296 156.466 194.684 146.571 193.695L138.407 219.298C136.033 203.862 131.11 202.847 129.502 203.713C118.815 214.697 125.049 225.606 130.244 228.203L127.647 258.63C136.255 271.395 154.239 269.144 162.155 266.423L181.822 232.656C187.462 225.235 186.769 204.826 185.903 195.921Z" fill="#EFCB96"/>
<path d="M128.018 412.992L120.597 389.244C125.346 386.573 129.007 381.947 130.244 379.968C132.025 372.547 139.397 366.733 142.86 364.754V378.484L165.124 369.207C176.998 399.486 155.773 405.794 145.087 406.684C134.4 407.575 129.255 411.261 128.018 412.992Z" fill="#EFCB96"/>
<path d="M185.533 274.957L199.633 260.486C192.212 247.424 183.925 236.985 180.709 233.398L166.609 248.612C153.844 266.126 173.906 273.473 185.533 274.957Z" fill="#EFCB96"/>
<path d="M144.345 431.916C101.301 477.928 64.9373 490.792 53.0633 492.029L51.208 500.934C95.1418 489.654 138.037 444.533 144.345 431.916Z" fill="#0E1738"/>
<path d="M1.4856 432.659C14.2254 443.419 41.1893 470.359 47.1263 492.029C28.0784 492.029 -7.71675 480.155 1.4856 432.659Z" fill="#0E1738"/>
<path d="M66.7928 397.037L42.3027 410.766L120.968 383.307L74.9562 393.326L78.6668 364.383L66.7928 397.037Z" fill="#032068"/>
<path d="M206.683 257.517C202.23 257.22 186.522 271.741 179.225 279.039C184.791 308.353 215.589 359.188 240.821 392.213C249.235 401.631 259.374 406.861 267.166 409.282C305.386 421.156 318.831 382.565 313.549 364.012C301.972 323.344 237.481 276.07 206.683 257.517Z" fill="#F4AD5E"/>
<path d="M265.682 419.3L264.569 408.169C235.478 404.013 197.283 326.04 181.822 287.573C208.539 375.441 248.861 412.003 265.682 419.3Z" fill="#032068"/>
<path d="M166.609 248.241C161.562 245.866 153.622 239.83 150.282 237.109C149.095 239.187 153.745 243.664 156.219 245.643C153.844 245.94 149.045 244.53 146.942 243.788C146.942 246.756 156.095 249.972 160.672 251.209C155.922 257.146 159.682 264.32 162.156 267.165L165.495 264.938C158.965 261.97 163.516 252.57 166.609 248.241Z" fill="#032068"/>
<path d="M83.8616 73.4702H95.3645C99.4462 62.7095 109.465 67.1623 110.207 73.4702C110.949 76.4388 105.012 83.1179 98.7041 89.7971C96.923 90.9845 96.4777 97.2183 96.4777 100.187H107.61C107.016 95.4372 110.578 91.2813 112.433 89.7971C121.042 82.9695 122.699 76.0677 122.452 73.4702C118.741 45.6406 79.4088 57.8857 83.8616 73.4702Z" fill="#F4AD5E"/>
<circle cx="103.157" cy="108.35" r="5.19487" fill="#F4AD5E"/>
<circle cx="410.026" cy="125.048" r="40.93" fill="white" stroke="#032068" stroke-width="2"/>
<rect x="235.255" y="62.3385" width="97.9604" height="11.1319" rx="5.56593" fill="#F4AD5E"/>
<path d="M372.548 178.481H307.983C305.311 178.778 304.396 181.326 304.272 182.563V230.801C304.272 233.472 306.746 234.882 307.983 235.253H372.548C375.813 234.957 376.877 232.409 377.001 231.172V183.305C377.001 179.743 374.032 178.605 372.548 178.481Z" fill="#F4AD5E"/>
<path d="M334.699 218.185L336.183 210.021H345.089L347.315 218.185H334.699Z" fill="#D9D9D9"/>
<ellipse cx="340.637" cy="203.713" rx="7.42125" ry="7.79231" fill="#D9D9D9"/>
<path d="M320.599 159.557V178.11H312.064V159.557C320.599 126.161 360.303 126.903 369.208 159.557V178.11H360.303V159.557C350.655 130.614 320.599 145.456 320.599 159.557Z" fill="#032068"/>
<rect x="421.311" y="103.743" width="15.5346" height="50.0018" transform="rotate(45 421.311 103.743)" fill="#F4AD5E"/>
<rect x="385.954" y="113.244" width="15.5346" height="50.0018" transform="rotate(-45 385.954 113.244)" fill="#F4AD5E"/>
</svg>
