<svg width="559" height="480" viewBox="0 0 559 480" fill="none" xmlns="http://www.w3.org/2000/svg">
<path d="M393.688 113.714C371.97 120.177 377.441 135.05 382.891 141.679L440.58 206C448.724 195.808 457.547 179.174 460.941 172.131C470.566 145.781 460.838 129.664 454.771 124.9C434.287 107.251 405.514 110.089 393.688 113.714Z" fill="#4724E3"/>
<path d="M93.1358 1.16135L81.5838 5.10993L82.5079 19.2784L74.6526 25.3174L61.2522 19.9752L53.8589 29.4982L62.1764 41.344L58.4797 50.867L44.3862 52.9574L43 65.5L56.4004 70.6099L58.4797 80.5975L48.0829 90.1206L53.3968 100.805L67.2593 98.25L74.1905 104.986L70.7249 119.619L81.1217 125.658L91.0564 115.206L101.222 117.993L105.381 131H118.088L120.861 117.296L130.564 113.812L141.192 122.638L151.589 115.206L146.968 102.199L152.975 94.3014L166.838 95.9273L171.228 84.5461L160.6 75.9521L161.293 65.5L174 59.461L171.921 47.1507L157.596 46.4539L152.975 36.4663L160.369 25.3174L151.589 16.2589L139.575 23.227L130.333 17.4202V3.0195L118.088 0L111.157 12.7748H100.529L93.1358 1.16135Z" fill="#4724E3"/>
<path d="M229.358 39.5514L213.838 44.8262L215.079 63.7535L204.526 71.8209L186.522 64.6844L176.589 77.406L187.764 93.2305L182.797 105.952L163.862 108.745L162 125.5L180.004 132.326L182.797 145.668L168.829 158.39L175.968 172.663L194.593 169.25L203.905 178.248L199.249 197.796L213.217 205.863L226.564 191.901L240.222 195.624L245.81 213H262.882L266.607 194.693L279.644 190.039L293.922 201.83L307.891 191.901L301.683 174.525L309.753 163.975L328.377 166.147L334.275 150.943L319.996 139.463L320.928 125.5L338 117.433L335.206 100.988L315.961 100.057L309.753 86.7145L319.686 71.8209L307.891 59.7199L291.75 69.0284L279.333 61.2713V42.0337L262.882 38L253.57 55.0656H239.291L229.358 39.5514Z" fill="#7B95F9"/>
<path d="M41.716 125.966L32.1041 129.252L32.873 141.041L26.3369 146.066L15.1869 141.621L9.03527 149.544L15.9559 159.401L12.8801 167.324L1.15344 169.064L0 179.5L11.1499 183.752L12.8801 192.062L4.22928 199.986L8.65079 208.876L20.1852 206.75L25.9524 212.355L23.0688 224.53L31.7196 229.555L39.9859 220.858L48.4444 223.177L51.9048 234H62.478L64.7848 222.598L72.8589 219.699L81.7019 227.043L90.3527 220.858L86.5079 210.035L91.5062 203.465L103.041 204.817L106.693 195.348L97.8501 188.197L98.4268 179.5L109 174.475L107.27 164.232L95.351 163.652L91.5062 155.342L97.6579 146.066L90.3527 138.528L80.3563 144.326L72.6667 139.495V127.512L62.478 125L56.7108 135.629H47.8677L41.716 125.966Z" fill="#F3BBC1"/>
<circle cx="109" cy="66" r="19" fill="#D9D9D9"/>
<circle cx="250" cy="131" r="19" fill="#D9D9D9"/>
<ellipse cx="54.5" cy="180" rx="19.5" ry="19" fill="#D9D9D9"/>
<path d="M410.454 135.413C397.213 135.164 388.49 133.034 385.784 132C385.784 145.402 377.04 152.268 372.668 154.026C367.419 156.012 366.11 158.37 366.112 159.3C365.112 165.009 371.109 168.297 372.668 172.95C362.052 204.284 379.954 200.458 386.72 202.733C389.968 202.236 393.279 207.696 394.528 210.488L393.903 226H439.497L440.746 206.145L434.813 181.947C461.045 166.125 434.813 145.96 420.448 159.3C410.704 150.117 409.726 139.549 410.454 135.413Z" fill="#F3BBC1"/>
<path d="M439.232 226H393.684L320.25 257.546C310.83 264.473 283.274 321.05 270.674 348.472L233.492 282.597C207.96 283.587 197.859 296.617 196 303.009C208.394 387.873 235.661 450.841 265.406 450.841C290.442 451.831 320.25 416.615 332.024 398.883L335.432 424.553C336.176 420.594 341.319 420.017 343.798 420.223L385.628 426.718L390.895 468.779C393.374 472.49 398.538 474.655 400.811 475.274C494.757 487.892 540.966 472.284 552.327 462.903C575.875 398.265 531.257 277.958 508.948 254.453L439.232 226Z" fill="#FEC045"/>
<path d="M234 282.52L201.635 295C191.286 283.827 176.239 268.452 163.414 257.561C157.904 252.881 152.01 249.137 148.31 246.953C136.907 241.025 139.68 237.905 142.454 235.721C148.002 230.106 170.914 239.673 181.292 243.833C183.511 240.089 188.381 239.777 190.539 240.089C221.671 251.009 232.151 256.937 234 282.52Z" fill="#F3BBC1"/>
<path d="M391 470.073L386.025 426.696L349.644 421.119C340.688 420.376 336.377 423.288 335.34 424.837C332.604 425.333 327.982 439.296 326.013 446.216C321.969 456.75 330.988 467.285 336.274 470.073C342.493 478.996 348.815 473.791 351.199 470.073C363.637 477.509 382.915 473.171 391 470.073Z" fill="#F3BBC1"/>
</svg>
