<svg width="431" height="640" viewBox="0 0 431 640" fill="none" xmlns="http://www.w3.org/2000/svg">
<path d="M132.576 457.233L322.404 454.226C326.632 498.957 334.596 598.718 332.632 639.916H251.219C245.913 621.098 236.076 583.841 235.219 571.79C234.97 584.059 233.55 629.213 228.308 639.916H146.486L132.576 457.233Z" fill="#EBCFA9"/>
<path d="M103.12 281.692C105.165 194.486 142.804 184.337 157.941 175.315L309.722 168.549C320.768 171.932 344.333 182.157 350.224 195.989C372.043 227.313 410.773 284.699 428.774 330.558C435.729 341.835 427.137 362.509 392.363 390.7C387.862 392.204 375.671 385.663 351.451 362.509C351.042 362.383 351.369 359.577 355.952 349.352C351.042 347.222 340.569 340.782 337.951 332.062H335.087L330.996 454.602C273.993 463.498 152.623 474.975 123.166 449.715V387.317L103.12 281.692Z" fill="#AB5855"/>
<path d="M152.622 283.196C143.458 278.084 47.0713 281.066 0.0232951 283.196C-0.958575 291.616 29.343 351.357 44.6166 380.175C48.2168 385.288 55.3899 386.315 58.5264 386.19H231.99C247.536 386.19 238.945 377.544 231.99 377.544H194.761C166.941 306.877 155.077 285.201 152.622 283.196Z" fill="#F5DED3"/>
<path d="M101.483 386.566H123.166V400.098H104.756C91.9921 399.797 75.7094 397.968 69.1636 397.09C66.2181 396.188 65.2088 393.958 65.0724 392.956V386.566C64.7451 377.845 70.1181 378.922 72.8455 380.551C74.482 364.614 79.8005 369.149 82.2551 373.409C87.1645 367.696 90.8465 374.036 92.0738 377.92C99.6015 368.598 101.483 379.8 101.483 386.566Z" fill="#FFA18A"/>
<path d="M296.221 459.864C296.358 466.38 301.785 482.342 322.404 494.07" stroke="black" stroke-width="2"/>
<path d="M222.172 518.503L233.627 560.227" stroke="black" stroke-width="2"/>
<path d="M205.807 145.244C189.77 141.636 187.942 150.507 189.033 155.393C209.898 171.556 259.81 158.4 283.538 152.762C281.247 151.86 279.311 147.374 278.629 145.244C279.611 130.81 264.583 133.967 256.946 137.35C245.491 145.169 218.08 145.871 205.807 145.244Z" fill="#AB5855"/>
<path d="M188.624 155.393C186.006 155.092 183.715 162.034 182.897 165.542C176.351 161.633 163.532 170.429 157.941 175.315C160.232 179.525 160.259 195.363 159.987 202.755C157.941 211.777 151.532 241.848 152.213 254.628C157.123 254.628 170.623 256.884 176.76 258.011C181.997 256.808 182.76 223.429 182.488 206.89C207.689 228.241 244.264 217.791 259.401 209.897C257.764 213.205 258.719 241.096 259.401 254.628C255.473 271.769 252.855 312.139 252.037 330.182C254.001 327.476 262.674 327.801 266.765 328.303C277.565 330.408 279.993 329.43 279.857 328.679C282.802 324.769 281.902 277.683 281.084 254.628C278.138 232.977 283.675 204.76 286.811 193.358C300.23 186.141 307.949 173.812 310.131 168.549C313.076 158.325 296.903 160.781 288.448 163.287C291.394 151.258 286.13 151.258 283.129 152.762C225.854 166.67 198.579 162.159 188.624 155.393Z" fill="white"/>
<path d="M195.579 182.081C210.853 185.214 248.437 188.321 276.584 175.691C259.265 189.975 218.817 211.25 195.579 182.081Z" fill="#AB5855"/>
<path d="M252.037 54.6547C217.999 14.9607 190.124 51.8981 180.442 75.3286C182.406 116.526 198.17 130.835 205.807 132.84V145.244C231.663 146.447 250.673 140.984 256.946 138.102L256.128 108.783C258.092 104.573 259.674 99.2603 260.219 97.1302C276.175 96.0026 268.401 59.9171 257.764 76.4563C253.182 75.5541 252.037 61.546 252.037 54.6547Z" fill="#FFA18A"/>
<path d="M186.988 65.9314C187.315 74.9527 182.215 75.7045 179.623 74.9527C173.732 71.3443 171.169 61.1701 170.623 56.5341C166.041 52.3241 169.532 45.0067 171.85 41.8744C168.987 21.2004 180.169 16.5644 186.988 15.1862C198.115 1.05268 206.625 3.283 209.489 6.16484C217.016 -6.46507 231.717 3.90944 238.127 10.6754C253.509 7.96902 260.082 21.5763 261.446 28.7182C276.174 27.5153 276.31 42.5008 274.538 50.1439C276.174 51.6475 274.947 56.7846 274.129 59.1653C272.225 62.3712 269.656 72.8984 268.506 78.2207C269.422 81.008 269.663 84.5033 269.058 87.7329C268.566 90.3555 267.517 92.8029 265.816 94.5539L265.128 96.0025C262.51 113.143 258.037 114.922 256.128 113.669V108.783L260.628 97.1302C262.78 96.8556 264.495 95.9152 265.816 94.5539L269.058 87.7329L268.401 78.7116C268.435 78.5535 268.47 78.3897 268.506 78.2207C266.787 72.9862 262.689 70.2487 257.355 76.4562C254.082 76.1555 252.173 62.0471 251.627 55.0305C240.827 42.7013 227.49 43.8791 222.171 46.0092C220.862 50.5199 217.807 51.6476 216.444 51.6476C209.571 51.0462 204.307 53.1512 202.534 54.2788C200.079 56.5342 198.852 62.1725 195.988 61.7966C189.115 60.8944 187.124 64.1772 186.988 65.9314Z" fill="#4D3932"/>
<path d="M375.59 382.807L351.862 362.509C327.316 376.041 305.632 393.707 297.858 400.849C280.266 415.133 277.266 424.906 277.403 428.289C278.712 433.702 293.768 419.268 301.541 412.502C271.675 447.836 286.813 453.85 293.768 444.829C299.004 454.151 309.314 437.311 315.86 430.545C309.641 438.965 310.269 442.072 311.36 442.573C316.596 445.28 325.269 431.422 328.951 424.155C341.389 414.832 347.225 404.734 348.589 400.849L375.59 382.807Z" fill="#FFA18A"/>
<path d="M206.216 69.6901C201.634 66.0816 191.488 69.1889 186.988 71.1937C182.733 73.5993 185.215 73.9502 186.988 73.825C204.335 72.6222 207.035 70.5672 206.216 69.6901Z" fill="#382823"/>
<path d="M249.173 68.9384C245.573 65.6305 234.854 65.3048 229.945 65.5553C226.345 68.5624 228.99 70.0661 230.763 70.442C233.354 70.3167 239.682 70.1413 244.264 70.442C248.846 70.7427 249.446 69.5649 249.173 68.9384Z" fill="#382823"/>
<ellipse cx="196.807" cy="80.9669" rx="2.86379" ry="4.51068" fill="#382823"/>
<ellipse cx="236.9" cy="77.9598" rx="2.86379" ry="4.51068" fill="#382823"/>
<path d="M206.625 108.407C211.807 108.908 223.89 109.159 230.763 106.152C229.536 113.669 211.207 119.533 206.625 108.407Z" fill="white"/>
<path d="M215.626 80.2151L210.717 97.882C211.398 99.5108 213.499 102.844 216.444 103.144" stroke="#F2795C"/>
<path d="M128.076 205.011C130.803 221.174 135.194 257.034 130.939 271.167" stroke="black" stroke-width="2"/>
<path d="M256.128 287.331H281.084" stroke="#9A83B7" stroke-width="2"/>
<path d="M254.082 301.614C257.355 301.364 264.555 301.389 267.174 303.494C269.628 304.997 275.847 308.531 281.083 310.636" stroke="#9A83B7" stroke-width="2"/>
<path d="M198.034 160.28L194.761 181.33" stroke="#9A83B7" stroke-width="2"/>
<path d="M212.762 164.039C210.853 164.039 207.607 166.369 209.898 175.691C210.989 177.195 212.844 181.029 211.535 184.337" stroke="#9A83B7" stroke-width="2"/>
<path d="M229.126 163.287L231.581 185.088" stroke="#9A83B7" stroke-width="2"/>
<path d="M258.583 159.152C254.492 164.916 246.964 177.796 249.582 183.209" stroke="#9A83B7" stroke-width="2"/>
<path d="M267.583 156.521C267.583 160.656 268.238 169.151 270.856 170.053C274.129 171.181 270.856 175.315 270.856 177.947" stroke="#9A83B7" stroke-width="2"/>
<path d="M161.214 184.713C165.714 182.081 185.76 182.457 185.76 171.181" stroke="#9A83B7" stroke-width="2"/>
<path d="M199.261 185.84L175.533 200.5" stroke="#9A83B7" stroke-width="2"/>
<path d="M160.396 203.507C165.168 206.765 176.024 213.355 181.26 213.656" stroke="#9A83B7" stroke-width="2"/>
<path d="M155.895 224.933C173.078 234.33 158.35 224.181 181.26 232.451" stroke="#9A83B7" stroke-width="2"/>
<path d="M153.032 239.968C159.168 240.094 173.078 242.149 179.624 249.366" stroke="#9A83B7" stroke-width="2"/>
<path d="M191.079 212.528C196.398 210.398 207.607 203.808 209.898 194.486" stroke="#9A83B7" stroke-width="2"/>
<path d="M240.173 195.989L245.082 207.642C245.627 209.271 246.391 213.055 245.082 215.16" stroke="#9A83B7" stroke-width="2"/>
<path d="M259.81 186.592C262.81 187.344 270.038 191.253 274.947 200.876" stroke="#9A83B7" stroke-width="2"/>
<path d="M283.948 170.053C284.084 171.431 287.63 175.766 300.721 182.081" stroke="#9A83B7" stroke-width="2"/>
<path d="M259.401 236.209C264.037 233.453 274.865 228.767 281.084 232.075" stroke="#9A83B7" stroke-width="2"/>
<path d="M259.401 258.011C261.31 258.512 268.237 258.913 280.674 256.508" stroke="#9A83B7" stroke-width="2"/>
<path d="M215.217 218.919C216.035 214.032 223.072 204.635 221.763 197.117" stroke="#9A83B7" stroke-width="2"/>
<ellipse cx="82.6642" cy="323.04" rx="15.5463" ry="7.5178" fill="white"/>
<path d="M352.679 214.032C346.133 226.061 333.041 252.222 333.041 260.642C334.678 274.049 337.46 305.9 335.496 326.047" stroke="black" stroke-width="2"/>
<path d="M336.314 305.749L359.224 252.373" stroke="black" stroke-width="2"/>
<path d="M379.271 315.146L367.406 335.82L357.178 346.345" stroke="black" stroke-width="2"/>
<path d="M367.816 335.82C375.044 330.307 391.381 319.356 398.908 319.657" stroke="black" stroke-width="2"/>
<path d="M363.725 444.829L332.632 438.438C245.491 393.708 175.124 208.018 159.168 174.939L146.077 181.705C185.761 274.55 209.898 357.622 325.677 455.729H322.813L330.177 561.355C347.196 561.655 364.27 557.22 370.68 554.964L363.725 444.829Z" fill="#4D3932"/>
<path d="M327.723 456.857C333.314 463.122 346.133 471.893 352.679 456.857C351.86 455.353 346.951 450.166 333.859 441.446" stroke="black"/>
</svg>
