<svg width="351" height="158" viewBox="0 0 351 158" fill="none" xmlns="http://www.w3.org/2000/svg">
<path d="M350.542 156.666C350.517 151.348 349.444 146.086 347.386 141.182C345.327 136.278 342.323 131.828 338.544 128.085C334.765 124.342 330.287 121.38 325.363 119.368C320.44 117.356 315.169 116.334 309.85 116.359C304.532 116.384 299.27 117.457 294.366 119.516C289.462 121.574 285.012 124.579 281.269 128.357C277.526 132.136 274.564 136.615 272.552 141.538C270.54 146.462 269.518 151.733 269.543 157.051L310.043 156.859L350.542 156.666Z" fill="#D9D9D9"/>
<circle cx="339.748" cy="94.7168" r="2.5" transform="rotate(179.727 339.748 94.7168)" fill="#D9D9D9"/>
<circle cx="289.748" cy="94.9546" r="2.5" transform="rotate(179.727 289.748 94.9546)" fill="#D9D9D9"/>
<circle cx="299.748" cy="94.9071" r="2.5" transform="rotate(179.727 299.748 94.9071)" fill="#D9D9D9"/>
<circle cx="309.748" cy="94.8595" r="2.5" transform="rotate(179.727 309.748 94.8595)" fill="#D9D9D9"/>
<circle cx="319.748" cy="94.8119" r="2.5" transform="rotate(179.727 319.748 94.8119)" fill="#D9D9D9"/>
<circle cx="329.748" cy="94.7643" r="2.5" transform="rotate(179.727 329.748 94.7643)" fill="#D9D9D9"/>
<circle cx="339.605" cy="64.7171" r="2.5" transform="rotate(179.727 339.605 64.7171)" fill="#D9D9D9"/>
<circle cx="289.605" cy="64.955" r="2.5" transform="rotate(179.727 289.605 64.955)" fill="#D9D9D9"/>
<circle cx="299.605" cy="64.9074" r="2.5" transform="rotate(179.727 299.605 64.9074)" fill="#D9D9D9"/>
<circle cx="309.605" cy="64.8598" r="2.5" transform="rotate(179.727 309.605 64.8598)" fill="#D9D9D9"/>
<circle cx="319.605" cy="64.8122" r="2.5" transform="rotate(179.727 319.605 64.8122)" fill="#D9D9D9"/>
<circle cx="329.605" cy="64.7647" r="2.5" transform="rotate(179.727 329.605 64.7647)" fill="#D9D9D9"/>
<circle cx="339.652" cy="74.717" r="2.5" transform="rotate(179.727 339.652 74.717)" fill="#D9D9D9"/>
<circle cx="289.653" cy="74.9549" r="2.5" transform="rotate(179.727 289.653 74.9549)" fill="#D9D9D9"/>
<circle cx="299.653" cy="74.9073" r="2.5" transform="rotate(179.727 299.653 74.9073)" fill="#D9D9D9"/>
<circle cx="309.653" cy="74.8597" r="2.5" transform="rotate(179.727 309.653 74.8597)" fill="#D9D9D9"/>
<circle cx="319.653" cy="74.8122" r="2.5" transform="rotate(179.727 319.653 74.8122)" fill="#D9D9D9"/>
<circle cx="329.652" cy="74.7645" r="2.5" transform="rotate(179.727 329.652 74.7645)" fill="#D9D9D9"/>
<circle cx="339.7" cy="84.7169" r="2.5" transform="rotate(179.727 339.7 84.7169)" fill="#D9D9D9"/>
<circle cx="289.701" cy="84.9548" r="2.5" transform="rotate(179.727 289.701 84.9548)" fill="#D9D9D9"/>
<circle cx="279.748" cy="95.0022" r="2.5" transform="rotate(179.727 279.748 95.0022)" fill="#D9D9D9"/>
<circle cx="279.605" cy="65.0026" r="2.5" transform="rotate(179.727 279.605 65.0026)" fill="#D9D9D9"/>
<circle cx="279.653" cy="75.0025" r="2.5" transform="rotate(179.727 279.653 75.0025)" fill="#D9D9D9"/>
<circle cx="279.701" cy="85.0023" r="2.5" transform="rotate(179.727 279.701 85.0023)" fill="#D9D9D9"/>
<circle cx="299.7" cy="84.9072" r="2.5" transform="rotate(179.727 299.7 84.9072)" fill="#D9D9D9"/>
<circle cx="309.7" cy="84.8596" r="2.5" transform="rotate(179.727 309.7 84.8596)" fill="#D9D9D9"/>
<circle cx="319.7" cy="84.812" r="2.5" transform="rotate(179.727 319.7 84.812)" fill="#D9D9D9"/>
<circle cx="329.7" cy="84.7645" r="2.5" transform="rotate(179.727 329.7 84.7645)" fill="#D9D9D9"/>
<circle cx="30.6506" cy="103.054" r="12.5" transform="rotate(179.727 30.6506 103.054)" fill="#D9D9D9"/>
<path d="M59.1353 104.575C59.3367 98.8429 57.8337 93.1798 54.8166 88.3018C51.7994 83.4239 47.4035 79.5501 42.1848 77.1705C36.9661 74.7909 31.1589 74.0122 25.4976 74.933C19.8364 75.8538 14.5753 78.4326 10.3797 82.3435C6.18405 86.2543 3.24235 91.3214 1.92656 96.9041C0.61078 102.487 0.980004 108.334 2.98755 113.707C4.99509 119.08 8.55079 123.737 13.205 127.089C17.8592 130.441 23.4029 132.338 29.135 132.539" stroke="white" stroke-width="2"/>
<path d="M201.123 68.876C210.512 68.8313 218.159 76.4062 218.204 85.7949L218.599 168.794L184.599 168.956L184.204 85.9567C184.159 76.5679 191.734 68.9207 201.123 68.876Z" fill="url(#paint0_linear_33_2796)"/>
<path d="M125.295 0.236012C139.379 0.169005 150.849 11.5313 150.916 25.6144L151.518 152.113L100.519 152.356L99.9171 25.8571C99.8501 11.774 111.212 0.303019 125.295 0.236012Z" fill="url(#paint1_linear_33_2796)"/>
<path d="M154.505 44.0975C168.588 44.0305 180.059 55.3928 180.126 69.4759L180.556 159.975L129.557 160.218L129.126 69.7185C129.059 55.6354 140.421 44.1645 154.505 44.0975Z" stroke="white" stroke-width="2"/>
<defs>
<linearGradient id="paint0_linear_33_2796" x1="184.123" y1="68.9569" x2="184.456" y2="138.871" gradientUnits="userSpaceOnUse">
<stop stop-color="#D9D9D9"/>
<stop offset="1" stop-color="#1178F2"/>
</linearGradient>
<linearGradient id="paint1_linear_33_2796" x1="99.7957" y1="0.357339" x2="100.301" y2="106.627" gradientUnits="userSpaceOnUse">
<stop stop-color="#D9D9D9"/>
<stop offset="1" stop-color="#1178F2"/>
</linearGradient>
</defs>
</svg>
