<svg width="55" height="70" viewBox="0 0 55 70" fill="none" xmlns="http://www.w3.org/2000/svg">
<path d="M36.4295 63.2342H18.2139L27.3217 70L36.4295 63.2342Z" fill="white"/>
<path d="M34.3474 52.5651H20.4255V58.8104H11.708V61.6729H42.9348V58.8104H34.3474V52.5651Z" fill="white"/>
<path d="M16.5221 8.71747C19.7489 2.47212 24.7191 0.910781 27.3214 0C33.1764 1.56134 34.3474 2.99256 37.6002 7.2426C37.9258 7.81068 38.1372 8.31563 38.2507 8.71747C41.4775 14.3383 41.7638 19.2131 41.5035 20.948C40.5667 22.5093 38.9447 24.7212 38.2507 25.632L45.9273 28.4944L49.4403 34.7398C51.0017 30.9926 50.8716 22.0756 50.6113 18.0855C45.9273 15.6134 42.6745 16.2639 43.0649 15.8736C43.3771 15.5613 42.1541 12.9678 41.5035 11.71C44.6262 11.71 51.3053 14.052 54.2545 15.223C55.7117 26.5688 53.2136 36.6047 51.7823 40.2045C53.5519 41.4535 53.8208 44.5415 53.734 45.9294C52.8232 49.4424 46.1875 54.2565 42.6745 57.119V41.3755C42.5704 40.5427 41.8505 40.2478 41.5035 40.2045H34.2173V45.9294H20.2954V40.2045H13.7898C12.7489 40.2045 12.3152 41.0719 12.2284 41.5056V57.2491C3.38086 50.6914 1.42919 47.8377 1.5593 47.2305C0.518404 44.4201 1.993 41.3755 2.86041 40.2045C-0.366351 32.8141 -0.218891 20.4709 0.258184 15.223C3.79722 13.7658 10.4936 12.2739 13.3994 11.71C12.6708 12.4387 12.055 14.7893 11.8381 15.8736L4.16153 18.0855C3.12063 24.1227 4.59523 31.7038 5.46264 34.7398L8.58532 28.4944L16.5221 25.632C15.3771 24.3829 13.9633 21.9888 13.3994 20.948C12.6708 16.4721 15.1776 10.9294 16.5221 8.71747Z" fill="white"/>
</svg>
