<svg width="187" height="240" viewBox="0 0 187 240" fill="none" xmlns="http://www.w3.org/2000/svg">
<path d="M124.548 216.192H62.2705L93.4093 239.324L124.548 216.192Z" fill="#1178F2"/>
<path d="M117.431 179.715H69.8329V201.067H40.0287V210.854H146.79V201.067H117.431V179.715Z" fill="#1178F2"/>
<path d="M56.4876 29.8042C67.5196 8.45195 84.5125 3.11388 93.4093 0C113.427 5.33807 117.431 10.2313 128.552 24.7618C129.665 26.704 130.388 28.4304 130.776 29.8042C141.808 49.0213 142.786 65.688 141.897 71.6191C138.694 76.9572 133.148 84.5195 130.776 87.6334L157.021 97.4198L169.032 118.772C174.37 105.961 173.925 75.4744 173.036 61.8327C157.021 53.3807 145.9 55.6049 147.235 54.2704C148.302 53.2028 144.121 44.3357 141.897 40.0355C152.573 40.0355 175.408 48.0427 185.491 52.0462C190.473 90.8362 181.932 125.148 177.039 137.455C183.089 141.726 184.008 152.283 183.712 157.028C180.598 169.039 157.911 185.498 145.9 195.284V141.459C145.544 138.612 143.083 137.604 141.897 137.455H116.986V157.028H69.388V137.455H47.146C43.5873 137.455 42.1045 140.421 41.8079 141.904V195.729C11.5588 173.309 4.88626 163.553 5.33109 161.477C1.77237 151.868 6.81389 141.459 9.7795 137.455C-1.25252 112.188 -0.74837 69.9881 0.882708 52.0462C12.9823 47.064 35.8767 41.9632 45.8115 40.0355C43.3204 42.5266 41.2148 50.5634 40.4734 54.2704L14.2279 61.8327C10.6692 82.4732 15.7107 108.393 18.6763 118.772L29.3524 97.4198L56.4876 87.6334C52.573 83.3629 47.7391 75.1779 45.8115 71.6191C43.3204 56.3167 51.8909 37.3665 56.4876 29.8042Z" fill="#1178F2"/>
</svg>
