<svg width="499" height="538" viewBox="0 0 499 538" fill="none" xmlns="http://www.w3.org/2000/svg">
<path d="M317.158 51.4569L354.398 49.5949C354.398 58.2842 345.709 84.2486 341.364 96.1446C330.937 155.976 351.088 181.279 362.466 186.451C368.921 183.72 435.291 175.382 467.669 171.555C483.185 170.314 501.184 171.555 498.081 163.797C481.696 136.239 483.185 107.213 485.978 96.1446C502.736 55.1809 491.461 5.32103 482.565 4.28658C394.679 -5.39574 341.674 3.56248 326.158 9.25188C305.366 17.0102 308.779 48.6639 317.158 51.4569Z" fill="#9A9797"/>
<path d="M155.165 196.692C159.634 193.961 184.957 189.968 197.06 188.313L234.92 190.175C255.03 191.665 274.953 195.968 282.401 197.933C309.462 202.402 356.57 247.793 376.742 269.93C369.604 278.309 336.399 304.687 328.02 307.17C328.268 308.659 313.02 293.722 305.366 286.067C303.628 288.798 306.09 330.651 307.538 351.237L316.537 445.577C315.793 446.322 301.538 447.129 294.504 447.439C295.249 443.467 292.539 431.923 291.09 426.647C291.09 437.571 289.642 444.44 288.918 446.508C287.925 451.225 182.785 446.198 130.339 443.095L147.407 206.002C149.393 203.767 153.407 198.864 155.165 196.692Z" fill="#D0E5DB"/>
<path d="M352.536 328.272C349.557 325.293 338.882 308.204 333.916 300.032L362.777 277.999C365.508 279.24 379.845 297.549 386.673 306.549C390.086 310.894 400.017 324.548 389.466 336.651C384.997 344.844 338.985 380.822 316.538 397.786C312.317 401.262 308.986 405.648 307.849 407.407C302.387 415.351 295.228 414.234 292.332 412.682C286.622 409.951 282.712 409.889 281.47 410.2C266.575 421.123 265.954 412.889 267.506 407.407C260.554 408.896 260.678 403.476 261.609 400.579C254.41 402.317 253.23 396.235 256.023 393.131C253.541 393.628 251.886 392.097 251.368 391.269C249.817 384.442 258.506 378.856 265.644 372.649C270.361 366.195 286.85 368.305 294.504 370.167C288.298 354.65 298.228 346.582 303.194 352.788C302.697 362.222 304.642 368.719 305.676 370.788C310.642 369.298 338.985 341.823 352.536 328.272Z" fill="#FAA88D"/>
<path d="M132.512 425.716H292.022L315.297 446.198C317.283 463.576 320.262 484.989 325.848 511.367C332.055 529.491 331.124 533.815 329.882 533.711C327.71 534.332 331.124 534.332 292.022 536.815C286.064 538.801 174.303 535.987 119.168 534.332C116.685 535.077 116.271 532.987 116.375 531.849L132.512 425.716Z" fill="#6E8D9D"/>
<path d="M233.989 172.486H199.232L197.37 190.796C203.577 212.395 211.542 219.45 214.749 220.277C221.204 218.787 230.265 198.347 233.989 188.313V172.486Z" fill="#FAA88D"/>
<path d="M283.953 79.6969C283.953 212.829 154.545 196.381 154.545 104.523L178.751 53.9395L238.645 60.1461L283.953 79.6969Z" fill="#FAA88D"/>
<path d="M140.27 50.8363C138.78 79.8833 116.271 102.248 105.203 109.799C95.5202 120.723 92.8928 130.281 92.7893 133.695C86.893 158.831 95.8926 163.176 113.892 163.176C120.719 165.969 132.512 177.477 140.27 176.831C151.442 175.9 155.787 173.417 160.441 174.969C178.565 187.878 191.992 181.589 196.44 176.831H198.923L199.543 172.176C161.559 163.548 153.925 123.686 154.856 104.834C174.468 94.655 178.958 67.2838 178.751 54.8706C182.475 58.098 204.508 69.663 215.06 75.0421C249.32 89.938 244.852 71.525 238.335 60.4565C259.685 80.566 278.057 82.2832 284.574 80.6281C276.816 156.038 255.713 166.59 234.611 174.038V177.451C245.534 187.878 265.644 181.796 274.333 177.451C286.498 170.252 300.297 169.693 305.676 170.314C335.779 177.451 334.227 144.867 324.296 134.936C307.414 121.033 300.097 106.075 298.849 94.9033C293.884 50.4639 278.988 26.1132 272.161 19.4929C233.928 -10.2989 195.612 1.49366 181.234 11.1139C161.372 5.15557 145.649 35.1129 140.27 50.8363Z" fill="#915845"/>
<circle cx="264.402" cy="288.86" r="23.2748" fill="#F5F4F0"/>
<path d="M147.718 206.312C137.539 202.092 56.5837 200.209 17.3785 199.795L0 429.75L160.441 447.439C173.103 354.588 177.716 249.448 178.44 208.484L147.718 206.312Z" fill="#F5F4F0"/>
<path d="M126.615 201.347V203.829L146.476 206.312C149.704 205.071 153.407 199.381 154.855 196.692C156.593 187.009 148.028 188.933 146.166 189.244C141.201 189.492 131.063 197.416 126.615 201.347Z" fill="#FAA88D"/>
<path d="M65.7904 192.037C54.8667 177.389 48.7222 194.209 57.4114 200.726L64.8594 201.347C70.8178 218.477 77.2726 214.898 79.7553 210.967C84.2241 221.891 89.2721 218.001 91.2375 214.691C100.175 236.29 112.65 218.415 107.064 202.588H118.857C107.437 177.265 98.1683 182.727 94.9615 188.623C88.5066 180.679 83.1689 184.692 81.3069 187.692C74.6038 180.492 68.1696 187.589 65.7904 192.037Z" fill="#FAA88D"/>
<path d="M479.771 13.5966C451.221 4.41081 381.396 9.7692 350.053 13.5966C369.418 27.4994 363.294 60.7669 357.811 75.6628C334.971 131.026 352.846 167.004 364.639 178.072C374.321 172.859 449.773 164.521 486.288 161.004C470.648 129.971 475.427 99.0411 479.771 87.4554C492.185 62.3807 484.944 27.7684 479.771 13.5966Z" fill="#F9F9F9"/>
<path d="M452.773 136.177L439.739 134.005L434.153 162.555L445.636 159.142L454.015 168.452L452.773 136.177Z" fill="#F4A321"/>
<path d="M460.221 163.176L455.256 135.867L467.048 129.35L478.531 154.487L466.117 153.246L460.221 163.176Z" fill="#F4A321"/>
<circle cx="449.98" cy="112.592" r="23.8955" fill="#FCD054"/>
<circle cx="450.291" cy="112.282" r="17.3785" fill="#C97700"/>
<circle cx="448.118" cy="112.592" r="15.2062" fill="#F4A321"/>
<path d="M452.817 101.12V122.938H447.554V106.042H447.426L442.547 109.025V104.465L447.927 101.12H452.817Z" fill="white"/>
<path d="M226.541 134.315C218.1 137.294 210.818 135.557 208.232 134.315C200.039 132.577 197.784 137.315 197.681 139.901C198.922 155.418 208.232 158.831 220.335 158.831C234.293 158.831 242.254 149.521 242.368 143.936C242.617 131.771 231.921 132.453 226.541 134.315Z" fill="#F5F4F0"/>
<line x1="372.344" y1="33.0548" x2="464.202" y2="27.4688" stroke="black" stroke-width="12"/>
<line x1="372.864" y1="66.2982" x2="464.352" y2="56.34" stroke="black" stroke-width="12"/>
<line x1="367.369" y1="98.5635" x2="410.63" y2="94.5154" stroke="black" stroke-width="12"/>
<line x1="360.283" y1="126.711" x2="410.464" y2="120.601" stroke="black" stroke-width="12"/>
<line x1="363.544" y1="157.724" x2="413.291" y2="148.739" stroke="black" stroke-width="12"/>
<path d="M200.474 85.5933C197.743 83.8555 185.889 86.3174 180.303 87.7656C179.682 89.3173 181.544 95.5239 182.165 94.5929C182.661 93.8481 193.75 92.8344 199.233 92.4206C201.219 92.1723 200.888 87.7656 200.474 85.5933Z" fill="#915845"/>
<path d="M259.253 87.1474C256.998 84.8247 244.896 84.4768 239.126 84.5932C238.163 85.9591 238.538 92.4281 239.358 91.666C240.013 91.0563 251.036 92.636 256.465 93.5021C258.455 93.7201 259.153 89.3564 259.253 87.1474Z" fill="#915845"/>
<path d="M222.507 125.005C226.976 118.55 221.887 120.247 218.783 121.902C217.294 121.902 217.749 120.868 218.163 120.35C226.542 112.902 228.714 120.35 225.921 125.005C223.749 129.971 221.576 127.178 222.507 125.005Z" fill="#915845"/>
<circle cx="195.198" cy="106.696" r="4.9653" fill="#915845"/>
<circle cx="248.575" cy="106.075" r="4.9653" fill="#915845"/>
<path d="M48.1738 309.696C47.3836 309.824 47.014 309.554 47.0648 308.885L46.8947 308.469C46.8289 308.625 46.7128 308.737 46.5461 308.805C46.4906 308.828 46.3404 308.857 46.0955 308.892C45.8506 308.927 45.6727 308.968 45.5616 309.013C45.506 309.036 45.4896 309.075 45.5123 309.13C45.5905 309.163 45.5741 309.202 45.463 309.248C45.4075 309.27 45.3684 309.254 45.3457 309.199C45.3785 309.12 45.3394 309.104 45.2283 309.149C45.1172 309.195 45.0844 309.273 45.1297 309.384C44.9303 309.53 44.6916 309.66 44.4139 309.774C44.1362 309.887 43.8862 309.989 43.6641 310.08C43.553 310.125 43.4255 310.21 43.2815 310.333C43.1376 310.457 43.01 310.541 42.899 310.587C42.8434 310.609 42.7374 310.588 42.5809 310.522L42.5164 310.84C42.4155 310.752 42.2539 310.753 42.0318 310.844C41.8096 310.935 41.5987 311.053 41.3992 311.199C41.1998 311.346 41.0445 311.442 40.9334 311.487C40.8778 311.51 40.8387 311.493 40.816 311.438C40.7933 311.382 40.7429 311.338 40.6646 311.305C40.5989 311.461 40.5105 311.562 40.3994 311.608C40.2657 311.598 40.0537 311.555 39.7634 311.479C39.4732 311.403 39.2725 311.388 39.1614 311.433C39.0503 311.478 39.0061 311.529 39.0288 311.584C39.0843 311.562 39.0566 311.573 38.9455 311.618C38.8899 311.641 38.7839 311.62 38.6275 311.554C38.4483 311.433 38.2918 311.367 38.1581 311.357C38.0798 311.324 38.0067 311.224 37.9386 311.057C37.8932 310.946 37.9148 310.84 38.0032 310.739C38.0916 310.639 37.973 310.428 37.6476 310.107C37.7688 309.928 37.8345 309.771 37.8447 309.638C37.9104 309.481 38.0266 309.369 38.1932 309.301C38.3043 309.255 38.3712 309.26 38.3939 309.316C38.4721 309.349 38.5668 309.343 38.6779 309.297C38.789 309.252 38.8332 309.201 38.8105 309.146C38.7878 309.09 38.832 309.04 38.9431 308.994L40.2762 308.45C40.3873 308.405 40.4592 308.343 40.4921 308.265C40.5022 308.131 40.5629 308.041 40.674 307.996C40.7295 307.973 40.8797 307.944 41.1246 307.909C41.425 307.851 41.6863 307.777 41.9085 307.686C42.0094 307.774 42.133 307.918 42.2793 308.118C42.4585 308.239 42.5758 308.288 42.6314 308.266C42.7424 308.22 42.87 308.136 43.0139 308.012C43.1907 307.81 43.3069 307.698 43.3624 307.675C43.4735 307.63 43.5404 307.635 43.5631 307.691C43.6413 307.723 43.7082 307.729 43.7638 307.706C43.8749 307.66 43.9468 307.599 43.9797 307.52C44.0681 307.42 44.1401 307.358 44.1956 307.335C44.3067 307.29 44.4291 307.272 44.5629 307.282C44.6967 307.292 44.8305 307.303 44.9642 307.313C45.1536 307.3 45.348 307.221 45.5475 307.074C45.747 306.928 45.9691 306.837 46.214 306.802C46.3251 306.757 46.4362 306.711 46.5473 306.666C46.7139 306.598 46.8363 306.58 46.9146 306.613C46.9052 305.321 46.9083 304.218 46.9239 303.304C46.9168 302.335 46.9438 301.449 47.0048 300.646L46.7854 300.347C46.9622 300.145 47.0279 299.989 46.9825 299.877C46.9927 299.744 46.9864 299.649 46.9637 299.593C46.9183 299.482 46.9121 299.388 46.9449 299.309C46.9981 298.964 47.0627 298.646 47.1385 298.355C47.2473 297.987 47.2285 297.703 47.0822 297.503C47.2035 297.324 47.2465 297.112 47.2113 296.867C47.2089 296.544 47.2457 296.238 47.3216 295.947C47.3544 295.869 47.3873 295.791 47.4201 295.713C47.453 295.634 47.4745 295.528 47.4847 295.395C47.4698 294.882 47.5218 294.375 47.6407 293.873C47.7369 293.315 47.8167 292.796 47.8801 292.317C47.9231 292.105 47.9383 291.904 47.9258 291.715C47.9462 291.447 47.9109 291.202 47.8202 290.98C47.997 290.778 48.0729 290.488 48.0478 290.109C48.0228 289.731 48.0267 289.502 48.0596 289.424C48.1253 289.267 48.1581 289.189 48.1581 289.189C48.2011 288.977 48.2215 288.71 48.2191 288.387C48.2723 288.041 48.2876 287.84 48.2649 287.785C48.2195 287.673 48.169 287.629 48.1135 287.652C48.1135 287.652 48.1022 287.624 48.0795 287.569C48.0012 287.536 47.9343 287.531 47.8788 287.553C47.8233 287.576 47.6085 287.923 47.2346 288.594C46.8935 289.187 46.5575 289.713 46.2266 290.173C46.1937 290.251 46.0775 290.363 45.8781 290.509C45.7341 290.633 45.7075 290.806 45.7983 291.028C45.6316 291.096 45.537 291.102 45.5143 291.047C45.3703 291.171 45.2213 291.361 45.0672 291.618C44.9686 291.853 44.7867 292.122 44.5215 292.425C44.4887 292.503 44.4949 292.598 44.5403 292.709C44.563 292.764 44.5188 292.815 44.4077 292.86C44.3522 292.883 44.3244 292.894 44.3244 292.894C44.3573 292.816 44.3181 292.799 44.207 292.845C44.1515 292.867 44.0909 292.957 44.0252 293.113C43.9368 293.214 43.8597 293.343 43.794 293.5C43.7611 293.578 43.4732 293.825 42.9303 294.241C42.4429 294.635 42.2837 294.959 42.4527 295.214C42.3972 295.237 42.3303 295.232 42.2521 295.199C42.2294 295.143 42.1625 295.138 42.0514 295.184C41.9958 295.206 41.8746 295.385 41.6876 295.721C41.478 296.001 41.3176 296.164 41.2065 296.209C41.0954 296.255 41.0563 296.238 41.0891 296.16C41.1775 296.059 41.1662 296.031 41.0551 296.077C40.944 296.122 40.8998 296.172 40.9225 296.228C41.0007 296.261 40.9843 296.3 40.8732 296.345C40.8177 296.368 40.7508 296.363 40.6726 296.33C40.6499 296.275 40.6108 296.258 40.5552 296.281C40.477 296.248 40.4152 296.176 40.3698 296.065C40.38 295.931 40.3068 295.831 40.1503 295.766C40.2387 295.665 40.2994 295.575 40.3322 295.497C40.3979 295.34 40.4586 295.251 40.5141 295.228C40.6252 295.183 40.6643 295.199 40.6315 295.277C40.6315 295.277 40.687 295.255 40.7981 295.209C40.9092 295.164 40.9925 295.13 41.0481 295.107C41.1365 295.006 41.2084 294.945 41.264 294.922C41.2968 294.844 41.3183 294.738 41.3285 294.604C41.3942 294.447 41.4826 294.346 41.5937 294.301C41.7048 294.256 41.7439 294.272 41.7111 294.35C41.6555 294.373 41.6555 294.373 41.7111 294.35C41.8222 294.305 41.9106 294.204 41.9763 294.048C42.042 293.891 42.119 293.762 42.2074 293.662C42.2403 293.583 42.3236 293.549 42.4574 293.559C42.5685 293.514 42.6404 293.452 42.6733 293.374C42.739 293.218 42.7934 293.033 42.8364 292.821C42.935 292.587 43.0007 292.43 43.0335 292.352C43.0993 292.195 43.2319 292.044 43.4314 291.898C43.6082 291.696 43.6398 291.456 43.5264 291.178C43.5819 291.156 43.6211 291.172 43.6437 291.228C43.6664 291.283 43.7169 291.327 43.7951 291.36L43.977 291.092C44.0224 291.203 44.1006 291.236 44.2117 291.19C44.3228 291.145 44.3999 291.016 44.4429 290.804C44.4859 290.592 44.5238 290.447 44.5567 290.369C44.8649 289.854 45.1239 289.456 45.3335 289.176C45.576 288.818 45.729 288.399 45.7923 287.92C45.8479 287.897 45.887 287.913 45.9097 287.969C45.9652 287.946 46.0208 287.923 46.0763 287.901C46.354 287.787 46.4248 287.564 46.2887 287.231C46.3771 287.13 46.4933 287.018 46.6372 286.894C46.7585 286.715 46.8355 286.586 46.8684 286.508C46.9341 286.351 47.0945 286.189 47.3495 286.02C47.6046 285.851 47.7422 285.632 47.7626 285.365C47.7727 285.231 47.7387 285.148 47.6605 285.115C47.6151 285.004 47.6088 284.909 47.6417 284.831C47.5736 284.664 47.6229 284.547 47.7896 284.479C47.9006 284.433 47.9398 284.45 47.9069 284.528C47.9069 284.528 47.9347 284.517 47.9902 284.494C48.0458 284.471 48.1784 284.32 48.388 284.04C48.6305 283.682 48.7342 283.38 48.699 283.135L49.4418 281.86C49.2955 281.66 49.3322 281.353 49.5521 280.94C49.7492 280.47 49.8302 280.113 49.795 279.868C49.8834 279.767 49.9049 279.661 49.8595 279.55C49.8697 279.416 49.8912 279.31 49.924 279.232C49.9897 279.076 50.0277 278.931 50.0379 278.797C50.1036 278.64 50.1137 278.507 50.0684 278.395C50.2452 278.194 50.316 277.97 50.2807 277.725C50.2228 277.425 50.2432 277.157 50.3417 276.923C50.3519 276.789 50.4012 276.672 50.4896 276.571C50.5553 276.414 50.6046 276.297 50.6375 276.219C50.736 275.984 50.7728 275.677 50.7477 275.299C50.7477 275.299 50.7364 275.271 50.7137 275.215C50.7466 275.137 50.7908 275.087 50.8463 275.064C50.9574 275.018 50.9965 275.035 50.9637 275.113C50.9864 275.169 51.0532 275.174 51.1643 275.128C51.2754 275.083 51.3196 275.033 51.2969 274.977C51.2516 274.866 51.2566 274.799 51.3122 274.776C51.4788 274.708 51.6404 274.707 51.7968 274.773C51.9533 274.839 52.082 274.916 52.1829 275.004C52.2158 274.926 52.2209 274.859 52.1982 274.803C52.2764 274.836 52.3382 274.908 52.3836 275.019C52.4618 275.052 52.5565 275.046 52.6676 275C52.7787 274.955 52.8393 274.866 52.8495 274.732C52.8925 274.52 52.9304 274.375 52.9633 274.296L53.2437 273.793C53.3321 273.692 53.3814 273.575 53.3916 273.441C53.4017 273.307 53.4233 273.201 53.4561 273.123C53.5218 272.966 53.5598 272.821 53.5699 272.687C53.613 272.475 53.6951 272.28 53.8164 272.101C53.7937 272.045 53.7432 272.001 53.665 271.968C53.7761 271.923 53.8809 271.783 53.9795 271.548C54.078 271.313 54.1437 271.157 54.1766 271.079C54.2423 270.922 54.38 270.704 54.5897 270.424C54.7766 270.088 54.8462 269.703 54.7985 269.269C54.8541 269.246 54.8818 269.235 54.8818 269.235C54.9147 269.157 54.9867 269.095 55.0978 269.05C55.1533 269.027 55.2593 269.048 55.4158 269.114L55.5296 268.679C55.6634 268.689 55.8198 268.755 55.999 268.876C56.1555 268.942 56.2564 269.03 56.3018 269.141C56.3244 269.197 56.1387 269.694 55.7444 270.633C55.3501 271.571 55.1264 272.214 55.0732 272.56L53.7425 275.728C53.6541 275.829 53.5328 276.008 53.3787 276.265C53.2019 276.467 53.092 276.674 53.049 276.886C52.9176 277.199 52.8088 277.568 52.7228 277.992C52.614 278.36 52.5331 278.717 52.4799 279.063L52.2335 279.65C52.1904 279.862 52.1423 280.141 52.0891 280.487C52.0688 280.754 52.0485 281.022 52.0281 281.289C52.018 281.423 51.975 281.635 51.8991 281.925C51.856 282.137 51.8295 282.31 51.8193 282.444C51.8193 282.444 51.8029 282.483 51.77 282.561C51.7927 282.617 51.7712 282.723 51.7055 282.879C51.6726 282.958 51.6789 283.052 51.7242 283.163C51.8025 283.196 51.8529 283.24 51.8756 283.296C51.709 283.364 51.6382 283.587 51.6632 283.966C51.6304 284.044 51.5811 284.162 51.5154 284.318C51.4825 284.396 51.4888 284.491 51.5342 284.602C51.1602 285.273 51.0425 285.937 51.181 286.593C51.1481 286.672 51.0938 286.856 51.0179 287.146C50.9975 287.414 50.9659 287.653 50.9228 287.865C50.9455 287.921 50.9682 287.977 50.9909 288.032C51.0465 288.009 51.0742 287.998 51.0742 287.998C51.0414 288.076 51.0476 288.171 51.093 288.282C51.1157 288.338 51.1106 288.405 51.0778 288.483C50.8783 288.629 50.7797 288.864 50.7821 289.187C50.7844 289.51 50.7527 289.75 50.687 289.906C50.7551 290.073 50.8282 290.173 50.9065 290.205C50.8079 290.44 50.7926 290.641 50.8607 290.807C50.7496 290.853 50.6776 290.915 50.6448 290.993C50.6119 291.071 50.6182 291.166 50.6636 291.277C50.6863 291.332 50.6647 291.438 50.599 291.595L50.8185 291.894L50.7352 291.928C50.6241 291.973 50.547 292.102 50.504 292.314C50.461 292.526 50.5013 292.704 50.6249 292.848C50.7031 292.881 50.7536 292.925 50.7763 292.981C50.7207 293.003 50.6703 292.959 50.6249 292.848L50.5639 293.651C50.531 293.729 50.5259 293.796 50.5486 293.851C50.5713 293.907 50.5776 294.002 50.5674 294.135C50.5345 294.214 50.5408 294.308 50.5862 294.419C50.6644 294.452 50.7262 294.524 50.7716 294.635L50.8808 295.855L50.6496 296.241L50.9172 298.562C50.9524 298.807 50.999 299.079 51.0569 299.38C51.0921 299.625 51.1108 299.909 51.1132 300.232C51.0021 300.277 50.9188 300.311 50.8632 300.334C50.785 300.301 50.7181 300.296 50.6626 300.319C50.5969 300.475 50.598 300.637 50.6661 300.803C50.767 300.892 50.8124 301.003 50.8022 301.137C50.8601 301.437 50.7843 301.727 50.5746 302.007C50.3423 302.232 50.3106 302.472 50.4796 302.727C50.2574 302.817 50.1475 303.024 50.1498 303.347C49.9934 303.282 49.8596 303.272 49.7485 303.317C49.6929 303.34 49.6323 303.429 49.5666 303.586C49.4782 303.687 49.3785 303.76 49.2674 303.805L48.9341 303.941C48.823 303.987 48.6955 304.071 48.5515 304.195C48.3849 304.263 48.2687 304.375 48.203 304.531C48.16 304.743 48.1056 304.928 48.0399 305.084C47.9515 305.185 47.9527 305.347 48.0434 305.569L48.1796 305.902L48.4143 306.001L48.6947 305.497C48.7503 305.475 48.8954 305.512 49.1301 305.611C49.2185 305.51 49.2514 305.432 49.2287 305.376C49.2615 305.298 49.3057 305.248 49.3613 305.225C49.4724 305.18 49.5784 305.201 49.6793 305.29C49.7575 305.322 49.8244 305.327 49.88 305.305C49.991 305.259 50.0908 305.186 50.1792 305.085C50.3231 304.962 50.4229 304.889 50.4784 304.866C50.5895 304.82 50.6842 304.814 50.7624 304.847C50.8962 304.857 51.0022 304.879 51.0804 304.912C51.1915 304.866 51.1688 304.811 51.0124 304.745C51.1461 304.755 51.3241 304.715 51.5463 304.624C51.6574 304.579 51.896 304.449 52.2621 304.234C52.6611 303.942 52.8884 303.784 52.9439 303.762C53.055 303.716 53.1219 303.721 53.1446 303.777C53.2228 303.81 53.2897 303.815 53.3452 303.792C53.4563 303.747 53.5005 303.696 53.4778 303.641C53.488 303.507 53.5209 303.429 53.5764 303.406C53.6875 303.361 54.0157 303.291 54.561 303.198C55.1063 303.105 55.4067 303.047 55.4622 303.025C55.5733 302.979 55.6617 302.878 55.7274 302.722C55.7931 302.565 55.8538 302.476 55.9093 302.453C56.0204 302.408 56.1151 302.401 56.1933 302.434C56.2715 302.467 56.3384 302.472 56.394 302.45C56.505 302.404 56.7045 302.258 56.9924 302.011C57.3132 301.685 57.5013 301.511 57.5569 301.488C57.8901 301.352 58.1186 301.356 58.2422 301.5C58.275 301.422 58.2801 301.355 58.2574 301.299C58.2347 301.244 58.2512 301.205 58.3067 301.182C58.4178 301.137 58.4569 301.153 58.4241 301.231C58.4241 301.231 58.4518 301.22 58.5074 301.197C58.6185 301.152 58.6627 301.102 58.64 301.046C58.6728 300.968 58.717 300.917 58.7726 300.895C58.8837 300.849 58.9506 300.854 58.9733 300.91C58.9733 300.91 59.001 300.899 59.0566 300.876C59.1677 300.83 59.3773 300.55 59.6855 300.036C60.0493 299.498 60.259 299.218 60.3145 299.195C60.4256 299.15 60.4647 299.166 60.4319 299.245C60.4319 299.245 60.4596 299.233 60.5152 299.211C60.6263 299.165 60.6705 299.115 60.6478 299.059C60.6024 298.948 60.5962 298.853 60.629 298.775L61.2955 298.503C61.3182 298.559 61.3409 298.614 61.3636 298.67C61.4418 298.702 61.5037 298.774 61.549 298.886C61.6625 299.163 61.5487 299.599 61.2076 300.192C61.1747 300.27 61.0143 300.433 60.7264 300.68C60.638 300.781 60.4828 300.877 60.2606 300.967C60.1949 301.124 60.1734 301.23 60.196 301.285C60.1405 301.308 60.085 301.331 60.0294 301.353C59.9512 301.321 59.8565 301.327 59.7454 301.372C59.6899 301.395 59.6292 301.484 59.5635 301.641C59.4853 301.608 59.4348 301.564 59.4122 301.508C59.3895 301.453 59.3226 301.448 59.2115 301.493C59.1559 301.516 58.9565 301.662 58.613 301.932C58.3251 302.179 58.1256 302.326 58.0145 302.371C57.959 302.394 57.8037 302.489 57.5487 302.658C57.2936 302.827 57.0828 302.946 56.9162 303.014C56.8606 303.037 56.8278 303.115 56.8176 303.249C56.8403 303.304 56.7961 303.355 56.685 303.4C56.5739 303.445 56.4679 303.424 56.367 303.336C56.3216 303.224 56.1827 303.281 55.9504 303.506C55.6625 303.753 55.4188 303.95 55.2193 304.096C54.9971 304.187 54.7308 304.328 54.4202 304.52C54.3646 304.542 54.3204 304.593 54.2876 304.671C54.3103 304.727 54.2661 304.777 54.155 304.822C54.0994 304.845 54.0603 304.829 54.0376 304.773C54.0149 304.718 53.948 304.712 53.837 304.758C53.7814 304.781 53.5933 304.955 53.2725 305.28C52.9291 305.55 52.7018 305.708 52.5907 305.753C52.5352 305.776 52.4961 305.759 52.4734 305.704C52.4507 305.648 52.3838 305.643 52.2727 305.688C52.2172 305.711 51.9899 305.869 51.5909 306.161C51.2475 306.431 51.0202 306.589 50.9091 306.634C50.8536 306.657 50.7425 306.702 50.5759 306.77C50.3865 306.783 50.2363 306.812 50.1252 306.857L49.1254 307.266C49.0699 307.288 49.0535 307.327 49.0762 307.383C49.1544 307.416 49.138 307.455 49.0269 307.5C48.9713 307.523 48.8325 307.58 48.6103 307.671C48.4437 307.739 48.2657 307.779 48.0763 307.791C48.0662 307.925 48.0396 308.098 47.9966 308.31C47.9864 308.444 47.9371 308.561 47.8487 308.662C47.9269 308.695 47.9887 308.767 48.0341 308.878C48.1022 309.045 48.0869 309.245 47.9884 309.48C48.0111 309.536 48.0224 309.563 48.0224 309.563C48.1006 309.596 48.1511 309.64 48.1738 309.696ZM75.4305 299.729C75.274 299.663 75.0734 299.648 74.8285 299.683C74.6619 299.751 74.523 299.808 74.4119 299.853C74.3008 299.899 74.2124 300 74.1467 300.156C73.8338 300.025 73.5662 300.004 73.344 300.095C73.2885 300.118 73.2443 300.168 73.2114 300.247C73.2341 300.302 73.1899 300.353 73.0788 300.398C73.0233 300.421 72.8391 300.366 72.5261 300.235C72.2914 300.136 72.0908 300.121 71.9241 300.189C71.8686 300.212 71.813 300.234 71.7575 300.257C71.7802 300.313 71.736 300.363 71.6249 300.409C71.5693 300.431 71.3851 300.377 71.0722 300.245C70.8375 300.147 70.6646 300.12 70.5535 300.166C70.4979 300.188 70.4702 300.2 70.4702 300.2C70.5484 300.233 70.532 300.272 70.4209 300.317C70.3653 300.34 70.2871 300.307 70.1862 300.218C70.1635 300.163 70.113 300.119 70.0348 300.086L69.1488 300.059C68.9368 300.016 68.697 299.984 68.4295 299.964C68.1392 299.888 67.8654 299.773 67.608 299.619L67.2219 299.388C67.0983 299.244 66.9696 299.167 66.8358 299.156C66.6794 299.091 66.5116 298.997 66.3324 298.876C66.2315 298.788 66.1306 298.699 66.0296 298.611C65.9843 298.5 65.8998 298.372 65.7762 298.228C65.2184 298.132 64.8702 297.756 64.7317 297.099C64.5706 296.387 64.2275 295.944 63.7026 295.77L63.3129 295.054C63.1995 294.776 63.1076 294.393 63.0371 293.903C62.9918 293.792 62.8959 293.636 62.7496 293.437C62.6362 293.159 62.5227 292.882 62.4093 292.604C62.2833 292.137 62.2243 291.675 62.2321 291.218C62.2172 290.705 62.1746 290.204 62.1041 289.715C62.0814 289.659 62.0701 289.631 62.0701 289.631C62.1256 289.609 62.1421 289.57 62.1194 289.514L62.0748 287.977L61.8553 287.677C62.1432 287.43 62.214 287.207 62.0677 287.007C62.1006 286.929 62.117 286.89 62.117 286.89C62.1725 286.867 62.2003 286.856 62.2003 286.856C62.241 286.321 62.2942 285.975 62.3599 285.819C62.4811 285.64 62.4737 285.383 62.3376 285.05L62.1674 284.633C62.2558 284.533 62.3606 284.392 62.4819 284.213C62.5805 283.979 62.6626 283.783 62.7283 283.627C62.8949 283.559 63.0111 283.446 63.0768 283.29C63.1425 283.133 63.13 282.944 63.0393 282.722C63.105 282.565 63.1543 282.448 63.1871 282.37C63.22 282.292 63.2528 282.213 63.2857 282.135C63.2833 281.812 63.2974 281.45 63.3279 281.048C63.414 280.624 63.4621 280.345 63.4722 280.212C63.8032 279.752 64.0609 279.193 64.2455 278.535C64.3566 278.489 64.4008 278.439 64.3781 278.383L65.1139 276.138C65.4197 275.301 65.814 274.362 66.2967 273.322C66.3624 273.166 66.4723 272.959 66.6264 272.701C66.7579 272.388 66.912 272.131 67.0888 271.929C67.2757 271.594 67.5018 271.274 67.767 270.972C68.0878 270.646 68.3416 270.316 68.5286 269.98L68.9229 269.041C69.1552 268.817 69.3762 268.564 69.5859 268.284C69.8511 267.981 70.1112 267.746 70.3663 267.577C70.3991 267.498 70.4042 267.431 70.3815 267.376C70.3588 267.32 70.3475 267.293 70.3475 267.293L70.5974 267.19C70.653 267.168 70.8575 266.955 71.2111 266.551C71.5976 266.069 71.8186 265.817 71.8742 265.794C71.9852 265.749 72.0244 265.765 71.9915 265.843C71.9915 265.843 72.0193 265.832 72.0748 265.809C72.1859 265.764 72.3741 265.59 72.6393 265.287C72.96 264.962 73.1482 264.788 73.2037 264.765C73.3148 264.719 73.3539 264.736 73.321 264.814C73.321 264.814 73.3766 264.791 73.4877 264.746C73.5988 264.701 73.6531 264.516 73.6508 264.193C73.6508 264.193 73.729 264.226 73.8855 264.292C74.0169 263.979 74.2215 263.766 74.4992 263.652C74.6103 263.607 74.705 263.601 74.7832 263.634C74.8614 263.666 74.9283 263.671 74.9839 263.649C75.095 263.603 75.1896 263.597 75.2678 263.63C75.3461 263.663 75.413 263.668 75.4685 263.645C75.5796 263.6 75.6351 263.577 75.6351 263.577C75.6125 263.522 75.6011 263.494 75.6011 263.494C75.6567 263.471 75.7235 263.476 75.8018 263.509C75.9129 263.464 75.9848 263.402 76.0177 263.324C76.0506 263.245 76.0948 263.195 76.1503 263.172C76.2614 263.127 76.3447 263.093 76.4003 263.07C76.4331 262.992 76.4773 262.942 76.5329 262.919C76.6439 262.873 76.7942 262.845 76.9835 262.832C77.2057 262.741 77.3672 262.74 77.4681 262.828C77.4001 262.662 77.4493 262.545 77.616 262.476C77.7271 262.431 77.8331 262.453 77.934 262.541C78.0349 262.629 78.1132 262.662 78.1687 262.64L78.9526 262.417C79.0637 262.371 79.1079 262.321 79.0852 262.265C79.0398 262.154 79.0171 262.099 79.0171 262.099C79.0727 262.076 79.1396 262.081 79.2178 262.114C79.2381 261.846 79.2874 261.729 79.3656 261.762L80.7257 260.331C80.7812 260.309 80.8141 260.23 80.8243 260.097C80.89 259.94 80.9506 259.85 81.0061 259.828C81.1172 259.782 81.1841 259.788 81.2068 259.843C81.285 259.876 81.3519 259.881 81.4075 259.858C81.5186 259.813 81.79 259.605 82.2219 259.234C82.6866 258.785 83.0906 258.425 83.4341 258.156C83.5452 258.11 83.6954 258.081 83.8847 258.069C84.1069 257.978 84.2622 257.882 84.3506 257.781C84.5172 257.713 84.6674 257.684 84.8012 257.694C84.8012 257.694 84.8289 257.683 84.8845 257.66C84.9729 257.559 85.0449 257.498 85.1004 257.475C85.2115 257.429 85.2948 257.395 85.3504 257.373C85.4388 257.272 85.5107 257.21 85.5663 257.187C85.7329 257.119 85.7998 257.124 85.7669 257.203C85.7341 257.281 85.7454 257.309 85.801 257.286L85.9829 257.017C86.1166 257.027 86.2227 257.049 86.3009 257.082C86.4347 257.092 86.5571 257.074 86.6682 257.029L86.7515 256.995C86.7742 257.05 86.8411 257.056 86.9522 257.01C87.0077 256.987 87.0519 256.937 87.0848 256.859C87.2311 257.058 87.4267 257.14 87.6715 257.105C87.9492 256.992 88.2055 256.984 88.4402 257.083L88.588 256.731C88.7672 256.852 88.9628 256.934 89.1748 256.977C89.3641 256.965 89.5483 257.019 89.7275 257.14L90.0608 257.004L91.0676 257.565C91.1357 257.732 91.3098 257.92 91.5898 258.13C91.8472 258.284 92.0541 258.394 92.2106 258.459L92.8009 259.19C92.8791 259.223 93.0243 259.261 93.2363 259.304C93.4483 259.347 93.6047 259.413 93.7057 259.501C93.8066 259.59 93.9024 259.745 93.9932 259.967C94.1066 260.245 94.1141 260.501 94.0155 260.736L94.1857 261.152L95.1245 261.547L95.1773 261.914C95.3337 261.98 95.4233 262.04 95.446 262.096C95.4687 262.151 95.4976 262.302 95.5329 262.546C95.5681 262.791 95.5806 262.981 95.5704 263.114C95.5376 263.193 95.5716 263.276 95.6725 263.364C95.7507 263.397 95.8012 263.441 95.8239 263.497C95.8591 263.742 95.8501 264.037 95.7969 264.383C95.7993 264.706 95.8849 264.995 96.0539 265.25L95.804 265.352C95.7938 265.486 95.8001 265.581 95.8228 265.636C95.8908 265.803 95.9526 265.875 96.0082 265.852C96.0966 265.751 96.1862 265.812 96.2769 266.034C96.2996 266.09 96.2186 266.447 96.034 267.105C95.8823 267.686 95.8291 268.032 95.8745 268.143C95.8416 268.221 95.8479 268.316 95.8932 268.427C95.9942 268.515 96.0673 268.615 96.1127 268.726C96.1581 268.837 96.1819 269.054 96.1843 269.377C96.1639 269.645 96.1436 269.912 96.1233 270.18C96.146 270.236 96.18 270.319 96.2254 270.43C96.3263 270.518 96.3717 270.629 96.3615 270.763C96.3865 271.142 96.2665 271.483 96.0013 271.785C96.1374 272.119 96.1789 272.458 96.1257 272.804C96.0928 272.882 96.0435 273 95.9778 273.156C95.9121 273.312 95.8742 273.458 95.864 273.591C95.7881 273.882 95.8069 274.166 95.9203 274.443C95.8093 274.489 95.7271 274.684 95.6739 275.03C95.6411 275.108 95.5691 275.17 95.458 275.216C95.4025 275.238 95.3583 275.289 95.3254 275.367C95.2824 275.579 95.2785 275.807 95.3137 276.052C95.3489 276.297 95.345 276.526 95.302 276.738C95.2488 277.083 95.1009 277.435 94.8584 277.794C94.6714 278.129 94.4958 278.493 94.3315 278.884C94.2987 278.962 94.2772 279.068 94.267 279.202C94.2568 279.336 94.2467 279.469 94.2365 279.603C94.1504 280.027 93.947 280.402 93.6263 280.727C93.649 280.783 93.6603 280.811 93.6603 280.811C93.7159 280.788 93.755 280.804 93.7777 280.86C93.8231 280.971 93.7523 281.194 93.5653 281.53C93.3556 281.81 93.2293 282.056 93.1863 282.268C93.1534 282.346 93.1483 282.413 93.171 282.469C93.1937 282.524 93.205 282.552 93.205 282.552C93.1292 282.842 93.0646 283.16 93.0114 283.506C92.9911 283.774 92.9254 283.93 92.8143 283.976C92.7588 283.998 92.7196 283.982 92.697 283.926C92.6516 283.815 92.5518 283.888 92.3977 284.146C92.2436 284.403 92.1337 284.61 92.068 284.767C91.9013 284.835 91.8016 284.908 91.7687 284.986C91.5513 285.723 91.128 286.512 90.4991 287.352C90.4662 287.43 90.3942 287.492 90.2831 287.537C90.2049 287.504 90.1494 287.527 90.1165 287.605C90.0508 287.762 89.9573 287.93 89.8361 288.109C89.7703 288.265 89.7046 288.422 89.6389 288.578C89.6389 288.578 89.5607 288.545 89.4042 288.48C88.9849 289.04 88.505 289.689 87.9644 290.429C87.4238 291.168 87.098 291.56 86.9869 291.606L86.3204 291.878C86.2648 291.901 86.2042 291.99 86.1385 292.147C86.1056 292.225 86.0728 292.303 86.0399 292.382C85.9742 292.538 85.8416 292.689 85.6421 292.836C85.4755 292.904 85.3593 293.016 85.2936 293.172L84.498 294.081C84.498 294.081 84.4815 294.12 84.4487 294.198C84.4714 294.254 84.4272 294.304 84.3161 294.35C84.2605 294.372 84.1936 294.367 84.1154 294.334C84.1154 294.334 84.0599 294.357 83.9488 294.402C83.8377 294.448 83.6937 294.571 83.5169 294.773C83.3957 294.952 83.2795 295.065 83.1684 295.11C83.1129 295.133 83.0738 295.116 83.0511 295.061C83.1066 295.038 83.0788 295.049 82.9678 295.095C82.9122 295.117 82.868 295.168 82.8352 295.246C82.8023 295.324 82.7417 295.414 82.6533 295.515C82.3654 295.762 82.2163 295.953 82.2062 296.086L81.9715 295.988L81.1383 296.328C81.0272 296.373 80.7949 296.598 80.4413 297.002C80.0877 297.405 79.8553 297.63 79.7442 297.675L78.9944 297.982C78.9161 297.949 78.8266 297.888 78.7256 297.8C78.7029 297.744 78.6361 297.739 78.525 297.784C78.4694 297.807 78.4252 297.858 78.3924 297.936C78.4151 297.991 78.41 298.058 78.3771 298.136L76.9948 298.798C76.9392 298.821 76.9114 298.832 76.9114 298.832C76.9341 298.888 76.8899 298.938 76.7788 298.984C76.7233 299.006 76.6564 299.001 76.5782 298.969C76.5226 298.991 76.4393 299.025 76.3282 299.071L75.6617 299.343C75.5506 299.388 75.4735 299.517 75.4305 299.729ZM74.1889 299.069L75.1887 298.661C75.2091 298.394 75.2635 298.209 75.3519 298.108L75.2498 297.858L75.0831 297.926C75.1715 297.826 75.2321 297.736 75.265 297.658C75.3534 297.557 75.4254 297.495 75.4809 297.472C75.5263 297.583 75.621 297.577 75.7649 297.454C75.9089 297.33 76.0199 297.285 76.0982 297.317C76.0528 297.206 76.0857 297.128 76.1967 297.083C76.3078 297.037 76.347 297.054 76.3141 297.132C76.2812 297.21 76.2926 297.238 76.3481 297.215C76.4592 297.17 76.5034 297.12 76.4807 297.064L76.719 297.647C76.8074 297.546 76.9122 297.406 77.0334 297.227C77.2329 297.081 77.3491 296.968 77.382 296.89C77.5384 296.956 77.6167 296.989 77.6167 296.989C77.7278 296.943 77.8162 296.843 77.8819 296.686C78.0031 296.507 78.108 296.367 78.1964 296.266C78.2519 296.243 78.291 296.26 78.3137 296.315C78.3919 296.348 78.4588 296.353 78.5144 296.33C78.6255 296.285 78.6532 296.274 78.5977 296.296C78.575 296.241 78.5914 296.202 78.647 296.179C78.7581 296.134 78.7972 296.15 78.7643 296.228C78.787 296.284 78.8261 296.3 78.8817 296.278C78.9928 296.232 79.0597 296.237 79.0823 296.293C79.1379 296.27 79.1934 296.248 79.249 296.225C79.2036 296.114 79.2365 296.036 79.3475 295.99C79.2795 295.824 79.2455 295.74 79.2455 295.74C79.3112 295.584 79.4438 295.432 79.6433 295.286C79.8427 295.14 79.9362 294.972 79.9237 294.783C80.0019 294.815 80.0864 294.943 80.1772 295.165C80.2202 294.953 80.2468 294.78 80.257 294.646C80.3 294.434 80.3657 294.278 80.4541 294.177L80.6548 294.192C80.6775 294.248 80.6724 294.315 80.6395 294.393C80.584 294.416 80.5676 294.455 80.5902 294.51L81.0068 294.34L81.1547 293.988C81.2885 293.998 81.4222 294.008 81.556 294.019C81.6671 293.973 81.7731 293.995 81.874 294.083C81.8287 293.972 81.8502 293.866 81.9386 293.765C82.0043 293.609 82.0649 293.519 82.1205 293.496C82.2769 293.562 82.3829 293.584 82.4385 293.561C82.4134 293.182 82.4842 292.959 82.6509 292.891L82.7342 292.857C82.7569 292.912 82.796 292.929 82.8515 292.906C83.1293 292.793 83.2771 292.441 83.2951 291.85C83.4969 292.027 83.6256 292.104 83.6812 292.081C83.6913 291.947 83.6624 291.797 83.5943 291.631C83.7508 291.696 83.8846 291.706 83.9957 291.661C84.2178 291.57 84.4111 291.329 84.5754 290.938C84.7169 290.491 84.8042 290.229 84.837 290.151C84.9583 289.972 85.13 289.837 85.3522 289.746C85.5517 289.6 85.6956 289.476 85.784 289.375C85.9053 289.196 86.0038 288.961 86.0797 288.671C86.2111 288.358 86.3046 288.19 86.3602 288.168C86.4713 288.122 86.5104 288.139 86.4775 288.217C86.4775 288.217 86.5053 288.205 86.5608 288.183C86.6719 288.137 86.7326 288.048 86.7427 287.914C86.7529 287.78 86.7858 287.702 86.8413 287.679C86.9524 287.634 86.9915 287.65 86.9587 287.729C86.9031 287.751 86.9031 287.751 86.9587 287.729C87.0142 287.706 87.1797 287.476 87.455 287.04C87.7077 286.548 87.8556 286.196 87.8986 285.984C87.9541 285.961 88.0097 285.938 88.0652 285.916C88.1536 285.815 88.2256 285.753 88.2811 285.73C88.3242 285.518 88.3672 285.306 88.4102 285.094C88.4305 284.827 88.4622 284.587 88.5052 284.375C88.571 284.218 88.6922 284.039 88.869 283.837C89.0458 283.635 89.1393 283.468 89.1495 283.334C89.2606 283.288 89.3161 283.266 89.3161 283.266C89.349 283.188 89.3932 283.137 89.4487 283.114C89.4816 283.036 89.464 282.914 89.3959 282.747L89.9416 281.941C89.9846 281.729 90.0667 281.533 90.188 281.354C90.3421 281.097 90.4407 280.862 90.4837 280.65C90.5924 280.282 90.6671 279.83 90.7078 279.295C90.804 278.737 91.0352 278.351 91.4013 278.136C91.51 277.768 91.6301 277.427 91.7615 277.114C91.9485 276.779 92.0799 276.466 92.1558 276.175C92.1761 275.908 92.1801 275.679 92.1675 275.49C92.1879 275.223 92.2422 275.038 92.3306 274.937C92.3408 274.804 92.3623 274.698 92.3952 274.619C92.4609 274.463 92.4824 274.357 92.4597 274.301C92.4699 274.168 92.4687 274.006 92.4562 273.817C92.4437 273.627 92.4816 273.482 92.57 273.381C92.5903 273.114 92.6889 272.879 92.8657 272.677C92.9314 272.521 93.0249 272.353 93.1462 272.174C93.2674 271.995 93.3218 271.81 93.3093 271.621C93.2741 271.376 93.2111 271.143 93.1203 270.921C93.0624 270.62 93.0272 270.375 93.0147 270.186C92.9693 270.075 92.9404 269.925 92.9278 269.735C92.9709 269.523 93.0088 269.378 93.0417 269.3C93.0518 269.166 93.0784 268.993 93.1215 268.781C93.1418 268.514 93.1066 268.269 93.0158 268.047C93.0487 267.968 93.026 267.913 92.9478 267.88C92.8695 267.847 92.8191 267.803 92.7964 267.747C92.8621 267.591 92.8609 267.429 92.7928 267.263C92.7803 267.073 92.7565 266.856 92.7212 266.612L93.0815 265.589C93.1347 265.244 93.1159 264.96 93.0251 264.737C92.9798 264.626 92.9066 264.527 92.8057 264.438C92.6821 264.294 92.6089 264.195 92.5862 264.139C92.4274 263.75 92.2686 263.361 92.1098 262.973C92.0065 262.561 91.8704 262.228 91.7014 261.973C91.656 261.862 91.5551 261.773 91.3986 261.708C91.2195 261.586 91.1185 261.498 91.0959 261.442C90.9824 261.165 90.9359 260.892 90.9562 260.624C90.9664 260.491 90.9879 260.385 91.0207 260.306C91.0309 260.173 91.0246 260.078 91.002 260.022L90.8999 259.772C90.8216 259.74 90.7043 259.69 90.5478 259.625C90.4242 259.481 90.3233 259.392 90.245 259.359C90.1441 259.271 89.999 259.233 89.8097 259.246C89.6532 259.18 89.5081 259.142 89.3743 259.132C89.4627 259.031 89.4956 258.953 89.4729 258.897C89.4275 258.786 89.4048 258.73 89.4048 258.73C89.102 258.465 88.8673 258.367 88.7007 258.435C88.5341 258.503 88.4066 258.587 88.3181 258.688L88.114 258.188L87.0425 257.945L85.9935 258.471C85.9379 258.494 85.871 258.489 85.7928 258.456C85.7701 258.4 85.7032 258.395 85.5921 258.441C85.3144 258.554 85.0316 258.734 84.7437 258.982C84.6882 259.004 84.5998 259.105 84.4785 259.284C84.3346 259.408 84.207 259.493 84.0959 259.538L83.5127 259.776C83.4572 259.799 83.413 259.849 83.3801 259.927C83.3801 259.927 83.3246 259.95 83.2135 259.996C83.1579 260.018 83.0355 260.036 82.8462 260.048C82.6897 259.983 82.5559 259.973 82.4449 260.018C82.3893 260.041 82.085 260.327 81.5319 260.877C80.9788 261.427 80.5305 261.837 80.1871 262.107C80.2325 262.218 80.317 262.345 80.4406 262.489C80.6197 262.611 80.732 262.727 80.7774 262.838C81.0222 262.803 81.2229 262.818 81.3794 262.884C81.5914 262.927 81.7756 262.981 81.9321 263.047C81.9548 263.102 82.0052 263.146 82.0835 263.179C82.1617 263.212 82.2122 263.256 82.2349 263.312C82.4469 263.355 82.7093 263.442 83.0223 263.574C83.3352 263.705 83.5535 263.843 83.6771 263.987C83.7553 264.019 83.7894 264.103 83.7792 264.237C83.8246 264.348 83.8586 264.431 83.8813 264.487C84.0276 264.686 84.2408 264.891 84.5209 265.1C84.8009 265.31 84.9523 265.442 84.975 265.498C84.9977 265.554 84.9989 265.715 84.9785 265.983C85.0137 266.228 85.0376 266.445 85.0501 266.634L84.7169 266.77C84.4391 266.884 84.2436 266.801 84.1301 266.524C83.9611 266.269 83.8035 266.041 83.6572 265.842C83.5437 265.564 83.453 265.342 83.3849 265.175C83.2864 265.41 83.2093 265.539 83.1538 265.561C82.9973 265.496 82.8408 265.43 82.6843 265.364C82.5279 265.299 82.432 265.143 82.3968 264.898C82.2075 264.911 82.046 264.912 81.9122 264.902C81.7557 264.836 81.6106 264.798 81.4768 264.788L81.0227 264.39C80.9671 264.413 80.9507 264.452 80.9734 264.508C80.9961 264.563 80.9519 264.614 80.8408 264.659C80.7852 264.682 80.6237 264.683 80.3561 264.663C80.1441 264.62 79.9712 264.593 79.8374 264.583C79.681 264.517 79.6027 264.484 79.6027 264.484C79.2241 264.509 78.9792 264.544 78.8681 264.59C78.7015 264.658 78.6194 264.854 78.6217 265.177C78.6014 265.444 78.4246 265.646 78.0913 265.782C78.0358 265.805 77.9966 265.788 77.974 265.733C78.0068 265.655 77.9677 265.638 77.8566 265.684C77.7455 265.729 77.6849 265.819 77.6747 265.952C77.6974 266.008 77.6923 266.075 77.6595 266.153C77.5484 266.198 77.3489 266.345 77.061 266.592C77.018 266.804 76.9585 267.055 76.8826 267.345C76.8068 267.636 76.736 267.859 76.6703 268.015C76.7485 268.048 76.7598 268.076 76.7043 268.099C76.6738 268.5 76.5474 268.746 76.3253 268.837C76.1031 268.928 75.9353 268.834 75.8218 268.556C75.7765 268.445 75.7804 268.217 75.8336 267.871C75.9196 267.447 75.9513 267.207 75.9286 267.152L75.6939 267.053C75.5273 267.121 75.3782 267.312 75.2468 267.625C75.0927 267.882 74.8768 268.067 74.599 268.181C74.5435 268.204 74.416 268.288 74.2165 268.434C74.0725 268.558 73.945 268.642 73.8339 268.688C73.8793 268.799 73.8856 268.894 73.8527 268.972C73.7745 268.939 73.6798 268.945 73.5687 268.991C73.3466 269.081 73.104 269.44 72.8412 270.066C72.6112 270.613 72.5075 270.915 72.5302 270.97L72.4997 271.372C72.4215 271.339 72.3824 271.322 72.3824 271.322C72.3597 271.267 72.2928 271.262 72.1817 271.307C72.1262 271.33 72.0933 271.408 72.0831 271.542C72.0503 271.62 71.9783 271.682 71.8672 271.727C71.8117 271.75 71.7839 271.761 71.7839 271.761C71.8168 271.683 71.7777 271.667 71.6666 271.712C71.611 271.735 71.4784 271.886 71.2688 272.166C71.0591 272.446 70.8987 272.609 70.7876 272.654C70.7321 272.677 70.6488 272.711 70.5377 272.756C70.4595 272.724 70.3648 272.73 70.2537 272.775L70.3218 272.942C70.4125 273.164 70.3417 273.387 70.1094 273.612C69.9099 273.758 69.7268 273.865 69.5602 273.933C69.55 274.067 69.5234 274.24 69.4804 274.452C69.4374 274.664 69.383 274.848 69.3173 275.005C69.1859 275.318 69.0368 275.508 68.8702 275.576C68.8147 275.599 68.7755 275.583 68.7529 275.527C68.7302 275.471 68.6911 275.455 68.6355 275.478C68.58 275.5 68.4094 275.797 68.1239 276.367C67.8939 276.915 67.7625 277.228 67.7296 277.306C67.6209 277.675 67.4402 278.105 67.1875 278.597C66.9348 279.089 66.6594 279.526 66.3614 279.907C66.4067 280.018 66.3966 280.151 66.3309 280.308C66.1869 280.431 66.1048 280.627 66.0844 280.895C66.097 281.084 66.0704 281.257 66.0047 281.413L65.838 281.481C65.8505 281.671 65.8353 281.871 65.7923 282.083C65.7492 282.295 65.6949 282.48 65.6292 282.636C65.5408 282.737 65.3424 283.045 65.0342 283.56C64.7815 284.052 64.6779 284.353 64.7233 284.464C64.746 284.52 64.7964 284.564 64.8746 284.597C64.9529 284.63 65.0033 284.674 65.026 284.73C64.9048 284.909 64.8391 285.065 64.8289 285.199C64.8516 285.255 64.8301 285.361 64.7644 285.517L64.5637 285.502C64.6318 285.668 64.6102 285.774 64.4992 285.82C64.7464 286.108 64.7311 286.308 64.4534 286.422C64.3979 286.444 64.3979 286.444 64.4534 286.422C64.4863 286.344 64.4471 286.327 64.3361 286.373C64.225 286.418 64.1643 286.507 64.1542 286.641C64.1769 286.697 64.1831 286.791 64.1729 286.925C64.2285 286.903 64.2563 286.891 64.2563 286.891C64.2336 286.836 64.25 286.797 64.3055 286.774C64.4166 286.728 64.4558 286.745 64.4229 286.823L64.3619 287.626C64.3517 287.76 64.2696 287.955 64.1155 288.213C64.0169 288.447 63.9348 288.643 63.8691 288.799L64.0392 289.216L63.9665 290.704C63.9892 290.759 63.9727 290.799 63.9172 290.821C63.7983 291.323 63.8069 291.741 63.943 292.075C63.9884 292.186 64.0225 292.269 64.0451 292.324C64.1007 292.302 64.1234 292.357 64.1132 292.491C63.9567 292.425 63.9125 292.476 63.9806 292.642C63.9478 292.721 64.0322 292.848 64.2341 293.025C64.2239 293.159 64.2087 293.359 64.1883 293.627C64.2009 293.816 64.2298 293.967 64.2752 294.078C64.3659 294.3 64.4895 294.444 64.646 294.509C64.6257 294.777 64.6609 295.022 64.7516 295.244C64.8197 295.411 64.9105 295.633 65.0239 295.911C65.1225 295.676 65.1718 295.559 65.1718 295.559L65.3724 295.574C65.3396 295.652 65.2789 295.742 65.1905 295.843C65.1577 295.921 65.1362 296.027 65.126 296.161C65.2825 296.226 65.4401 296.454 65.5989 296.842C65.7906 297.153 65.9369 297.352 66.0378 297.441C66.0378 297.441 66.0871 297.324 66.1857 297.089C66.3422 297.155 66.4595 297.204 66.5377 297.237C66.5933 297.214 66.6437 297.258 66.6891 297.369L66.7912 297.619C66.8468 297.597 66.8745 297.585 66.8745 297.585C66.8518 297.53 66.8683 297.491 66.9238 297.468C66.9794 297.445 67.0412 297.517 67.1092 297.684C67.2657 297.749 67.3944 297.827 67.4953 297.915C67.6518 297.981 67.7918 298.085 67.9154 298.229C68.0492 298.24 68.1439 298.233 68.1994 298.211C68.3105 298.165 68.4052 298.159 68.4834 298.192L68.6195 298.525L68.8695 298.423C68.925 298.4 69.0866 298.399 69.3541 298.419C69.4097 298.397 69.4488 298.413 69.4715 298.469C69.4942 298.524 69.5333 298.541 69.5888 298.518C69.5912 298.841 69.6037 299.03 69.6264 299.086C69.8157 299.073 70.0277 299.117 70.2624 299.215C70.4971 299.314 70.6927 299.396 70.8492 299.462C70.9603 299.416 71.1218 299.415 71.3338 299.458C71.5232 299.445 71.6456 299.428 71.7011 299.405C71.8678 299.337 71.9511 299.303 71.9511 299.303C71.9284 299.248 71.9448 299.208 72.0004 299.186C72.1115 299.14 72.1784 299.145 72.201 299.201C72.302 299.289 72.3802 299.322 72.4357 299.3C72.5468 299.254 72.591 299.204 72.5683 299.148C72.6239 299.125 72.6517 299.114 72.6517 299.114C72.5382 298.836 72.4146 298.692 72.2808 298.682C72.3465 298.526 72.4741 298.441 72.6634 298.429C72.83 298.361 72.9689 298.304 73.08 298.259C72.9587 298.438 72.9877 298.588 73.1668 298.709C73.3233 298.775 73.4242 298.863 73.4696 298.974L73.6362 298.906C73.7473 298.861 73.8533 298.883 73.9542 298.971C74.0552 299.059 74.1334 299.092 74.1889 299.069ZM113.102 284.341C112.946 284.275 112.745 284.26 112.5 284.295C112.334 284.363 112.195 284.42 112.084 284.465C111.973 284.511 111.884 284.612 111.818 284.768C111.506 284.637 111.238 284.616 111.016 284.707C110.96 284.73 110.916 284.78 110.883 284.859C110.906 284.914 110.862 284.965 110.751 285.01C110.695 285.033 110.511 284.978 110.198 284.847C109.963 284.748 109.763 284.733 109.596 284.801C109.54 284.824 109.485 284.847 109.429 284.869C109.452 284.925 109.408 284.975 109.297 285.021C109.241 285.043 109.057 284.989 108.744 284.857C108.509 284.759 108.336 284.732 108.225 284.778C108.17 284.8 108.142 284.812 108.142 284.812C108.22 284.845 108.204 284.884 108.093 284.929C108.037 284.952 107.959 284.919 107.858 284.83C107.835 284.775 107.785 284.731 107.707 284.698L106.821 284.671C106.609 284.628 106.369 284.596 106.101 284.576C105.811 284.5 105.537 284.385 105.28 284.231L104.894 284C104.77 283.856 104.641 283.779 104.508 283.769C104.351 283.703 104.183 283.609 104.004 283.488C103.903 283.4 103.802 283.311 103.701 283.223C103.656 283.112 103.572 282.984 103.448 282.84C102.89 282.744 102.542 282.368 102.403 281.711C102.242 281 101.899 280.556 101.374 280.382L100.985 279.666C100.871 279.388 100.779 279.005 100.709 278.515C100.664 278.404 100.568 278.249 100.421 278.049C100.308 277.771 100.194 277.494 100.081 277.216C99.9551 276.749 99.896 276.287 99.9038 275.83C99.889 275.318 99.8463 274.816 99.7759 274.327C99.7532 274.271 99.7419 274.243 99.7419 274.243C99.7974 274.221 99.8138 274.182 99.7911 274.126L99.7465 272.589L99.5271 272.29C99.815 272.042 99.8858 271.819 99.7395 271.619C99.7723 271.541 99.7887 271.502 99.7887 271.502C99.8443 271.479 99.8721 271.468 99.8721 271.468C99.9127 270.933 99.9659 270.587 100.032 270.431C100.153 270.252 100.145 269.995 100.009 269.662L99.8392 269.246C99.9276 269.145 100.032 269.005 100.154 268.825C100.252 268.591 100.334 268.395 100.4 268.239C100.567 268.171 100.683 268.058 100.749 267.902C100.814 267.745 100.802 267.556 100.711 267.334C100.777 267.177 100.826 267.06 100.859 266.982C100.892 266.904 100.925 266.825 100.957 266.747C100.955 266.424 100.969 266.062 101 265.66C101.086 265.236 101.134 264.958 101.144 264.824C101.475 264.365 101.733 263.806 101.917 263.147C102.028 263.101 102.073 263.051 102.05 262.995L102.786 260.751C103.092 259.913 103.486 258.974 103.968 257.934C104.034 257.778 104.144 257.571 104.298 257.313C104.43 257 104.584 256.743 104.761 256.541C104.947 256.206 105.174 255.886 105.439 255.584C105.76 255.258 106.013 254.928 106.2 254.592L106.595 253.653C106.827 253.429 107.048 253.176 107.258 252.896C107.523 252.594 107.783 252.358 108.038 252.189C108.071 252.11 108.076 252.044 108.053 251.988C108.031 251.932 108.019 251.905 108.019 251.905L108.269 251.803C108.325 251.78 108.529 251.567 108.883 251.163C109.269 250.681 109.49 250.429 109.546 250.406C109.657 250.361 109.696 250.377 109.663 250.455C109.663 250.455 109.691 250.444 109.747 250.421C109.858 250.376 110.046 250.202 110.311 249.899C110.632 249.574 110.82 249.4 110.875 249.377C110.987 249.332 111.026 249.348 110.993 249.426C110.993 249.426 111.048 249.404 111.159 249.358C111.271 249.313 111.325 249.129 111.323 248.805C111.323 248.805 111.401 248.838 111.557 248.904C111.689 248.591 111.893 248.378 112.171 248.264C112.282 248.219 112.377 248.213 112.455 248.246C112.533 248.278 112.6 248.284 112.656 248.261C112.767 248.216 112.861 248.209 112.94 248.242C113.018 248.275 113.085 248.28 113.14 248.257C113.251 248.212 113.307 248.189 113.307 248.189C113.284 248.134 113.273 248.106 113.273 248.106C113.328 248.083 113.395 248.088 113.474 248.121C113.585 248.076 113.657 248.014 113.689 247.936C113.722 247.858 113.767 247.807 113.822 247.784C113.933 247.739 114.016 247.705 114.072 247.682C114.105 247.604 114.149 247.554 114.205 247.531C114.316 247.486 114.466 247.457 114.655 247.444C114.877 247.353 115.039 247.352 115.14 247.441C115.072 247.274 115.121 247.157 115.288 247.089C115.399 247.043 115.505 247.065 115.606 247.153C115.707 247.241 115.785 247.274 115.84 247.252L116.624 247.029C116.735 246.983 116.78 246.933 116.757 246.877C116.712 246.766 116.689 246.711 116.689 246.711C116.744 246.688 116.811 246.693 116.89 246.726C116.91 246.458 116.959 246.341 117.037 246.374L118.397 244.943C118.453 244.921 118.486 244.842 118.496 244.709C118.562 244.552 118.622 244.463 118.678 244.44C118.789 244.394 118.856 244.4 118.879 244.455C118.957 244.488 119.024 244.493 119.079 244.47C119.19 244.425 119.462 244.217 119.894 243.846C120.358 243.397 120.762 243.038 121.106 242.768C121.217 242.722 121.367 242.693 121.556 242.681C121.779 242.59 121.934 242.494 122.022 242.393C122.189 242.325 122.339 242.296 122.473 242.306C122.473 242.306 122.501 242.295 122.556 242.272C122.645 242.171 122.717 242.11 122.772 242.087C122.883 242.042 122.967 242.008 123.022 241.985C123.111 241.884 123.182 241.822 123.238 241.799C123.405 241.731 123.472 241.736 123.439 241.815C123.406 241.893 123.417 241.921 123.473 241.898L123.655 241.629C123.788 241.639 123.894 241.661 123.973 241.694C124.106 241.704 124.229 241.686 124.34 241.641L124.423 241.607C124.446 241.662 124.513 241.668 124.624 241.622C124.679 241.6 124.724 241.549 124.757 241.471C124.903 241.67 125.098 241.752 125.343 241.717C125.621 241.604 125.877 241.596 126.112 241.695L126.26 241.343C126.439 241.464 126.635 241.546 126.847 241.589C127.036 241.577 127.22 241.631 127.399 241.752L127.733 241.616L128.739 242.177C128.807 242.344 128.982 242.532 129.262 242.742C129.519 242.896 129.726 243.006 129.882 243.071L130.473 243.802C130.551 243.835 130.696 243.873 130.908 243.916C131.12 243.959 131.276 244.025 131.377 244.113C131.478 244.202 131.574 244.357 131.665 244.579C131.778 244.857 131.786 245.113 131.687 245.348L131.857 245.764L132.796 246.159L132.849 246.526C133.005 246.592 133.095 246.652 133.118 246.708C133.14 246.763 133.169 246.914 133.205 247.159C133.24 247.403 133.252 247.593 133.242 247.727C133.209 247.805 133.243 247.888 133.344 247.976C133.423 248.009 133.473 248.054 133.496 248.109C133.531 248.354 133.522 248.649 133.469 248.995C133.471 249.318 133.557 249.607 133.726 249.862L133.476 249.964C133.466 250.098 133.472 250.193 133.495 250.248C133.563 250.415 133.624 250.487 133.68 250.464C133.768 250.363 133.858 250.424 133.949 250.646C133.971 250.702 133.89 251.059 133.706 251.718C133.554 252.298 133.501 252.644 133.546 252.755C133.513 252.833 133.52 252.928 133.565 253.039C133.666 253.127 133.739 253.227 133.784 253.338C133.83 253.449 133.854 253.666 133.856 253.989C133.836 254.257 133.815 254.525 133.795 254.792C133.818 254.848 133.852 254.931 133.897 255.042C133.998 255.13 134.043 255.242 134.033 255.375C134.058 255.754 133.938 256.095 133.673 256.397C133.809 256.731 133.851 257.07 133.797 257.416C133.765 257.494 133.715 257.612 133.65 257.768C133.584 257.925 133.546 258.07 133.536 258.203C133.46 258.494 133.479 258.778 133.592 259.055C133.481 259.101 133.399 259.296 133.346 259.642C133.313 259.72 133.241 259.782 133.13 259.828C133.074 259.85 133.03 259.901 132.997 259.979C132.954 260.191 132.95 260.419 132.985 260.664C133.021 260.909 133.017 261.138 132.974 261.35C132.921 261.695 132.773 262.047 132.53 262.406C132.343 262.741 132.168 263.105 132.003 263.496C131.97 263.574 131.949 263.68 131.939 263.814C131.929 263.948 131.918 264.082 131.908 264.215C131.822 264.639 131.619 265.014 131.298 265.34C131.321 265.395 131.332 265.423 131.332 265.423C131.388 265.4 131.427 265.417 131.449 265.472C131.495 265.583 131.424 265.807 131.237 266.142C131.027 266.422 130.901 266.668 130.858 266.88C130.825 266.959 130.82 267.025 130.843 267.081C130.865 267.137 130.877 267.164 130.877 267.164C130.801 267.455 130.736 267.773 130.683 268.118C130.663 268.386 130.597 268.542 130.486 268.588C130.431 268.61 130.391 268.594 130.369 268.538C130.323 268.427 130.224 268.501 130.069 268.758C129.915 269.015 129.805 269.222 129.74 269.379C129.573 269.447 129.473 269.52 129.44 269.598C129.223 270.335 128.8 271.124 128.171 271.964C128.138 272.042 128.066 272.104 127.955 272.149C127.877 272.116 127.821 272.139 127.788 272.217C127.723 272.374 127.629 272.542 127.508 272.721C127.442 272.877 127.376 273.034 127.311 273.19C127.311 273.19 127.232 273.157 127.076 273.092C126.657 273.652 126.177 274.302 125.636 275.041C125.096 275.78 124.77 276.173 124.659 276.218L123.992 276.49C123.937 276.513 123.876 276.602 123.81 276.759C123.777 276.837 123.745 276.915 123.712 276.994C123.646 277.15 123.513 277.301 123.314 277.448C123.147 277.516 123.031 277.628 122.965 277.785L122.17 278.693C122.17 278.693 122.153 278.732 122.12 278.81C122.143 278.866 122.099 278.916 121.988 278.962C121.932 278.984 121.865 278.979 121.787 278.946C121.787 278.946 121.732 278.969 121.621 279.014C121.509 279.06 121.365 279.183 121.189 279.385C121.067 279.564 120.951 279.677 120.84 279.722C120.785 279.745 120.746 279.728 120.723 279.673C120.778 279.65 120.751 279.661 120.64 279.707C120.584 279.729 120.54 279.78 120.507 279.858C120.474 279.936 120.413 280.026 120.325 280.127C120.037 280.374 119.888 280.565 119.878 280.698L119.643 280.6L118.81 280.94C118.699 280.986 118.467 281.21 118.113 281.614C117.759 282.017 117.527 282.242 117.416 282.287L116.666 282.594C116.588 282.561 116.498 282.5 116.397 282.412C116.375 282.356 116.308 282.351 116.197 282.397C116.141 282.419 116.097 282.47 116.064 282.548C116.087 282.603 116.082 282.67 116.049 282.749L114.667 283.41C114.611 283.433 114.583 283.444 114.583 283.444C114.606 283.5 114.562 283.55 114.451 283.596C114.395 283.619 114.328 283.613 114.25 283.581C114.194 283.603 114.111 283.637 114 283.683L113.333 283.955C113.222 284 113.145 284.129 113.102 284.341ZM111.861 283.682L112.861 283.273C112.881 283.006 112.935 282.821 113.024 282.72L112.922 282.471L112.755 282.539C112.843 282.438 112.904 282.348 112.937 282.27C113.025 282.169 113.097 282.107 113.153 282.084C113.198 282.196 113.293 282.189 113.437 282.066C113.581 281.942 113.692 281.897 113.77 281.93C113.725 281.818 113.757 281.74 113.868 281.695C113.98 281.649 114.019 281.666 113.986 281.744C113.953 281.822 113.964 281.85 114.02 281.827C114.131 281.782 114.175 281.732 114.152 281.676L114.391 282.259C114.479 282.158 114.584 282.018 114.705 281.839C114.905 281.693 115.021 281.581 115.054 281.502C115.21 281.568 115.288 281.601 115.288 281.601C115.4 281.556 115.488 281.455 115.554 281.298C115.675 281.119 115.78 280.979 115.868 280.878C115.924 280.855 115.963 280.872 115.985 280.927C116.064 280.96 116.131 280.965 116.186 280.943C116.297 280.897 116.325 280.886 116.269 280.909C116.247 280.853 116.263 280.814 116.319 280.791C116.43 280.746 116.469 280.762 116.436 280.84C116.459 280.896 116.498 280.912 116.553 280.89C116.665 280.844 116.731 280.849 116.754 280.905C116.81 280.882 116.865 280.86 116.921 280.837C116.875 280.726 116.908 280.648 117.019 280.602C116.951 280.436 116.917 280.352 116.917 280.352C116.983 280.196 117.116 280.044 117.315 279.898C117.514 279.752 117.608 279.584 117.595 279.395C117.674 279.428 117.758 279.555 117.849 279.777C117.892 279.565 117.919 279.392 117.929 279.259C117.972 279.047 118.037 278.89 118.126 278.789L118.327 278.804C118.349 278.86 118.344 278.927 118.311 279.005C118.256 279.028 118.239 279.067 118.262 279.122L118.679 278.952L118.826 278.6C118.96 278.61 119.094 278.621 119.228 278.631C119.339 278.585 119.445 278.607 119.546 278.695C119.5 278.584 119.522 278.478 119.61 278.377C119.676 278.221 119.737 278.131 119.792 278.108C119.949 278.174 120.055 278.196 120.11 278.173C120.085 277.794 120.156 277.571 120.323 277.503L120.406 277.469C120.429 277.524 120.468 277.541 120.523 277.518C120.801 277.405 120.949 277.053 120.967 276.462C121.169 276.639 121.297 276.716 121.353 276.693C121.363 276.559 121.334 276.409 121.266 276.243C121.423 276.308 121.556 276.318 121.667 276.273C121.89 276.182 122.083 275.941 122.247 275.55C122.389 275.104 122.476 274.841 122.509 274.763C122.63 274.584 122.802 274.449 123.024 274.358C123.223 274.212 123.367 274.088 123.456 273.987C123.577 273.808 123.676 273.573 123.751 273.283C123.883 272.97 123.976 272.802 124.032 272.78C124.143 272.734 124.182 272.751 124.149 272.829C124.149 272.829 124.177 272.818 124.233 272.795C124.344 272.749 124.404 272.66 124.414 272.526C124.425 272.392 124.458 272.314 124.513 272.291C124.624 272.246 124.663 272.262 124.63 272.341C124.575 272.363 124.575 272.363 124.63 272.341C124.686 272.318 124.851 272.088 125.127 271.652C125.379 271.16 125.527 270.808 125.57 270.596C125.626 270.573 125.681 270.55 125.737 270.528C125.825 270.427 125.897 270.365 125.953 270.342C125.996 270.13 126.039 269.918 126.082 269.706C126.102 269.439 126.134 269.199 126.177 268.987C126.243 268.83 126.364 268.651 126.541 268.449C126.718 268.248 126.811 268.08 126.821 267.946C126.932 267.901 126.988 267.878 126.988 267.878C127.021 267.8 127.065 267.749 127.12 267.726C127.153 267.648 127.136 267.526 127.068 267.359L127.613 266.553C127.656 266.341 127.738 266.145 127.86 265.966C128.014 265.709 128.112 265.474 128.155 265.262C128.264 264.894 128.339 264.442 128.38 263.907C128.476 263.349 128.707 262.963 129.073 262.748C129.182 262.38 129.302 262.039 129.433 261.726C129.62 261.391 129.752 261.078 129.828 260.788C129.848 260.52 129.852 260.292 129.839 260.102C129.86 259.835 129.914 259.65 130.002 259.55C130.013 259.416 130.034 259.31 130.067 259.232C130.133 259.075 130.154 258.969 130.131 258.913C130.142 258.78 130.14 258.618 130.128 258.429C130.115 258.24 130.153 258.094 130.242 257.993C130.262 257.726 130.361 257.491 130.537 257.289C130.603 257.133 130.697 256.965 130.818 256.786C130.939 256.607 130.994 256.423 130.981 256.233C130.946 255.988 130.883 255.755 130.792 255.533C130.734 255.232 130.699 254.987 130.686 254.798C130.641 254.687 130.612 254.537 130.6 254.347C130.643 254.135 130.681 253.99 130.713 253.912C130.724 253.778 130.75 253.605 130.793 253.393C130.814 253.126 130.778 252.881 130.688 252.659C130.72 252.581 130.698 252.525 130.62 252.492C130.541 252.459 130.491 252.415 130.468 252.36C130.534 252.203 130.533 252.042 130.465 251.875C130.452 251.686 130.428 251.468 130.393 251.224L130.753 250.201C130.806 249.856 130.788 249.572 130.697 249.35C130.652 249.238 130.578 249.139 130.477 249.05C130.354 248.906 130.281 248.807 130.258 248.751C130.099 248.362 129.94 247.973 129.782 247.585C129.678 247.173 129.542 246.84 129.373 246.585C129.328 246.474 129.227 246.385 129.07 246.32C128.891 246.198 128.79 246.11 128.768 246.054C128.654 245.777 128.608 245.504 128.628 245.236C128.638 245.103 128.66 244.997 128.692 244.918C128.703 244.785 128.696 244.69 128.674 244.634L128.572 244.385C128.493 244.352 128.376 244.302 128.22 244.237C128.096 244.093 127.995 244.004 127.917 243.971C127.816 243.883 127.671 243.845 127.481 243.858C127.325 243.792 127.18 243.754 127.046 243.744C127.134 243.643 127.167 243.565 127.145 243.509C127.099 243.398 127.077 243.342 127.077 243.342C126.774 243.077 126.539 242.979 126.372 243.047C126.206 243.115 126.078 243.199 125.99 243.3L125.786 242.8L124.714 242.557L123.665 243.083C123.61 243.106 123.543 243.101 123.465 243.068C123.442 243.012 123.375 243.007 123.264 243.053C122.986 243.166 122.703 243.346 122.415 243.594C122.36 243.616 122.272 243.717 122.15 243.896C122.006 244.02 121.879 244.105 121.768 244.15L121.184 244.388C121.129 244.411 121.085 244.461 121.052 244.54C121.052 244.54 120.996 244.562 120.885 244.608C120.83 244.63 120.707 244.648 120.518 244.66C120.361 244.595 120.228 244.585 120.117 244.63C120.061 244.653 119.757 244.939 119.204 245.489C118.651 246.039 118.202 246.449 117.859 246.719C117.904 246.83 117.989 246.957 118.112 247.101C118.291 247.223 118.404 247.339 118.449 247.45C118.694 247.415 118.895 247.43 119.051 247.496C119.263 247.539 119.447 247.593 119.604 247.659C119.627 247.714 119.677 247.758 119.755 247.791C119.833 247.824 119.884 247.868 119.907 247.924C120.119 247.967 120.381 248.054 120.694 248.186C121.007 248.317 121.225 248.455 121.349 248.599C121.427 248.632 121.461 248.715 121.451 248.849C121.496 248.96 121.53 249.043 121.553 249.099C121.699 249.298 121.913 249.503 122.193 249.712C122.473 249.922 122.624 250.055 122.647 250.11C122.669 250.166 122.671 250.327 122.65 250.595C122.686 250.84 122.709 251.057 122.722 251.246L122.389 251.382C122.111 251.496 121.915 251.413 121.802 251.136C121.633 250.881 121.475 250.653 121.329 250.454C121.215 250.176 121.125 249.954 121.057 249.787C120.958 250.022 120.881 250.151 120.826 250.174C120.669 250.108 120.513 250.042 120.356 249.976C120.2 249.911 120.104 249.755 120.069 249.511C119.879 249.523 119.718 249.524 119.584 249.514C119.427 249.448 119.282 249.41 119.149 249.4L118.694 249.002C118.639 249.025 118.622 249.064 118.645 249.12C118.668 249.175 118.624 249.226 118.513 249.271C118.457 249.294 118.295 249.295 118.028 249.275C117.816 249.232 117.643 249.205 117.509 249.195C117.353 249.129 117.274 249.096 117.274 249.096C116.896 249.121 116.651 249.157 116.54 249.202C116.373 249.27 116.291 249.466 116.293 249.789C116.273 250.056 116.096 250.258 115.763 250.394C115.708 250.417 115.668 250.4 115.646 250.345C115.679 250.267 115.639 250.25 115.528 250.296C115.417 250.341 115.357 250.431 115.346 250.564C115.369 250.62 115.364 250.687 115.331 250.765C115.22 250.81 115.021 250.957 114.733 251.204C114.69 251.416 114.63 251.667 114.554 251.957C114.479 252.248 114.408 252.471 114.342 252.627C114.42 252.66 114.432 252.688 114.376 252.711C114.346 253.112 114.219 253.358 113.997 253.449C113.775 253.54 113.607 253.446 113.494 253.168C113.448 253.057 113.452 252.829 113.505 252.483C113.591 252.059 113.623 251.819 113.6 251.764L113.366 251.665C113.199 251.733 113.05 251.924 112.919 252.237C112.764 252.494 112.549 252.679 112.271 252.793C112.215 252.816 112.088 252.9 111.888 253.046C111.744 253.17 111.617 253.254 111.506 253.3C111.551 253.411 111.557 253.506 111.524 253.584C111.446 253.551 111.352 253.557 111.24 253.603C111.018 253.693 110.776 254.052 110.513 254.678C110.283 255.225 110.179 255.527 110.202 255.582L110.171 255.984C110.093 255.951 110.054 255.934 110.054 255.934C110.031 255.879 109.965 255.874 109.853 255.919C109.798 255.942 109.765 256.02 109.755 256.154C109.722 256.232 109.65 256.294 109.539 256.339C109.483 256.362 109.456 256.373 109.456 256.373C109.489 256.295 109.449 256.279 109.338 256.324C109.283 256.347 109.15 256.498 108.941 256.778C108.731 257.058 108.57 257.221 108.459 257.266C108.404 257.289 108.321 257.323 108.209 257.368C108.131 257.336 108.037 257.342 107.925 257.387L107.994 257.554C108.084 257.776 108.013 257.999 107.781 258.224C107.582 258.37 107.399 258.477 107.232 258.545C107.222 258.679 107.195 258.852 107.152 259.064C107.109 259.276 107.055 259.46 106.989 259.617C106.858 259.93 106.709 260.12 106.542 260.188C106.486 260.211 106.447 260.195 106.425 260.139C106.402 260.084 106.363 260.067 106.307 260.09C106.252 260.112 106.081 260.409 105.796 260.979C105.566 261.527 105.434 261.84 105.401 261.918C105.293 262.287 105.112 262.717 104.859 263.209C104.607 263.701 104.331 264.138 104.033 264.519C104.079 264.63 104.068 264.763 104.003 264.92C103.859 265.044 103.777 265.239 103.756 265.507C103.769 265.696 103.742 265.869 103.676 266.025L103.51 266.093C103.522 266.283 103.507 266.483 103.464 266.695C103.421 266.907 103.367 267.092 103.301 267.248C103.213 267.349 103.014 267.657 102.706 268.172C102.453 268.664 102.35 268.965 102.395 269.076C102.418 269.132 102.468 269.176 102.546 269.209C102.625 269.242 102.675 269.286 102.698 269.342C102.577 269.521 102.511 269.677 102.501 269.811C102.523 269.867 102.502 269.973 102.436 270.129L102.235 270.114C102.304 270.28 102.282 270.386 102.171 270.432C102.418 270.72 102.403 270.92 102.125 271.034C102.07 271.057 102.07 271.057 102.125 271.034C102.158 270.956 102.119 270.939 102.008 270.985C101.897 271.03 101.836 271.12 101.826 271.253C101.849 271.309 101.855 271.404 101.845 271.537C101.9 271.515 101.928 271.503 101.928 271.503C101.905 271.448 101.922 271.409 101.977 271.386C102.088 271.341 102.128 271.357 102.095 271.435L102.034 272.238C102.023 272.372 101.941 272.567 101.787 272.825C101.689 273.059 101.607 273.255 101.541 273.411L101.711 273.828L101.638 275.316C101.661 275.371 101.645 275.411 101.589 275.433C101.47 275.936 101.479 276.353 101.615 276.687C101.66 276.798 101.694 276.881 101.717 276.937C101.772 276.914 101.795 276.969 101.785 277.103C101.628 277.037 101.584 277.088 101.652 277.255C101.62 277.333 101.704 277.46 101.906 277.637C101.896 277.771 101.88 277.972 101.86 278.239C101.873 278.428 101.902 278.579 101.947 278.69C102.038 278.912 102.161 279.056 102.318 279.122C102.297 279.389 102.333 279.634 102.423 279.856C102.491 280.023 102.582 280.245 102.696 280.523C102.794 280.288 102.844 280.171 102.844 280.171L103.044 280.186C103.011 280.264 102.951 280.354 102.862 280.455C102.829 280.533 102.808 280.639 102.798 280.773C102.954 280.838 103.112 281.066 103.271 281.454C103.462 281.765 103.609 281.965 103.71 282.053C103.71 282.053 103.759 281.936 103.857 281.701C104.014 281.767 104.131 281.816 104.209 281.849C104.265 281.826 104.315 281.87 104.361 281.981L104.463 282.231C104.519 282.209 104.546 282.197 104.546 282.197C104.524 282.142 104.54 282.103 104.596 282.08C104.651 282.057 104.713 282.129 104.781 282.296C104.937 282.362 105.066 282.439 105.167 282.527C105.324 282.593 105.464 282.698 105.587 282.841C105.721 282.852 105.816 282.845 105.871 282.823C105.982 282.777 106.077 282.771 106.155 282.804L106.291 283.137L106.541 283.035C106.597 283.012 106.758 283.011 107.026 283.032C107.081 283.009 107.121 283.025 107.143 283.081C107.166 283.136 107.205 283.153 107.261 283.13C107.263 283.453 107.275 283.643 107.298 283.698C107.487 283.686 107.699 283.729 107.934 283.827C108.169 283.926 108.364 284.008 108.521 284.074C108.632 284.028 108.794 284.027 109.006 284.07C109.195 284.058 109.317 284.04 109.373 284.017C109.54 283.949 109.623 283.915 109.623 283.915C109.6 283.86 109.617 283.82 109.672 283.798C109.783 283.752 109.85 283.757 109.873 283.813C109.974 283.901 110.052 283.934 110.108 283.912C110.219 283.866 110.263 283.816 110.24 283.76C110.296 283.738 110.323 283.726 110.323 283.726C110.21 283.448 110.086 283.305 109.953 283.294C110.018 283.138 110.146 283.053 110.335 283.041C110.502 282.973 110.641 282.916 110.752 282.871C110.63 283.05 110.659 283.2 110.839 283.321C110.995 283.387 111.096 283.475 111.141 283.587L111.308 283.518C111.419 283.473 111.525 283.495 111.626 283.583C111.727 283.671 111.805 283.704 111.861 283.682Z" fill="#F36080"/>
</svg>
