<svg width="492" height="65" viewBox="0 0 492 65" fill="none" xmlns="http://www.w3.org/2000/svg">
<path d="M3.4 32C3.10667 32 2.96 31.84 2.96 31.52V6.28C2.96 5.96 3.10667 5.8 3.4 5.8H7.32C7.61333 5.8 7.76 5.96 7.76 6.28V27.76H18.28C18.6 27.76 18.76 27.92 18.76 28.24V31.52C18.76 31.84 18.6 32 18.28 32H3.4ZM30.0597 32.48C27.233 32.48 25.0464 31.8133 23.4997 30.48C21.9797 29.12 21.2197 27.0667 21.2197 24.32V20C21.2197 17.28 21.9797 15.24 23.4997 13.88C25.0197 12.52 27.2064 11.84 30.0597 11.84C32.8864 11.84 35.0597 12.52 36.5797 13.88C38.0997 15.24 38.8597 17.28 38.8597 20V24.32C38.8597 27.0667 38.0997 29.12 36.5797 30.48C35.0864 31.8133 32.913 32.48 30.0597 32.48ZM30.0597 28.44C31.4997 28.44 32.5397 28.08 33.1797 27.36C33.8197 26.6133 34.1397 25.4533 34.1397 23.88V20.44C34.1397 18.8667 33.8197 17.72 33.1797 17C32.5397 16.2533 31.4997 15.88 30.0597 15.88C28.6197 15.88 27.5664 16.2533 26.8997 17C26.2597 17.72 25.9397 18.8667 25.9397 20.44V23.88C25.9397 25.4533 26.2597 26.6133 26.8997 27.36C27.5664 28.08 28.6197 28.44 30.0597 28.44ZM51.0194 39.88C47.7927 39.88 45.4594 39.4667 44.0194 38.64C42.5794 37.8133 41.8594 36.5733 41.8594 34.92C41.8594 33.9067 42.0994 33 42.5794 32.2C43.086 31.4 43.886 30.7333 44.9794 30.2L48.5794 31.36C47.9127 31.6 47.4194 31.9467 47.0994 32.4C46.806 32.8533 46.6594 33.3733 46.6594 33.96C46.6594 34.7867 46.9927 35.36 47.6594 35.68C48.326 36.0267 49.526 36.2133 51.2594 36.24C53.126 36.24 54.3927 36.0667 55.0594 35.72C55.726 35.3733 56.0594 34.76 56.0594 33.88C56.0594 33.2667 55.8994 32.8133 55.5794 32.52C55.286 32.2267 54.806 32.0667 54.1394 32.04L46.8194 31.6C45.8327 31.52 44.9927 31.1733 44.2994 30.56C43.6327 29.9467 43.2994 29.04 43.2994 27.84C43.2994 27.2533 43.3794 26.72 43.5394 26.24C43.726 25.76 44.0194 25.32 44.4194 24.92C44.8194 24.4933 45.3394 24.0533 45.9794 23.6L48.8594 24.92C48.326 25.1067 47.9394 25.36 47.6994 25.68C47.486 25.9733 47.3794 26.2933 47.3794 26.64C47.3794 27.04 47.4994 27.32 47.7394 27.48C48.006 27.64 48.4194 27.7333 48.9794 27.76L55.4194 28.16C57.2594 28.2933 58.5927 28.84 59.4194 29.8C60.2727 30.7333 60.6994 32.0933 60.6994 33.88C60.6994 35.9867 59.926 37.5067 58.3794 38.44C56.8594 39.4 54.406 39.88 51.0194 39.88ZM51.4194 25.64C48.7527 25.64 46.7794 25.08 45.4994 23.96C44.246 22.8133 43.6194 21.08 43.6194 18.76C43.6194 16.4133 44.2594 14.68 45.5394 13.56C46.8194 12.4133 48.806 11.84 51.4994 11.84C54.1127 11.84 56.046 12.4133 57.2994 13.56C58.5527 14.7067 59.1794 16.4533 59.1794 18.8C59.1794 21.12 58.5527 22.84 57.2994 23.96C56.046 25.08 54.086 25.64 51.4194 25.64ZM51.4194 21.96C52.6194 21.96 53.446 21.72 53.8994 21.24C54.3794 20.7333 54.6194 19.9067 54.6194 18.76C54.6194 17.5867 54.3794 16.7467 53.8994 16.24C53.446 15.7333 52.6194 15.48 51.4194 15.48C50.2194 15.48 49.3794 15.7333 48.8994 16.24C48.4194 16.7467 48.1794 17.5867 48.1794 18.76C48.1794 19.9067 48.4194 20.7333 48.8994 21.24C49.3794 21.72 50.2194 21.96 51.4194 21.96ZM56.6994 14.04L53.2994 12.72C53.3794 11.6267 53.4727 10.6667 53.5794 9.84C53.7127 8.98667 53.8327 8.25333 53.9394 7.64C54.0194 7.32 54.1794 7.16 54.4194 7.16H57.6194C57.9927 7.16 58.126 7.33333 58.0194 7.68C57.726 8.56 57.4727 9.49333 57.2594 10.48C57.0727 11.44 56.886 12.6267 56.6994 14.04Z" fill="black"/>
<path d="M72.7656 32C72.4723 32 72.3256 31.84 72.3256 31.52V12.8C72.3256 12.48 72.4723 12.32 72.7656 12.32H76.5656C76.8856 12.32 77.0456 12.48 77.0456 12.8V31.52C77.0456 31.84 76.8856 32 76.5656 32H72.7656ZM74.6856 9.48C73.779 9.48 73.0856 9.24 72.6056 8.76C72.1523 8.28 71.9256 7.66667 71.9256 6.92V6.32C71.9256 5.54667 72.1523 4.93333 72.6056 4.48C73.0856 4 73.779 3.76 74.6856 3.76C75.5923 3.76 76.2723 4 76.7256 4.48C77.179 4.93333 77.4056 5.54667 77.4056 6.32V6.92C77.4056 7.66667 77.179 8.28 76.7256 8.76C76.2723 9.24 75.5923 9.48 74.6856 9.48ZM95.1303 32C94.8103 32 94.6503 31.84 94.6503 31.52V19.2C94.6503 18.08 94.4236 17.2533 93.9703 16.72C93.517 16.1867 92.8236 15.92 91.8903 15.92C90.957 15.92 90.037 16.2 89.1303 16.76C88.2503 17.2933 87.237 18.1333 86.0903 19.28L85.9303 15.8C86.7036 14.9733 87.477 14.2667 88.2503 13.68C89.0503 13.0933 89.877 12.64 90.7303 12.32C91.5836 12 92.517 11.84 93.5303 11.84C95.4503 11.84 96.9036 12.3867 97.8903 13.48C98.877 14.5467 99.3703 16.2 99.3703 18.44V31.52C99.3703 31.84 99.2103 32 98.8903 32H95.1303ZM82.5703 32C82.277 32 82.1303 31.84 82.1303 31.52V17.32C82.1303 16.5733 82.0903 15.7867 82.0103 14.96C81.957 14.1333 81.9036 13.44 81.8503 12.88C81.797 12.5067 81.957 12.32 82.3303 12.32H85.6903C85.8503 12.32 85.9703 12.3467 86.0503 12.4C86.1303 12.4533 86.1836 12.5733 86.2103 12.76C86.2636 12.9733 86.317 13.2933 86.3703 13.72C86.4236 14.12 86.477 14.5467 86.5303 15C86.5836 15.4533 86.6103 15.8533 86.6103 16.2L86.8503 17.8V31.52C86.8503 31.84 86.6903 32 86.3703 32H82.5703Z" fill="#1178F2"/>
<path d="M2.688 50.032V53.76H6.752V54.96H2.688V58.8H7.232V60H1.232V48.832H7.232V50.032H2.688ZM13.7071 51.072C14.7738 51.072 15.6378 51.3973 16.2991 52.048C16.9605 52.688 17.2911 53.616 17.2911 54.832V60H15.8511V55.04C15.8511 54.1653 15.6325 53.4987 15.1951 53.04C14.7578 52.5707 14.1605 52.336 13.4031 52.336C12.6351 52.336 12.0218 52.576 11.5631 53.056C11.1151 53.536 10.8911 54.2347 10.8911 55.152V60H9.43513V51.232H10.8911V52.48C11.1791 52.032 11.5685 51.6853 12.0591 51.44C12.5605 51.1947 13.1098 51.072 13.7071 51.072ZM21.4455 52.432V57.6C21.4455 58.0267 21.5362 58.3307 21.7175 58.512C21.8988 58.6827 22.2135 58.768 22.6615 58.768H23.7335V60H22.4215C21.6108 60 21.0028 59.8133 20.5975 59.44C20.1922 59.0667 19.9895 58.4533 19.9895 57.6V52.432H18.8535V51.232H19.9895V49.024H21.4455V51.232H23.7335V52.432H21.4455ZM33.4976 55.28C33.4976 55.5573 33.4816 55.8507 33.4496 56.16H26.4416C26.495 57.024 26.7883 57.7013 27.3216 58.192C27.8656 58.672 28.5216 58.912 29.2896 58.912C29.919 58.912 30.4416 58.768 30.8576 58.48C31.2843 58.1813 31.583 57.7867 31.7536 57.296H33.3216C33.087 58.1387 32.6176 58.8267 31.9136 59.36C31.2096 59.8827 30.335 60.144 29.2896 60.144C28.4576 60.144 27.711 59.9573 27.0496 59.584C26.399 59.2107 25.887 58.6827 25.5136 58C25.1403 57.3067 24.9536 56.5067 24.9536 55.6C24.9536 54.6933 25.135 53.8987 25.4976 53.216C25.8603 52.5333 26.367 52.0107 27.0176 51.648C27.679 51.2747 28.4363 51.088 29.2896 51.088C30.1216 51.088 30.8576 51.2693 31.4976 51.632C32.1376 51.9947 32.6283 52.496 32.9696 53.136C33.3216 53.7653 33.4976 54.48 33.4976 55.28ZM31.9936 54.976C31.9936 54.4213 31.871 53.9467 31.6256 53.552C31.3803 53.1467 31.0443 52.8427 30.6176 52.64C30.2016 52.4267 29.7376 52.32 29.2256 52.32C28.4896 52.32 27.8603 52.5547 27.3376 53.024C26.8256 53.4933 26.5323 54.144 26.4576 54.976H31.9936ZM36.8755 52.656C37.1315 52.1547 37.4942 51.7653 37.9635 51.488C38.4435 51.2107 39.0248 51.072 39.7075 51.072V52.576H39.3235C37.6915 52.576 36.8755 53.4613 36.8755 55.232V60H35.4195V51.232H36.8755V52.656ZM53.2059 51.232L47.9259 64.128H46.4219L48.1499 59.904L44.6139 51.232H46.2299L48.9819 58.336L51.7019 51.232H53.2059ZM58.4935 60.144C57.6722 60.144 56.9255 59.9573 56.2535 59.584C55.5922 59.2107 55.0695 58.6827 54.6855 58C54.3122 57.3067 54.1255 56.5067 54.1255 55.6C54.1255 54.704 54.3175 53.9147 54.7015 53.232C55.0962 52.5387 55.6295 52.0107 56.3015 51.648C56.9735 51.2747 57.7255 51.088 58.5575 51.088C59.3895 51.088 60.1415 51.2747 60.8135 51.648C61.4855 52.0107 62.0135 52.5333 62.3975 53.216C62.7922 53.8987 62.9895 54.6933 62.9895 55.6C62.9895 56.5067 62.7868 57.3067 62.3815 58C61.9868 58.6827 61.4482 59.2107 60.7655 59.584C60.0828 59.9573 59.3255 60.144 58.4935 60.144ZM58.4935 58.864C59.0162 58.864 59.5068 58.7413 59.9655 58.496C60.4242 58.2507 60.7922 57.8827 61.0695 57.392C61.3575 56.9013 61.5015 56.304 61.5015 55.6C61.5015 54.896 61.3628 54.2987 61.0855 53.808C60.8082 53.3173 60.4455 52.9547 59.9975 52.72C59.5495 52.4747 59.0642 52.352 58.5415 52.352C58.0082 52.352 57.5175 52.4747 57.0695 52.72C56.6322 52.9547 56.2802 53.3173 56.0135 53.808C55.7468 54.2987 55.6135 54.896 55.6135 55.6C55.6135 56.3147 55.7415 56.9173 55.9975 57.408C56.2642 57.8987 56.6162 58.2667 57.0535 58.512C57.4908 58.7467 57.9708 58.864 58.4935 58.864ZM72.6799 51.232V60H71.2239V58.704C70.9465 59.152 70.5572 59.504 70.0559 59.76C69.5652 60.0053 69.0212 60.128 68.4239 60.128C67.7412 60.128 67.1279 59.9893 66.5839 59.712C66.0399 59.424 65.6079 58.9973 65.2879 58.432C64.9785 57.8667 64.8239 57.1787 64.8239 56.368V51.232H66.2639V56.176C66.2639 57.04 66.4825 57.7067 66.9199 58.176C67.3572 58.6347 67.9545 58.864 68.7119 58.864C69.4905 58.864 70.1039 58.624 70.5519 58.144C70.9999 57.664 71.2239 56.9653 71.2239 56.048V51.232H72.6799ZM76.5943 52.656C76.8503 52.1547 77.2129 51.7653 77.6823 51.488C78.1623 51.2107 78.7436 51.072 79.4263 51.072V52.576H79.0423C77.4103 52.576 76.5943 53.4613 76.5943 55.232V60H75.1383V51.232H76.5943V52.656ZM86.8286 52.656C87.0846 52.1547 87.4473 51.7653 87.9166 51.488C88.3966 51.2107 88.978 51.072 89.6606 51.072V52.576H89.2766C87.6446 52.576 86.8286 53.4613 86.8286 55.232V60H85.3726V51.232H86.8286V52.656ZM99.3414 55.28C99.3414 55.5573 99.3254 55.8507 99.2934 56.16H92.2854C92.3387 57.024 92.632 57.7013 93.1654 58.192C93.7094 58.672 94.3654 58.912 95.1334 58.912C95.7627 58.912 96.2854 58.768 96.7014 58.48C97.128 58.1813 97.4267 57.7867 97.5974 57.296H99.1654C98.9307 58.1387 98.4614 58.8267 97.7574 59.36C97.0534 59.8827 96.1787 60.144 95.1334 60.144C94.3014 60.144 93.5547 59.9573 92.8934 59.584C92.2427 59.2107 91.7307 58.6827 91.3574 58C90.984 57.3067 90.7974 56.5067 90.7974 55.6C90.7974 54.6933 90.9787 53.8987 91.3414 53.216C91.704 52.5333 92.2107 52.0107 92.8614 51.648C93.5227 51.2747 94.28 51.088 95.1334 51.088C95.9654 51.088 96.7014 51.2693 97.3414 51.632C97.9814 51.9947 98.472 52.496 98.8134 53.136C99.1654 53.7653 99.3414 54.48 99.3414 55.28ZM97.8374 54.976C97.8374 54.4213 97.7147 53.9467 97.4694 53.552C97.224 53.1467 96.888 52.8427 96.4614 52.64C96.0454 52.4267 95.5814 52.32 95.0694 52.32C94.3334 52.32 93.704 52.5547 93.1814 53.024C92.6694 53.4933 92.376 54.144 92.3014 54.976H97.8374ZM104.879 51.088C105.637 51.088 106.298 51.2533 106.863 51.584C107.439 51.9147 107.866 52.3307 108.143 52.832V51.232H109.615V60.192C109.615 60.992 109.445 61.7013 109.103 62.32C108.762 62.9493 108.271 63.44 107.631 63.792C107.002 64.144 106.266 64.32 105.423 64.32C104.271 64.32 103.311 64.048 102.543 63.504C101.775 62.96 101.322 62.2187 101.183 61.28H102.623C102.783 61.8133 103.114 62.24 103.615 62.56C104.117 62.8907 104.719 63.056 105.423 63.056C106.223 63.056 106.874 62.8053 107.375 62.304C107.887 61.8027 108.143 61.0987 108.143 60.192V58.352C107.855 58.864 107.429 59.2907 106.863 59.632C106.298 59.9733 105.637 60.144 104.879 60.144C104.101 60.144 103.391 59.952 102.751 59.568C102.122 59.184 101.626 58.6453 101.263 57.952C100.901 57.2587 100.719 56.4693 100.719 55.584C100.719 54.688 100.901 53.904 101.263 53.232C101.626 52.5493 102.122 52.0213 102.751 51.648C103.391 51.2747 104.101 51.088 104.879 51.088ZM108.143 55.6C108.143 54.9387 108.01 54.3627 107.743 53.872C107.477 53.3813 107.114 53.008 106.655 52.752C106.207 52.4853 105.711 52.352 105.167 52.352C104.623 52.352 104.127 52.48 103.679 52.736C103.231 52.992 102.874 53.3653 102.607 53.856C102.341 54.3467 102.207 54.9227 102.207 55.584C102.207 56.256 102.341 56.8427 102.607 57.344C102.874 57.8347 103.231 58.2133 103.679 58.48C104.127 58.736 104.623 58.864 105.167 58.864C105.711 58.864 106.207 58.736 106.655 58.48C107.114 58.2133 107.477 57.8347 107.743 57.344C108.01 56.8427 108.143 56.2613 108.143 55.6ZM112.828 49.808C112.55 49.808 112.316 49.712 112.124 49.52C111.932 49.328 111.836 49.0933 111.836 48.816C111.836 48.5387 111.932 48.304 112.124 48.112C112.316 47.92 112.55 47.824 112.828 47.824C113.094 47.824 113.318 47.92 113.5 48.112C113.692 48.304 113.788 48.5387 113.788 48.816C113.788 49.0933 113.692 49.328 113.5 49.52C113.318 49.712 113.094 49.808 112.828 49.808ZM113.532 51.232V60H112.076V51.232H113.532ZM119.117 60.144C118.445 60.144 117.843 60.032 117.309 59.808C116.776 59.5733 116.355 59.2533 116.045 58.848C115.736 58.432 115.565 57.9573 115.533 57.424H117.037C117.08 57.8613 117.283 58.2187 117.645 58.496C118.019 58.7733 118.504 58.912 119.101 58.912C119.656 58.912 120.093 58.7893 120.413 58.544C120.733 58.2987 120.893 57.9893 120.893 57.616C120.893 57.232 120.723 56.9493 120.381 56.768C120.04 56.576 119.512 56.3893 118.797 56.208C118.147 56.0373 117.613 55.8667 117.197 55.696C116.792 55.5147 116.44 55.2533 116.141 54.912C115.853 54.56 115.709 54.1013 115.709 53.536C115.709 53.088 115.843 52.6773 116.109 52.304C116.376 51.9307 116.755 51.6373 117.245 51.424C117.736 51.2 118.296 51.088 118.925 51.088C119.896 51.088 120.68 51.3333 121.277 51.824C121.875 52.3147 122.195 52.9867 122.237 53.84H120.781C120.749 53.3813 120.563 53.0133 120.221 52.736C119.891 52.4587 119.443 52.32 118.877 52.32C118.355 52.32 117.939 52.432 117.629 52.656C117.32 52.88 117.165 53.1733 117.165 53.536C117.165 53.824 117.256 54.064 117.437 54.256C117.629 54.4373 117.864 54.5867 118.141 54.704C118.429 54.8107 118.824 54.9333 119.325 55.072C119.955 55.2427 120.467 55.4133 120.861 55.584C121.256 55.744 121.592 55.9893 121.869 56.32C122.157 56.6507 122.307 57.0827 122.317 57.616C122.317 58.096 122.184 58.528 121.917 58.912C121.651 59.296 121.272 59.6 120.781 59.824C120.301 60.0373 119.747 60.144 119.117 60.144ZM126.149 52.432V57.6C126.149 58.0267 126.239 58.3307 126.421 58.512C126.602 58.6827 126.917 58.768 127.365 58.768H128.437V60H127.125C126.314 60 125.706 59.8133 125.301 59.44C124.895 59.0667 124.693 58.4533 124.693 57.6V52.432H123.557V51.232H124.693V49.024H126.149V51.232H128.437V52.432H126.149ZM138.201 55.28C138.201 55.5573 138.185 55.8507 138.153 56.16H131.145C131.198 57.024 131.491 57.7013 132.025 58.192C132.569 58.672 133.225 58.912 133.993 58.912C134.622 58.912 135.145 58.768 135.561 58.48C135.987 58.1813 136.286 57.7867 136.457 57.296H138.025C137.79 58.1387 137.321 58.8267 136.617 59.36C135.913 59.8827 135.038 60.144 133.993 60.144C133.161 60.144 132.414 59.9573 131.753 59.584C131.102 59.2107 130.59 58.6827 130.217 58C129.843 57.3067 129.657 56.5067 129.657 55.6C129.657 54.6933 129.838 53.8987 130.201 53.216C130.563 52.5333 131.07 52.0107 131.721 51.648C132.382 51.2747 133.139 51.088 133.993 51.088C134.825 51.088 135.561 51.2693 136.201 51.632C136.841 51.9947 137.331 52.496 137.673 53.136C138.025 53.7653 138.201 54.48 138.201 55.28ZM136.697 54.976C136.697 54.4213 136.574 53.9467 136.329 53.552C136.083 53.1467 135.747 52.8427 135.321 52.64C134.905 52.4267 134.441 52.32 133.929 52.32C133.193 52.32 132.563 52.5547 132.041 53.024C131.529 53.4933 131.235 54.144 131.161 54.976H136.697ZM141.579 52.656C141.835 52.1547 142.197 51.7653 142.667 51.488C143.147 51.2107 143.728 51.072 144.411 51.072V52.576H144.027C142.395 52.576 141.579 53.4613 141.579 55.232V60H140.123V51.232H141.579V52.656ZM154.091 55.28C154.091 55.5573 154.075 55.8507 154.043 56.16H147.035C147.089 57.024 147.382 57.7013 147.915 58.192C148.459 58.672 149.115 58.912 149.883 58.912C150.513 58.912 151.035 58.768 151.451 58.48C151.878 58.1813 152.177 57.7867 152.347 57.296H153.915C153.681 58.1387 153.211 58.8267 152.507 59.36C151.803 59.8827 150.929 60.144 149.883 60.144C149.051 60.144 148.305 59.9573 147.643 59.584C146.993 59.2107 146.481 58.6827 146.107 58C145.734 57.3067 145.547 56.5067 145.547 55.6C145.547 54.6933 145.729 53.8987 146.091 53.216C146.454 52.5333 146.961 52.0107 147.611 51.648C148.273 51.2747 149.03 51.088 149.883 51.088C150.715 51.088 151.451 51.2693 152.091 51.632C152.731 51.9947 153.222 52.496 153.563 53.136C153.915 53.7653 154.091 54.48 154.091 55.28ZM152.587 54.976C152.587 54.4213 152.465 53.9467 152.219 53.552C151.974 53.1467 151.638 52.8427 151.211 52.64C150.795 52.4267 150.331 52.32 149.819 52.32C149.083 52.32 148.454 52.5547 147.931 53.024C147.419 53.4933 147.126 54.144 147.051 54.976H152.587ZM155.469 55.584C155.469 54.688 155.651 53.904 156.013 53.232C156.376 52.5493 156.872 52.0213 157.501 51.648C158.141 51.2747 158.856 51.088 159.645 51.088C160.328 51.088 160.963 51.248 161.549 51.568C162.136 51.8773 162.584 52.288 162.893 52.8V48.16H164.365V60H162.893V58.352C162.605 58.8747 162.179 59.3067 161.613 59.648C161.048 59.9787 160.387 60.144 159.629 60.144C158.851 60.144 158.141 59.952 157.501 59.568C156.872 59.184 156.376 58.6453 156.013 57.952C155.651 57.2587 155.469 56.4693 155.469 55.584ZM162.893 55.6C162.893 54.9387 162.76 54.3627 162.493 53.872C162.227 53.3813 161.864 53.008 161.405 52.752C160.957 52.4853 160.461 52.352 159.917 52.352C159.373 52.352 158.877 52.48 158.429 52.736C157.981 52.992 157.624 53.3653 157.357 53.856C157.091 54.3467 156.957 54.9227 156.957 55.584C156.957 56.256 157.091 56.8427 157.357 57.344C157.624 57.8347 157.981 58.2133 158.429 58.48C158.877 58.736 159.373 58.864 159.917 58.864C160.461 58.864 160.957 58.736 161.405 58.48C161.864 58.2133 162.227 57.8347 162.493 57.344C162.76 56.8427 162.893 56.2613 162.893 55.6ZM179.091 55.28C179.091 55.5573 179.075 55.8507 179.043 56.16H172.035C172.089 57.024 172.382 57.7013 172.915 58.192C173.459 58.672 174.115 58.912 174.883 58.912C175.513 58.912 176.035 58.768 176.451 58.48C176.878 58.1813 177.177 57.7867 177.347 57.296H178.915C178.681 58.1387 178.211 58.8267 177.507 59.36C176.803 59.8827 175.929 60.144 174.883 60.144C174.051 60.144 173.305 59.9573 172.643 59.584C171.993 59.2107 171.481 58.6827 171.107 58C170.734 57.3067 170.547 56.5067 170.547 55.6C170.547 54.6933 170.729 53.8987 171.091 53.216C171.454 52.5333 171.961 52.0107 172.611 51.648C173.273 51.2747 174.03 51.088 174.883 51.088C175.715 51.088 176.451 51.2693 177.091 51.632C177.731 51.9947 178.222 52.496 178.563 53.136C178.915 53.7653 179.091 54.48 179.091 55.28ZM177.587 54.976C177.587 54.4213 177.465 53.9467 177.219 53.552C176.974 53.1467 176.638 52.8427 176.211 52.64C175.795 52.4267 175.331 52.32 174.819 52.32C174.083 52.32 173.454 52.5547 172.931 53.024C172.419 53.4933 172.126 54.144 172.051 54.976H177.587ZM191.557 51.072C192.24 51.072 192.848 51.216 193.381 51.504C193.915 51.7813 194.336 52.2027 194.645 52.768C194.955 53.3333 195.109 54.0213 195.109 54.832V60H193.669V55.04C193.669 54.1653 193.451 53.4987 193.013 53.04C192.587 52.5707 192.005 52.336 191.269 52.336C190.512 52.336 189.909 52.5813 189.461 53.072C189.013 53.552 188.789 54.2507 188.789 55.168V60H187.349V55.04C187.349 54.1653 187.131 53.4987 186.693 53.04C186.267 52.5707 185.685 52.336 184.949 52.336C184.192 52.336 183.589 52.5813 183.141 53.072C182.693 53.552 182.469 54.2507 182.469 55.168V60H181.013V51.232H182.469V52.496C182.757 52.0373 183.141 51.6853 183.621 51.44C184.112 51.1947 184.651 51.072 185.237 51.072C185.973 51.072 186.624 51.2373 187.189 51.568C187.755 51.8987 188.176 52.384 188.453 53.024C188.699 52.4053 189.104 51.9253 189.669 51.584C190.235 51.2427 190.864 51.072 191.557 51.072ZM196.954 55.584C196.954 54.688 197.135 53.904 197.498 53.232C197.86 52.5493 198.356 52.0213 198.986 51.648C199.626 51.2747 200.335 51.088 201.114 51.088C201.882 51.088 202.548 51.2533 203.114 51.584C203.679 51.9147 204.1 52.3307 204.378 52.832V51.232H205.85V60H204.378V58.368C204.09 58.88 203.658 59.3067 203.082 59.648C202.516 59.9787 201.855 60.144 201.098 60.144C200.319 60.144 199.615 59.952 198.986 59.568C198.356 59.184 197.86 58.6453 197.498 57.952C197.135 57.2587 196.954 56.4693 196.954 55.584ZM204.378 55.6C204.378 54.9387 204.244 54.3627 203.978 53.872C203.711 53.3813 203.348 53.008 202.89 52.752C202.442 52.4853 201.946 52.352 201.402 52.352C200.858 52.352 200.362 52.48 199.914 52.736C199.466 52.992 199.108 53.3653 198.842 53.856C198.575 54.3467 198.442 54.9227 198.442 55.584C198.442 56.256 198.575 56.8427 198.842 57.344C199.108 57.8347 199.466 58.2133 199.914 58.48C200.362 58.736 200.858 58.864 201.402 58.864C201.946 58.864 202.442 58.736 202.89 58.48C203.348 58.2133 203.711 57.8347 203.978 57.344C204.244 56.8427 204.378 56.2613 204.378 55.6ZM209.062 49.808C208.785 49.808 208.55 49.712 208.358 49.52C208.166 49.328 208.07 49.0933 208.07 48.816C208.07 48.5387 208.166 48.304 208.358 48.112C208.55 47.92 208.785 47.824 209.062 47.824C209.329 47.824 209.553 47.92 209.734 48.112C209.926 48.304 210.022 48.5387 210.022 48.816C210.022 49.0933 209.926 49.328 209.734 49.52C209.553 49.712 209.329 49.808 209.062 49.808ZM209.766 51.232V60H208.31V51.232H209.766ZM213.704 48.16V60H212.248V48.16H213.704ZM221.203 49.808C220.925 49.808 220.691 49.712 220.499 49.52C220.307 49.328 220.211 49.0933 220.211 48.816C220.211 48.5387 220.307 48.304 220.499 48.112C220.691 47.92 220.925 47.824 221.203 47.824C221.469 47.824 221.693 47.92 221.875 48.112C222.067 48.304 222.163 48.5387 222.163 48.816C222.163 49.0933 222.067 49.328 221.875 49.52C221.693 49.712 221.469 49.808 221.203 49.808ZM221.907 51.232V60H220.451V51.232H221.907ZM223.844 55.584C223.844 54.688 224.026 53.904 224.388 53.232C224.751 52.5493 225.247 52.0213 225.876 51.648C226.516 51.2747 227.231 51.088 228.02 51.088C228.703 51.088 229.338 51.248 229.924 51.568C230.511 51.8773 230.959 52.288 231.268 52.8V48.16H232.74V60H231.268V58.352C230.98 58.8747 230.554 59.3067 229.988 59.648C229.423 59.9787 228.762 60.144 228.004 60.144C227.226 60.144 226.516 59.952 225.876 59.568C225.247 59.184 224.751 58.6453 224.388 57.952C224.026 57.2587 223.844 56.4693 223.844 55.584ZM231.268 55.6C231.268 54.9387 231.135 54.3627 230.868 53.872C230.602 53.3813 230.239 53.008 229.78 52.752C229.332 52.4853 228.836 52.352 228.292 52.352C227.748 52.352 227.252 52.48 226.804 52.736C226.356 52.992 225.999 53.3653 225.732 53.856C225.466 54.3467 225.332 54.9227 225.332 55.584C225.332 56.256 225.466 56.8427 225.732 57.344C225.999 57.8347 226.356 58.2133 226.804 58.48C227.252 58.736 227.748 58.864 228.292 58.864C228.836 58.864 229.332 58.736 229.78 58.48C230.239 58.2133 230.602 57.8347 230.868 57.344C231.135 56.8427 231.268 56.2613 231.268 55.6ZM238.922 55.584C238.922 54.688 239.104 53.904 239.466 53.232C239.829 52.5493 240.325 52.0213 240.954 51.648C241.594 51.2747 242.304 51.088 243.082 51.088C243.85 51.088 244.517 51.2533 245.082 51.584C245.648 51.9147 246.069 52.3307 246.346 52.832V51.232H247.818V60H246.346V58.368C246.058 58.88 245.626 59.3067 245.05 59.648C244.485 59.9787 243.824 60.144 243.066 60.144C242.288 60.144 241.584 59.952 240.954 59.568C240.325 59.184 239.829 58.6453 239.466 57.952C239.104 57.2587 238.922 56.4693 238.922 55.584ZM246.346 55.6C246.346 54.9387 246.213 54.3627 245.946 53.872C245.68 53.3813 245.317 53.008 244.858 52.752C244.41 52.4853 243.914 52.352 243.37 52.352C242.826 52.352 242.33 52.48 241.882 52.736C241.434 52.992 241.077 53.3653 240.81 53.856C240.544 54.3467 240.41 54.9227 240.41 55.584C240.41 56.256 240.544 56.8427 240.81 57.344C241.077 57.8347 241.434 58.2133 241.882 58.48C242.33 58.736 242.826 58.864 243.37 58.864C243.914 58.864 244.41 58.736 244.858 58.48C245.317 58.2133 245.68 57.8347 245.946 57.344C246.213 56.8427 246.346 56.2613 246.346 55.6ZM254.551 51.072C255.618 51.072 256.482 51.3973 257.143 52.048C257.804 52.688 258.135 53.616 258.135 54.832V60H256.695V55.04C256.695 54.1653 256.476 53.4987 256.039 53.04C255.602 52.5707 255.004 52.336 254.247 52.336C253.479 52.336 252.866 52.576 252.407 53.056C251.959 53.536 251.735 54.2347 251.735 55.152V60H250.279V51.232H251.735V52.48C252.023 52.032 252.412 51.6853 252.903 51.44C253.404 51.1947 253.954 51.072 254.551 51.072ZM259.969 55.584C259.969 54.688 260.151 53.904 260.513 53.232C260.876 52.5493 261.372 52.0213 262.001 51.648C262.641 51.2747 263.356 51.088 264.145 51.088C264.828 51.088 265.463 51.248 266.049 51.568C266.636 51.8773 267.084 52.288 267.393 52.8V48.16H268.865V60H267.393V58.352C267.105 58.8747 266.679 59.3067 266.113 59.648C265.548 59.9787 264.887 60.144 264.129 60.144C263.351 60.144 262.641 59.952 262.001 59.568C261.372 59.184 260.876 58.6453 260.513 57.952C260.151 57.2587 259.969 56.4693 259.969 55.584ZM267.393 55.6C267.393 54.9387 267.26 54.3627 266.993 53.872C266.727 53.3813 266.364 53.008 265.905 52.752C265.457 52.4853 264.961 52.352 264.417 52.352C263.873 52.352 263.377 52.48 262.929 52.736C262.481 52.992 262.124 53.3653 261.857 53.856C261.591 54.3467 261.457 54.9227 261.457 55.584C261.457 56.256 261.591 56.8427 261.857 57.344C262.124 57.8347 262.481 58.2133 262.929 58.48C263.377 58.736 263.873 58.864 264.417 58.864C264.961 58.864 265.457 58.736 265.905 58.48C266.364 58.2133 266.727 57.8347 266.993 57.344C267.26 56.8427 267.393 56.2613 267.393 55.6ZM277.047 52.848C277.335 52.3467 277.762 51.9307 278.327 51.6C278.903 51.2587 279.57 51.088 280.327 51.088C281.106 51.088 281.81 51.2747 282.439 51.648C283.079 52.0213 283.581 52.5493 283.943 53.232C284.306 53.904 284.487 54.688 284.487 55.584C284.487 56.4693 284.306 57.2587 283.943 57.952C283.581 58.6453 283.079 59.184 282.439 59.568C281.81 59.952 281.106 60.144 280.327 60.144C279.581 60.144 278.919 59.9787 278.343 59.648C277.778 59.3067 277.346 58.8853 277.047 58.384V64.16H275.591V51.232H277.047V52.848ZM282.999 55.584C282.999 54.9227 282.866 54.3467 282.599 53.856C282.333 53.3653 281.97 52.992 281.511 52.736C281.063 52.48 280.567 52.352 280.023 52.352C279.49 52.352 278.994 52.4853 278.535 52.752C278.087 53.008 277.725 53.3867 277.447 53.888C277.181 54.3787 277.047 54.9493 277.047 55.6C277.047 56.2613 277.181 56.8427 277.447 57.344C277.725 57.8347 278.087 58.2133 278.535 58.48C278.994 58.736 279.49 58.864 280.023 58.864C280.567 58.864 281.063 58.736 281.511 58.48C281.97 58.2133 282.333 57.8347 282.599 57.344C282.866 56.8427 282.999 56.256 282.999 55.584ZM285.86 55.584C285.86 54.688 286.041 53.904 286.404 53.232C286.767 52.5493 287.263 52.0213 287.892 51.648C288.532 51.2747 289.241 51.088 290.02 51.088C290.788 51.088 291.455 51.2533 292.02 51.584C292.585 51.9147 293.007 52.3307 293.284 52.832V51.232H294.756V60H293.284V58.368C292.996 58.88 292.564 59.3067 291.988 59.648C291.423 59.9787 290.761 60.144 290.004 60.144C289.225 60.144 288.521 59.952 287.892 59.568C287.263 59.184 286.767 58.6453 286.404 57.952C286.041 57.2587 285.86 56.4693 285.86 55.584ZM293.284 55.6C293.284 54.9387 293.151 54.3627 292.884 53.872C292.617 53.3813 292.255 53.008 291.796 52.752C291.348 52.4853 290.852 52.352 290.308 52.352C289.764 52.352 289.268 52.48 288.82 52.736C288.372 52.992 288.015 53.3653 287.748 53.856C287.481 54.3467 287.348 54.9227 287.348 55.584C287.348 56.256 287.481 56.8427 287.748 57.344C288.015 57.8347 288.372 58.2133 288.82 58.48C289.268 58.736 289.764 58.864 290.308 58.864C290.852 58.864 291.348 58.736 291.796 58.48C292.255 58.2133 292.617 57.8347 292.884 57.344C293.151 56.8427 293.284 56.2613 293.284 55.6ZM300.32 60.144C299.648 60.144 299.046 60.032 298.512 59.808C297.979 59.5733 297.558 59.2533 297.248 58.848C296.939 58.432 296.768 57.9573 296.736 57.424H298.24C298.283 57.8613 298.486 58.2187 298.848 58.496C299.222 58.7733 299.707 58.912 300.304 58.912C300.859 58.912 301.296 58.7893 301.616 58.544C301.936 58.2987 302.096 57.9893 302.096 57.616C302.096 57.232 301.926 56.9493 301.584 56.768C301.243 56.576 300.715 56.3893 300 56.208C299.35 56.0373 298.816 55.8667 298.4 55.696C297.995 55.5147 297.643 55.2533 297.344 54.912C297.056 54.56 296.912 54.1013 296.912 53.536C296.912 53.088 297.046 52.6773 297.312 52.304C297.579 51.9307 297.958 51.6373 298.448 51.424C298.939 51.2 299.499 51.088 300.128 51.088C301.099 51.088 301.883 51.3333 302.48 51.824C303.078 52.3147 303.398 52.9867 303.44 53.84H301.984C301.952 53.3813 301.766 53.0133 301.424 52.736C301.094 52.4587 300.646 52.32 300.08 52.32C299.558 52.32 299.142 52.432 298.832 52.656C298.523 52.88 298.368 53.1733 298.368 53.536C298.368 53.824 298.459 54.064 298.64 54.256C298.832 54.4373 299.067 54.5867 299.344 54.704C299.632 54.8107 300.027 54.9333 300.528 55.072C301.158 55.2427 301.67 55.4133 302.064 55.584C302.459 55.744 302.795 55.9893 303.072 56.32C303.36 56.6507 303.51 57.0827 303.52 57.616C303.52 58.096 303.387 58.528 303.12 58.912C302.854 59.296 302.475 59.6 301.984 59.824C301.504 60.0373 300.95 60.144 300.32 60.144ZM308.68 60.144C308.008 60.144 307.405 60.032 306.872 59.808C306.338 59.5733 305.917 59.2533 305.608 58.848C305.298 58.432 305.128 57.9573 305.096 57.424H306.6C306.642 57.8613 306.845 58.2187 307.208 58.496C307.581 58.7733 308.066 58.912 308.664 58.912C309.218 58.912 309.656 58.7893 309.976 58.544C310.296 58.2987 310.456 57.9893 310.456 57.616C310.456 57.232 310.285 56.9493 309.944 56.768C309.602 56.576 309.074 56.3893 308.36 56.208C307.709 56.0373 307.176 55.8667 306.76 55.696C306.354 55.5147 306.002 55.2533 305.704 54.912C305.416 54.56 305.272 54.1013 305.272 53.536C305.272 53.088 305.405 52.6773 305.672 52.304C305.938 51.9307 306.317 51.6373 306.808 51.424C307.298 51.2 307.858 51.088 308.488 51.088C309.458 51.088 310.242 51.3333 310.84 51.824C311.437 52.3147 311.757 52.9867 311.8 53.84H310.344C310.312 53.3813 310.125 53.0133 309.784 52.736C309.453 52.4587 309.005 52.32 308.44 52.32C307.917 52.32 307.501 52.432 307.192 52.656C306.882 52.88 306.728 53.1733 306.728 53.536C306.728 53.824 306.818 54.064 307 54.256C307.192 54.4373 307.426 54.5867 307.704 54.704C307.992 54.8107 308.386 54.9333 308.888 55.072C309.517 55.2427 310.029 55.4133 310.424 55.584C310.818 55.744 311.154 55.9893 311.432 56.32C311.72 56.6507 311.869 57.0827 311.88 57.616C311.88 58.096 311.746 58.528 311.48 58.912C311.213 59.296 310.834 59.6 310.344 59.824C309.864 60.0373 309.309 60.144 308.68 60.144ZM325.615 51.232L322.879 60H321.375L319.263 53.04L317.151 60H315.647L312.895 51.232H314.383L316.399 58.592L318.575 51.232H320.063L322.191 58.608L324.175 51.232H325.615ZM330.884 60.144C330.063 60.144 329.316 59.9573 328.644 59.584C327.983 59.2107 327.46 58.6827 327.076 58C326.703 57.3067 326.516 56.5067 326.516 55.6C326.516 54.704 326.708 53.9147 327.092 53.232C327.487 52.5387 328.02 52.0107 328.692 51.648C329.364 51.2747 330.116 51.088 330.948 51.088C331.78 51.088 332.532 51.2747 333.204 51.648C333.876 52.0107 334.404 52.5333 334.788 53.216C335.183 53.8987 335.38 54.6933 335.38 55.6C335.38 56.5067 335.177 57.3067 334.772 58C334.377 58.6827 333.839 59.2107 333.156 59.584C332.473 59.9573 331.716 60.144 330.884 60.144ZM330.884 58.864C331.407 58.864 331.897 58.7413 332.356 58.496C332.815 58.2507 333.183 57.8827 333.46 57.392C333.748 56.9013 333.892 56.304 333.892 55.6C333.892 54.896 333.753 54.2987 333.476 53.808C333.199 53.3173 332.836 52.9547 332.388 52.72C331.94 52.4747 331.455 52.352 330.932 52.352C330.399 52.352 329.908 52.4747 329.46 52.72C329.023 52.9547 328.671 53.3173 328.404 53.808C328.137 54.2987 328.004 54.896 328.004 55.6C328.004 56.3147 328.132 56.9173 328.388 57.408C328.655 57.8987 329.007 58.2667 329.444 58.512C329.881 58.7467 330.361 58.864 330.884 58.864ZM338.751 52.656C339.007 52.1547 339.369 51.7653 339.839 51.488C340.319 51.2107 340.9 51.072 341.583 51.072V52.576H341.199C339.567 52.576 338.751 53.4613 338.751 55.232V60H337.295V51.232H338.751V52.656ZM342.719 55.584C342.719 54.688 342.901 53.904 343.263 53.232C343.626 52.5493 344.122 52.0213 344.751 51.648C345.391 51.2747 346.106 51.088 346.895 51.088C347.578 51.088 348.213 51.248 348.799 51.568C349.386 51.8773 349.834 52.288 350.143 52.8V48.16H351.615V60H350.143V58.352C349.855 58.8747 349.429 59.3067 348.863 59.648C348.298 59.9787 347.637 60.144 346.879 60.144C346.101 60.144 345.391 59.952 344.751 59.568C344.122 59.184 343.626 58.6453 343.263 57.952C342.901 57.2587 342.719 56.4693 342.719 55.584ZM350.143 55.6C350.143 54.9387 350.01 54.3627 349.743 53.872C349.477 53.3813 349.114 53.008 348.655 52.752C348.207 52.4853 347.711 52.352 347.167 52.352C346.623 52.352 346.127 52.48 345.679 52.736C345.231 52.992 344.874 53.3653 344.607 53.856C344.341 54.3467 344.207 54.9227 344.207 55.584C344.207 56.256 344.341 56.8427 344.607 57.344C344.874 57.8347 345.231 58.2133 345.679 58.48C346.127 58.736 346.623 58.864 347.167 58.864C347.711 58.864 348.207 58.736 348.655 58.48C349.114 58.2133 349.477 57.8347 349.743 57.344C350.01 56.8427 350.143 56.2613 350.143 55.6ZM360.117 52.432V57.6C360.117 58.0267 360.208 58.3307 360.389 58.512C360.571 58.6827 360.885 58.768 361.333 58.768H362.405V60H361.093C360.283 60 359.675 59.8133 359.269 59.44C358.864 59.0667 358.661 58.4533 358.661 57.6V52.432H357.525V51.232H358.661V49.024H360.117V51.232H362.405V52.432H360.117ZM367.994 60.144C367.172 60.144 366.426 59.9573 365.754 59.584C365.092 59.2107 364.57 58.6827 364.186 58C363.812 57.3067 363.626 56.5067 363.626 55.6C363.626 54.704 363.818 53.9147 364.202 53.232C364.596 52.5387 365.13 52.0107 365.802 51.648C366.474 51.2747 367.226 51.088 368.058 51.088C368.89 51.088 369.642 51.2747 370.314 51.648C370.986 52.0107 371.514 52.5333 371.898 53.216C372.292 53.8987 372.49 54.6933 372.49 55.6C372.49 56.5067 372.287 57.3067 371.882 58C371.487 58.6827 370.948 59.2107 370.266 59.584C369.583 59.9573 368.826 60.144 367.994 60.144ZM367.994 58.864C368.516 58.864 369.007 58.7413 369.466 58.496C369.924 58.2507 370.292 57.8827 370.57 57.392C370.858 56.9013 371.002 56.304 371.002 55.6C371.002 54.896 370.863 54.2987 370.586 53.808C370.308 53.3173 369.946 52.9547 369.498 52.72C369.05 52.4747 368.564 52.352 368.042 52.352C367.508 52.352 367.018 52.4747 366.57 52.72C366.132 52.9547 365.78 53.3173 365.514 53.808C365.247 54.2987 365.114 54.896 365.114 55.6C365.114 56.3147 365.242 56.9173 365.498 57.408C365.764 57.8987 366.116 58.2667 366.554 58.512C366.991 58.7467 367.471 58.864 367.994 58.864ZM378.126 55.6C378.126 54.6933 378.307 53.904 378.67 53.232C379.032 52.5493 379.534 52.0213 380.174 51.648C380.824 51.2747 381.566 51.088 382.398 51.088C383.475 51.088 384.36 51.3493 385.054 51.872C385.758 52.3947 386.222 53.12 386.446 54.048H384.878C384.728 53.5147 384.435 53.0933 383.998 52.784C383.571 52.4747 383.038 52.32 382.398 52.32C381.566 52.32 380.894 52.608 380.382 53.184C379.87 53.7493 379.614 54.5547 379.614 55.6C379.614 56.656 379.87 57.472 380.382 58.048C380.894 58.624 381.566 58.912 382.398 58.912C383.038 58.912 383.571 58.7627 383.998 58.464C384.424 58.1653 384.718 57.7387 384.878 57.184H386.446C386.211 58.08 385.742 58.8 385.038 59.344C384.334 59.8773 383.454 60.144 382.398 60.144C381.566 60.144 380.824 59.9573 380.174 59.584C379.534 59.2107 379.032 58.6827 378.67 58C378.307 57.3173 378.126 56.5173 378.126 55.6ZM392.212 60.144C391.391 60.144 390.644 59.9573 389.972 59.584C389.311 59.2107 388.788 58.6827 388.404 58C388.031 57.3067 387.844 56.5067 387.844 55.6C387.844 54.704 388.036 53.9147 388.42 53.232C388.815 52.5387 389.348 52.0107 390.02 51.648C390.692 51.2747 391.444 51.088 392.276 51.088C393.108 51.088 393.86 51.2747 394.532 51.648C395.204 52.0107 395.732 52.5333 396.116 53.216C396.511 53.8987 396.708 54.6933 396.708 55.6C396.708 56.5067 396.506 57.3067 396.1 58C395.706 58.6827 395.167 59.2107 394.484 59.584C393.802 59.9573 393.044 60.144 392.212 60.144ZM392.212 58.864C392.735 58.864 393.226 58.7413 393.684 58.496C394.143 58.2507 394.511 57.8827 394.788 57.392C395.076 56.9013 395.22 56.304 395.22 55.6C395.22 54.896 395.082 54.2987 394.804 53.808C394.527 53.3173 394.164 52.9547 393.716 52.72C393.268 52.4747 392.783 52.352 392.26 52.352C391.727 52.352 391.236 52.4747 390.788 52.72C390.351 52.9547 389.999 53.3173 389.732 53.808C389.466 54.2987 389.332 54.896 389.332 55.6C389.332 56.3147 389.46 56.9173 389.716 57.408C389.983 57.8987 390.335 58.2667 390.772 58.512C391.21 58.7467 391.69 58.864 392.212 58.864ZM402.895 51.072C403.961 51.072 404.825 51.3973 405.487 52.048C406.148 52.688 406.479 53.616 406.479 54.832V60H405.039V55.04C405.039 54.1653 404.82 53.4987 404.383 53.04C403.945 52.5707 403.348 52.336 402.591 52.336C401.823 52.336 401.209 52.576 400.751 53.056C400.303 53.536 400.079 54.2347 400.079 55.152V60H398.623V51.232H400.079V52.48C400.367 52.032 400.756 51.6853 401.247 51.44C401.748 51.1947 402.297 51.072 402.895 51.072ZM410.633 52.432V57.6C410.633 58.0267 410.724 58.3307 410.905 58.512C411.086 58.6827 411.401 58.768 411.849 58.768H412.921V60H411.609C410.798 60 410.19 59.8133 409.785 59.44C409.38 59.0667 409.177 58.4533 409.177 57.6V52.432H408.041V51.232H409.177V49.024H410.633V51.232H412.921V52.432H410.633ZM415.437 49.808C415.16 49.808 414.925 49.712 414.733 49.52C414.541 49.328 414.445 49.0933 414.445 48.816C414.445 48.5387 414.541 48.304 414.733 48.112C414.925 47.92 415.16 47.824 415.437 47.824C415.704 47.824 415.928 47.92 416.109 48.112C416.301 48.304 416.397 48.5387 416.397 48.816C416.397 49.0933 416.301 49.328 416.109 49.52C415.928 49.712 415.704 49.808 415.437 49.808ZM416.141 51.232V60H414.685V51.232H416.141ZM422.895 51.072C423.961 51.072 424.825 51.3973 425.487 52.048C426.148 52.688 426.479 53.616 426.479 54.832V60H425.039V55.04C425.039 54.1653 424.82 53.4987 424.383 53.04C423.945 52.5707 423.348 52.336 422.591 52.336C421.823 52.336 421.209 52.576 420.751 53.056C420.303 53.536 420.079 54.2347 420.079 55.152V60H418.623V51.232H420.079V52.48C420.367 52.032 420.756 51.6853 421.247 51.44C421.748 51.1947 422.297 51.072 422.895 51.072ZM436.633 51.232V60H435.177V58.704C434.9 59.152 434.51 59.504 434.009 59.76C433.518 60.0053 432.974 60.128 432.377 60.128C431.694 60.128 431.081 59.9893 430.537 59.712C429.993 59.424 429.561 58.9973 429.241 58.432C428.932 57.8667 428.777 57.1787 428.777 56.368V51.232H430.217V56.176C430.217 57.04 430.436 57.7067 430.873 58.176C431.31 58.6347 431.908 58.864 432.665 58.864C433.444 58.864 434.057 58.624 434.505 58.144C434.953 57.664 435.177 56.9653 435.177 56.048V51.232H436.633ZM447.091 55.28C447.091 55.5573 447.075 55.8507 447.043 56.16H440.035C440.089 57.024 440.382 57.7013 440.915 58.192C441.459 58.672 442.115 58.912 442.883 58.912C443.513 58.912 444.035 58.768 444.451 58.48C444.878 58.1813 445.177 57.7867 445.347 57.296H446.915C446.681 58.1387 446.211 58.8267 445.507 59.36C444.803 59.8827 443.929 60.144 442.883 60.144C442.051 60.144 441.305 59.9573 440.643 59.584C439.993 59.2107 439.481 58.6827 439.107 58C438.734 57.3067 438.547 56.5067 438.547 55.6C438.547 54.6933 438.729 53.8987 439.091 53.216C439.454 52.5333 439.961 52.0107 440.611 51.648C441.273 51.2747 442.03 51.088 442.883 51.088C443.715 51.088 444.451 51.2693 445.091 51.632C445.731 51.9947 446.222 52.496 446.563 53.136C446.915 53.7653 447.091 54.48 447.091 55.28ZM445.587 54.976C445.587 54.4213 445.465 53.9467 445.219 53.552C444.974 53.1467 444.638 52.8427 444.211 52.64C443.795 52.4267 443.331 52.32 442.819 52.32C442.083 52.32 441.454 52.5547 440.931 53.024C440.419 53.4933 440.126 54.144 440.051 54.976H445.587Z" fill="black"/>
</svg>
