<svg width="77" height="78" viewBox="0 0 77 78" fill="none" xmlns="http://www.w3.org/2000/svg">
<rect x="23.0469" y="18.3247" width="19.5244" height="2.56058" rx="1.28029" fill="#D9D9D9"/>
<rect x="23.0469" y="23.7659" width="19.5244" height="2.56058" rx="1.28029" fill="#D9D9D9"/>
<rect x="23.0469" y="33.8481" width="19.5244" height="2.56058" rx="1.28029" fill="#D9D9D9"/>
<path d="M31.6896 5.84186C31.6896 4.48365 31.15 3.18106 30.1896 2.22066C29.2292 1.26025 27.9266 0.720703 26.5684 0.720703C25.2102 0.720703 23.9076 1.26025 22.9472 2.22066C21.9868 3.18106 21.4473 4.48365 21.4473 5.84186L26.5684 5.84186H31.6896Z" fill="#D9D9D9"/>
<rect x="14.8857" y="4.72168" width="23.3653" height="7.84177" rx="3.92089" fill="#D9D9D9"/>
<path d="M12.4049 6.48193V10.8829H4.40313V64.255H38.1708C38.1068 64.5111 38.5175 65.2686 38.7309 65.6153C38.1548 66.4475 38.4908 67.8292 38.7309 68.416H2.56271C0.96235 68.0959 0.348878 66.7889 0.242188 66.1754V9.12253C0.306202 7.39414 1.86922 6.64197 2.64273 6.48193H12.4049Z" fill="#D9D9D9"/>
<path d="M39.3715 56.9734C41.8681 54.4129 42.3855 51.5855 42.3322 50.492C41.1159 42.8102 46.3064 36.7289 49.0537 34.6484C55.2151 29.3672 65.4574 30.6475 70.0184 34.5684C74.7555 37.7691 76.4732 43.2103 76.74 45.5308C77.06 47.6433 76.8733 50.3053 76.74 51.3722C76.74 53.5327 74.5528 57.4802 73.4592 58.9739C72.4633 60.3342 71.6188 61.9079 71.4588 63.0548C70.5626 66.9597 72.8991 73.4838 74.1794 76.2578C74.5635 76.8979 74.3394 77.3781 74.1794 77.5381H55.1351C54.879 77.5381 54.7617 77.1647 54.735 76.978C54.3349 74.2573 52.3078 72.7637 51.2142 72.4169C50.1259 71.9048 47.9868 72.2036 47.0532 72.4169C41.9321 73.4412 42.2522 71.2967 42.2522 69.6163C42.3162 68.9762 42.0654 68.496 41.9321 68.336C40.5718 67.5358 40.8918 66.6823 41.0519 66.4156C41.1159 66.0955 42.3588 65.2153 42.9723 64.8152C41.1799 64.7512 40.6251 63.8283 40.5718 63.3749C41.3399 61.4544 40.5718 60.3875 40.0917 60.0941C37.7871 59.326 38.6513 57.6936 39.3715 56.9734Z" fill="#D9D9D9"/>
<path d="M48.8133 10.803H40.8115V6.56201H50.4937C52.2861 6.88208 52.8943 8.40243 52.9743 9.12259V29.6872C50.9258 30.3914 49.3468 31.421 48.8133 31.8477V10.803Z" fill="#D9D9D9"/>
<rect x="8.64453" y="17.5244" width="9.60217" height="9.44214" rx="4.72107" fill="#D9D9D9"/>
<rect x="8.64453" y="33.0479" width="9.60217" height="9.44214" rx="4.72107" fill="#D9D9D9"/>
<rect x="8.64453" y="48.4114" width="9.60217" height="9.44214" rx="4.72107" fill="#D9D9D9"/>
<path d="M24.0077 41.8499C22.6474 41.2898 22.9674 39.5294 24.0077 39.2893H40.3314C40.0113 39.4814 39.4512 41.1031 39.2111 41.8499H24.0077Z" fill="#D9D9D9"/>
<path d="M23.9511 51.7722C22.5907 51.2121 22.9108 49.4517 23.9511 49.2117H38.0103C38.0103 49.4517 38.4904 51.5322 38.0103 51.7722H23.9511Z" fill="#D9D9D9"/>
<path d="M23.9511 57.3736C22.5907 56.8134 22.9108 55.053 23.9511 54.813H36.0098C35.8498 54.973 34.7295 57.4536 34.4094 57.3736H23.9511Z" fill="#D9D9D9"/>
</svg>
