<svg width="640" height="56" viewBox="0 0 640 56" fill="none" xmlns="http://www.w3.org/2000/svg">
<rect width="640" height="56" rx="16" fill="#1178F2"/>
<path d="M287.196 36.288C285.852 36.288 284.74 36.104 283.86 35.736C282.996 35.368 282.372 34.84 281.988 34.152C281.604 33.448 281.452 32.6 281.532 31.608C281.564 31.336 281.676 31.2 281.868 31.2H284.124C284.332 31.2 284.428 31.32 284.412 31.56C284.412 32.344 284.652 32.92 285.132 33.288C285.612 33.64 286.348 33.816 287.34 33.816C288.316 33.816 289.036 33.664 289.5 33.36C289.98 33.04 290.22 32.552 290.22 31.896C290.22 31.592 290.164 31.328 290.052 31.104C289.94 30.864 289.748 30.656 289.476 30.48C289.204 30.288 288.836 30.096 288.372 29.904L284.892 28.416C284.124 28.08 283.508 27.72 283.044 27.336C282.58 26.936 282.252 26.48 282.06 25.968C281.868 25.456 281.772 24.872 281.772 24.216C281.788 22.856 282.244 21.816 283.14 21.096C284.036 20.376 285.372 20.016 287.148 20.016C288.396 20.016 289.452 20.192 290.316 20.544C291.196 20.88 291.852 21.384 292.284 22.056C292.716 22.712 292.884 23.536 292.788 24.528C292.756 24.816 292.66 24.96 292.5 24.96H290.22C290.124 24.96 290.052 24.928 290.004 24.864C289.956 24.8 289.94 24.688 289.956 24.528C290.004 23.888 289.772 23.384 289.26 23.016C288.764 22.632 288.052 22.44 287.124 22.44C286.308 22.44 285.692 22.584 285.276 22.872C284.86 23.16 284.652 23.592 284.652 24.168C284.652 24.472 284.708 24.744 284.82 24.984C284.932 25.208 285.124 25.416 285.396 25.608C285.684 25.8 286.068 26 286.548 26.208L289.98 27.672C290.764 27.992 291.38 28.352 291.828 28.752C292.292 29.136 292.62 29.584 292.812 30.096C293.02 30.608 293.116 31.216 293.1 31.92C293.1 33.312 292.628 34.392 291.684 35.16C290.74 35.912 289.244 36.288 287.196 36.288ZM296.034 36C295.858 36 295.77 35.904 295.77 35.712V24.48C295.77 24.288 295.858 24.192 296.034 24.192H298.314C298.506 24.192 298.602 24.288 298.602 24.48V35.712C298.602 35.904 298.506 36 298.314 36H296.034ZM297.186 22.488C296.642 22.488 296.226 22.344 295.938 22.056C295.666 21.768 295.53 21.4 295.53 20.952V20.592C295.53 20.128 295.666 19.76 295.938 19.488C296.226 19.2 296.642 19.056 297.186 19.056C297.73 19.056 298.138 19.2 298.41 19.488C298.682 19.76 298.818 20.128 298.818 20.592V20.952C298.818 21.4 298.682 21.768 298.41 22.056C298.138 22.344 297.73 22.488 297.186 22.488ZM306.213 40.728C304.277 40.728 302.877 40.48 302.013 39.984C301.149 39.488 300.717 38.744 300.717 37.752C300.717 37.144 300.861 36.6 301.149 36.12C301.453 35.64 301.933 35.24 302.589 34.92L304.749 35.616C304.349 35.76 304.053 35.968 303.861 36.24C303.685 36.512 303.597 36.824 303.597 37.176C303.597 37.672 303.797 38.016 304.197 38.208C304.597 38.416 305.317 38.528 306.357 38.544C307.477 38.544 308.237 38.44 308.637 38.232C309.037 38.024 309.237 37.656 309.237 37.128C309.237 36.76 309.141 36.488 308.949 36.312C308.773 36.136 308.485 36.04 308.085 36.024L303.693 35.76C303.101 35.712 302.597 35.504 302.181 35.136C301.781 34.768 301.581 34.224 301.581 33.504C301.581 33.152 301.629 32.832 301.725 32.544C301.837 32.256 302.013 31.992 302.253 31.752C302.493 31.496 302.805 31.232 303.189 30.96L304.917 31.752C304.597 31.864 304.365 32.016 304.221 32.208C304.093 32.384 304.029 32.576 304.029 32.784C304.029 33.024 304.101 33.192 304.245 33.288C304.405 33.384 304.653 33.44 304.989 33.456L308.853 33.696C309.957 33.776 310.757 34.104 311.253 34.68C311.765 35.24 312.021 36.056 312.021 37.128C312.021 38.392 311.557 39.304 310.629 39.864C309.717 40.44 308.245 40.728 306.213 40.728ZM306.453 32.184C304.853 32.184 303.669 31.848 302.901 31.176C302.149 30.488 301.773 29.448 301.773 28.056C301.773 26.648 302.157 25.608 302.925 24.936C303.693 24.248 304.885 23.904 306.501 23.904C308.069 23.904 309.229 24.248 309.981 24.936C310.733 25.624 311.109 26.672 311.109 28.08C311.109 29.472 310.733 30.504 309.981 31.176C309.229 31.848 308.053 32.184 306.453 32.184ZM306.453 29.976C307.173 29.976 307.669 29.832 307.941 29.544C308.229 29.24 308.373 28.744 308.373 28.056C308.373 27.352 308.229 26.848 307.941 26.544C307.669 26.24 307.173 26.088 306.453 26.088C305.733 26.088 305.229 26.24 304.941 26.544C304.653 26.848 304.509 27.352 304.509 28.056C304.509 28.744 304.653 29.24 304.941 29.544C305.229 29.832 305.733 29.976 306.453 29.976ZM309.621 25.224L307.581 24.432C307.629 23.776 307.685 23.2 307.749 22.704C307.829 22.192 307.901 21.752 307.965 21.384C308.013 21.192 308.109 21.096 308.253 21.096H310.173C310.397 21.096 310.477 21.2 310.413 21.408C310.237 21.936 310.085 22.496 309.957 23.088C309.845 23.664 309.733 24.376 309.621 25.224ZM321.922 36C321.73 36 321.634 35.904 321.634 35.712V28.32C321.634 27.648 321.498 27.152 321.226 26.832C320.954 26.512 320.538 26.352 319.978 26.352C319.418 26.352 318.866 26.52 318.322 26.856C317.794 27.176 317.186 27.68 316.498 28.368L316.402 26.28C316.866 25.784 317.33 25.36 317.794 25.008C318.274 24.656 318.77 24.384 319.282 24.192C319.794 24 320.354 23.904 320.962 23.904C322.114 23.904 322.986 24.232 323.578 24.888C324.17 25.528 324.466 26.52 324.466 27.864V35.712C324.466 35.904 324.37 36 324.178 36H321.922ZM314.386 36C314.21 36 314.122 35.904 314.122 35.712V27.192C314.122 26.744 314.098 26.272 314.05 25.776C314.018 25.28 313.986 24.864 313.954 24.528C313.922 24.304 314.018 24.192 314.242 24.192H316.258C316.354 24.192 316.426 24.208 316.474 24.24C316.522 24.272 316.554 24.344 316.57 24.456C316.602 24.584 316.634 24.776 316.666 25.032C316.698 25.272 316.73 25.528 316.762 25.8C316.794 26.072 316.81 26.312 316.81 26.52L316.954 27.48V35.712C316.954 35.904 316.858 36 316.666 36H314.386ZM338.668 36.288C336.668 36.288 335.14 35.792 334.084 34.8C333.028 33.808 332.5 32.328 332.5 30.36V20.568C332.5 20.376 332.588 20.28 332.764 20.28H335.092C335.188 20.28 335.26 20.304 335.308 20.352C335.356 20.4 335.38 20.472 335.38 20.568V30.312C335.38 31.416 335.652 32.272 336.196 32.88C336.74 33.472 337.564 33.768 338.668 33.768C339.772 33.768 340.596 33.472 341.14 32.88C341.684 32.272 341.956 31.416 341.956 30.312V20.568C341.956 20.376 342.044 20.28 342.22 20.28H344.548C344.74 20.28 344.836 20.376 344.836 20.568V30.408C344.836 32.312 344.3 33.768 343.228 34.776C342.156 35.784 340.636 36.288 338.668 36.288ZM353.917 36.288C353.357 36.288 352.749 36.208 352.093 36.048C351.453 35.904 350.917 35.704 350.485 35.448L350.437 33.192C350.853 33.432 351.301 33.616 351.781 33.744C352.261 33.856 352.709 33.912 353.125 33.912C353.893 33.912 354.453 33.68 354.805 33.216C355.157 32.752 355.333 32.072 355.333 31.176V28.632C355.333 27.848 355.197 27.272 354.925 26.904C354.653 26.536 354.229 26.352 353.653 26.352C353.157 26.352 352.653 26.504 352.141 26.808C351.629 27.112 351.021 27.584 350.317 28.224L350.197 26.112C350.661 25.664 351.125 25.28 351.589 24.96C352.053 24.624 352.533 24.368 353.029 24.192C353.525 24 354.061 23.904 354.637 23.904C355.805 23.904 356.685 24.256 357.277 24.96C357.869 25.648 358.165 26.712 358.165 28.152V31.44C358.165 33.072 357.797 34.288 357.061 35.088C356.341 35.888 355.293 36.288 353.917 36.288ZM348.277 40.44C348.101 40.44 348.013 40.344 348.013 40.152V27.048C348.013 26.632 347.997 26.2 347.965 25.752C347.933 25.304 347.893 24.888 347.845 24.504C347.829 24.296 347.925 24.192 348.133 24.192H350.149C350.325 24.192 350.429 24.28 350.461 24.456C350.493 24.584 350.525 24.752 350.557 24.96C350.589 25.152 350.613 25.352 350.629 25.56C350.645 25.768 350.653 25.936 350.653 26.064L350.845 27.408V40.152C350.845 40.344 350.749 40.44 350.557 40.44H348.277Z" fill="white"/>
</svg>
