<svg width="351" height="1024" viewBox="0 0 351 1024" fill="none" xmlns="http://www.w3.org/2000/svg">
<path d="M0 1.5C0 6.81853 1.04756 12.085 3.08288 16.9987C5.11819 21.9124 8.1014 26.3771 11.8622 30.1378C15.6229 33.8986 20.0876 36.8818 25.0013 38.9171C29.915 40.9524 35.1815 42 40.5 42C45.8185 42 51.085 40.9524 55.9987 38.9171C60.9124 36.8818 65.3771 33.8986 69.1378 30.1378C72.8986 26.377 75.8818 21.9124 77.9171 16.9987C79.9524 12.085 81 6.81853 81 1.5L40.5 1.5H0Z" fill="#D9D9D9"/>
<circle cx="10.5" cy="63.5" r="2.5" fill="#D9D9D9"/>
<circle cx="60.5" cy="63.5" r="2.5" fill="#D9D9D9"/>
<circle cx="50.5" cy="63.5" r="2.5" fill="#D9D9D9"/>
<circle cx="40.5" cy="63.5" r="2.5" fill="#D9D9D9"/>
<circle cx="30.5" cy="63.5" r="2.5" fill="#D9D9D9"/>
<circle cx="20.5" cy="63.5" r="2.5" fill="#D9D9D9"/>
<circle cx="10.5" cy="93.5" r="2.5" fill="#D9D9D9"/>
<circle cx="60.5" cy="93.5" r="2.5" fill="#D9D9D9"/>
<circle cx="50.5" cy="93.5" r="2.5" fill="#D9D9D9"/>
<circle cx="40.5" cy="93.5" r="2.5" fill="#D9D9D9"/>
<circle cx="30.5" cy="93.5" r="2.5" fill="#D9D9D9"/>
<circle cx="20.5" cy="93.5" r="2.5" fill="#D9D9D9"/>
<circle cx="10.5" cy="83.5" r="2.5" fill="#D9D9D9"/>
<circle cx="60.5" cy="83.5" r="2.5" fill="#D9D9D9"/>
<circle cx="50.5" cy="83.5" r="2.5" fill="#D9D9D9"/>
<circle cx="40.5" cy="83.5" r="2.5" fill="#D9D9D9"/>
<circle cx="30.5" cy="83.5" r="2.5" fill="#D9D9D9"/>
<circle cx="20.5" cy="83.5" r="2.5" fill="#D9D9D9"/>
<circle cx="10.5" cy="73.5" r="2.5" fill="#D9D9D9"/>
<circle cx="60.5" cy="73.5" r="2.5" fill="#D9D9D9"/>
<circle cx="70.5" cy="63.5" r="2.5" fill="#D9D9D9"/>
<circle cx="70.5" cy="93.5" r="2.5" fill="#D9D9D9"/>
<circle cx="70.5" cy="83.5" r="2.5" fill="#D9D9D9"/>
<circle cx="70.5" cy="73.5" r="2.5" fill="#D9D9D9"/>
<circle cx="50.5" cy="73.5" r="2.5" fill="#D9D9D9"/>
<circle cx="40.5" cy="73.5" r="2.5" fill="#D9D9D9"/>
<circle cx="30.5" cy="73.5" r="2.5" fill="#D9D9D9"/>
<circle cx="20.5" cy="73.5" r="2.5" fill="#D9D9D9"/>
<circle cx="319.633" cy="56.633" r="12.5" fill="#D9D9D9"/>
<path d="M291.156 54.977C290.928 60.7081 292.404 66.3783 295.397 71.2705C298.391 76.1628 302.769 80.0574 307.976 82.4618C313.183 84.8662 318.987 85.6725 324.652 84.7787C330.318 83.8849 335.591 81.3311 339.806 77.4402C344.02 73.5494 346.985 68.4963 348.328 62.92C349.67 57.3436 349.329 51.4944 347.347 46.112C345.365 40.7297 341.831 36.056 337.193 32.6818C332.555 29.3077 327.02 27.3847 321.289 27.1561" stroke="white" stroke-width="2"/>
<path d="M149 90C139.611 90 132 82.3888 132 73L132 -10H166V73C166 82.3888 158.389 90 149 90Z" fill="url(#paint0_linear_30_1191)"/>
<path d="M224.5 159C210.417 159 199 147.583 199 133.5L199 7H250L250 133.5C250 147.583 238.583 159 224.5 159Z" fill="url(#paint1_linear_30_1191)"/>
<path d="M195.5 115C181.417 115 170 103.583 170 89.5L170 -1L221 -1L221 89.5C221 103.583 209.583 115 195.5 115Z" stroke="white" stroke-width="2"/>
<path d="M350.542 1022.67C350.517 1017.35 349.444 1012.09 347.386 1007.18C345.327 1002.28 342.323 997.828 338.544 994.085C334.765 990.342 330.287 987.38 325.363 985.368C320.44 983.356 315.169 982.334 309.85 982.359C304.532 982.385 299.27 983.457 294.366 985.516C289.462 987.575 285.012 990.579 281.269 994.358C277.526 998.136 274.564 1002.62 272.552 1007.54C270.54 1012.46 269.518 1017.73 269.543 1023.05L310.043 1022.86L350.542 1022.67Z" fill="#D9D9D9"/>
<circle cx="339.747" cy="960.717" r="2.5" transform="rotate(179.727 339.747 960.717)" fill="#D9D9D9"/>
<circle cx="289.748" cy="960.955" r="2.5" transform="rotate(179.727 289.748 960.955)" fill="#D9D9D9"/>
<circle cx="299.748" cy="960.907" r="2.5" transform="rotate(179.727 299.748 960.907)" fill="#D9D9D9"/>
<circle cx="309.748" cy="960.859" r="2.5" transform="rotate(179.727 309.748 960.859)" fill="#D9D9D9"/>
<circle cx="319.747" cy="960.812" r="2.5" transform="rotate(179.727 319.747 960.812)" fill="#D9D9D9"/>
<circle cx="329.747" cy="960.764" r="2.5" transform="rotate(179.727 329.747 960.764)" fill="#D9D9D9"/>
<circle cx="339.605" cy="930.717" r="2.5" transform="rotate(179.727 339.605 930.717)" fill="#D9D9D9"/>
<circle cx="289.605" cy="930.955" r="2.5" transform="rotate(179.727 289.605 930.955)" fill="#D9D9D9"/>
<circle cx="299.605" cy="930.907" r="2.5" transform="rotate(179.727 299.605 930.907)" fill="#D9D9D9"/>
<circle cx="309.605" cy="930.86" r="2.5" transform="rotate(179.727 309.605 930.86)" fill="#D9D9D9"/>
<circle cx="319.605" cy="930.812" r="2.5" transform="rotate(179.727 319.605 930.812)" fill="#D9D9D9"/>
<circle cx="329.605" cy="930.765" r="2.5" transform="rotate(179.727 329.605 930.765)" fill="#D9D9D9"/>
<circle cx="339.652" cy="940.717" r="2.5" transform="rotate(179.727 339.652 940.717)" fill="#D9D9D9"/>
<circle cx="289.653" cy="940.955" r="2.5" transform="rotate(179.727 289.653 940.955)" fill="#D9D9D9"/>
<circle cx="299.653" cy="940.907" r="2.5" transform="rotate(179.727 299.653 940.907)" fill="#D9D9D9"/>
<circle cx="309.653" cy="940.86" r="2.5" transform="rotate(179.727 309.653 940.86)" fill="#D9D9D9"/>
<circle cx="319.653" cy="940.812" r="2.5" transform="rotate(179.727 319.653 940.812)" fill="#D9D9D9"/>
<circle cx="329.652" cy="940.765" r="2.5" transform="rotate(179.727 329.652 940.765)" fill="#D9D9D9"/>
<circle cx="339.7" cy="950.717" r="2.5" transform="rotate(179.727 339.7 950.717)" fill="#D9D9D9"/>
<circle cx="289.701" cy="950.955" r="2.5" transform="rotate(179.727 289.701 950.955)" fill="#D9D9D9"/>
<circle cx="279.748" cy="961.002" r="2.5" transform="rotate(179.727 279.748 961.002)" fill="#D9D9D9"/>
<circle cx="279.605" cy="931.003" r="2.5" transform="rotate(179.727 279.605 931.003)" fill="#D9D9D9"/>
<circle cx="279.653" cy="941.002" r="2.5" transform="rotate(179.727 279.653 941.002)" fill="#D9D9D9"/>
<circle cx="279.701" cy="951.002" r="2.5" transform="rotate(179.727 279.701 951.002)" fill="#D9D9D9"/>
<circle cx="299.7" cy="950.907" r="2.5" transform="rotate(179.727 299.7 950.907)" fill="#D9D9D9"/>
<circle cx="309.7" cy="950.86" r="2.5" transform="rotate(179.727 309.7 950.86)" fill="#D9D9D9"/>
<circle cx="319.7" cy="950.812" r="2.5" transform="rotate(179.727 319.7 950.812)" fill="#D9D9D9"/>
<circle cx="329.7" cy="950.764" r="2.5" transform="rotate(179.727 329.7 950.764)" fill="#D9D9D9"/>
<circle cx="30.6506" cy="969.055" r="12.5" transform="rotate(179.727 30.6506 969.055)" fill="#D9D9D9"/>
<path d="M59.135 970.575C59.3364 964.843 57.8335 959.18 54.8163 954.302C51.7992 949.424 47.4033 945.55 42.1846 943.171C36.9658 940.791 31.1587 940.012 25.4974 940.933C19.8361 941.854 14.575 944.433 10.3794 948.344C6.1838 952.254 3.24211 957.321 1.92632 962.904C0.610536 968.487 0.97976 974.334 2.9873 979.707C4.99485 985.08 8.55054 989.737 13.2048 993.089C17.859 996.441 23.4026 998.338 29.1348 998.539" stroke="white" stroke-width="2"/>
<path d="M201.123 934.876C210.512 934.831 218.159 942.406 218.204 951.795L218.599 1034.79L184.599 1034.96L184.204 951.957C184.16 942.568 191.735 934.921 201.123 934.876Z" fill="url(#paint2_linear_30_1191)"/>
<path d="M125.296 866.236C139.379 866.169 150.85 877.531 150.917 891.614L151.519 1018.11L100.519 1018.36L99.9173 891.857C99.8503 877.774 111.213 866.303 125.296 866.236Z" fill="url(#paint3_linear_30_1191)"/>
<path d="M154.505 910.098C168.588 910.031 180.059 921.393 180.126 935.476L180.556 1025.97L129.557 1026.22L129.126 935.719C129.059 921.635 140.421 910.165 154.505 910.098Z" stroke="white" stroke-width="2"/>
<defs>
<linearGradient id="paint0_linear_30_1191" x1="166" y1="90" x2="166" y2="20.0847" gradientUnits="userSpaceOnUse">
<stop stop-color="#D9D9D9"/>
<stop offset="1" stop-color="#1178F2"/>
</linearGradient>
<linearGradient id="paint1_linear_30_1191" x1="250" y1="159" x2="250" y2="52.7288" gradientUnits="userSpaceOnUse">
<stop stop-color="#D9D9D9"/>
<stop offset="1" stop-color="#1178F2"/>
</linearGradient>
<linearGradient id="paint2_linear_30_1191" x1="184.123" y1="934.957" x2="184.456" y2="1004.87" gradientUnits="userSpaceOnUse">
<stop stop-color="#D9D9D9"/>
<stop offset="1" stop-color="#1178F2"/>
</linearGradient>
<linearGradient id="paint3_linear_30_1191" x1="99.796" y1="866.357" x2="100.302" y2="972.627" gradientUnits="userSpaceOnUse">
<stop stop-color="#D9D9D9"/>
<stop offset="1" stop-color="#1178F2"/>
</linearGradient>
</defs>
</svg>
