<svg width="492" height="65" viewBox="0 0 492 65" fill="none" xmlns="http://www.w3.org/2000/svg">
<path d="M11.16 32.48C8.92 32.48 7.06667 32.1733 5.6 31.56C4.16 30.9467 3.12 30.0667 2.48 28.92C1.84 27.7467 1.58667 26.3333 1.72 24.68C1.77333 24.2267 1.96 24 2.28 24H6.04C6.38667 24 6.54667 24.2 6.52 24.6C6.52 25.9067 6.92 26.8667 7.72 27.48C8.52 28.0667 9.74667 28.36 11.4 28.36C13.0267 28.36 14.2267 28.1067 15 27.6C15.8 27.0667 16.2 26.2533 16.2 25.16C16.2 24.6533 16.1067 24.2133 15.92 23.84C15.7333 23.44 15.4133 23.0933 14.96 22.8C14.5067 22.48 13.8933 22.16 13.12 21.84L7.32 19.36C6.04 18.8 5.01333 18.2 4.24 17.56C3.46667 16.8933 2.92 16.1333 2.6 15.28C2.28 14.4267 2.12 13.4533 2.12 12.36C2.14667 10.0933 2.90667 8.36 4.4 7.16C5.89333 5.96 8.12 5.36 11.08 5.36C13.16 5.36 14.92 5.65333 16.36 6.24C17.8267 6.8 18.92 7.64 19.64 8.76C20.36 9.85333 20.64 11.2267 20.48 12.88C20.4267 13.36 20.2667 13.6 20 13.6H16.2C16.04 13.6 15.92 13.5467 15.84 13.44C15.76 13.3333 15.7333 13.1467 15.76 12.88C15.84 11.8133 15.4533 10.9733 14.6 10.36C13.7733 9.72 12.5867 9.4 11.04 9.4C9.68 9.4 8.65333 9.64 7.96 10.12C7.26667 10.6 6.92 11.32 6.92 12.28C6.92 12.7867 7.01333 13.24 7.2 13.64C7.38667 14.0133 7.70667 14.36 8.16 14.68C8.64 15 9.28 15.3333 10.08 15.68L15.8 18.12C17.1067 18.6533 18.1333 19.2533 18.88 19.92C19.6533 20.56 20.2 21.3067 20.52 22.16C20.8667 23.0133 21.0267 24.0267 21 25.2C21 27.52 20.2133 29.32 18.64 30.6C17.0667 31.8533 14.5733 32.48 11.16 32.48ZM25.8906 32C25.5973 32 25.4506 31.84 25.4506 31.52V12.8C25.4506 12.48 25.5973 12.32 25.8906 12.32H29.6906C30.0106 12.32 30.1706 12.48 30.1706 12.8V31.52C30.1706 31.84 30.0106 32 29.6906 32H25.8906ZM27.8106 9.48C26.904 9.48 26.2106 9.24 25.7306 8.76C25.2773 8.28 25.0506 7.66667 25.0506 6.92V6.32C25.0506 5.54667 25.2773 4.93333 25.7306 4.48C26.2106 4 26.904 3.76 27.8106 3.76C28.7173 3.76 29.3973 4 29.8506 4.48C30.304 4.93333 30.5306 5.54667 30.5306 6.32V6.92C30.5306 7.66667 30.304 8.28 29.8506 8.76C29.3973 9.24 28.7173 9.48 27.8106 9.48ZM42.8553 39.88C39.6286 39.88 37.2953 39.4667 35.8553 38.64C34.4153 37.8133 33.6953 36.5733 33.6953 34.92C33.6953 33.9067 33.9353 33 34.4153 32.2C34.922 31.4 35.722 30.7333 36.8153 30.2L40.4153 31.36C39.7486 31.6 39.2553 31.9467 38.9353 32.4C38.642 32.8533 38.4953 33.3733 38.4953 33.96C38.4953 34.7867 38.8286 35.36 39.4953 35.68C40.162 36.0267 41.362 36.2133 43.0953 36.24C44.962 36.24 46.2286 36.0667 46.8953 35.72C47.562 35.3733 47.8953 34.76 47.8953 33.88C47.8953 33.2667 47.7353 32.8133 47.4153 32.52C47.122 32.2267 46.642 32.0667 45.9753 32.04L38.6553 31.6C37.6686 31.52 36.8286 31.1733 36.1353 30.56C35.4686 29.9467 35.1353 29.04 35.1353 27.84C35.1353 27.2533 35.2153 26.72 35.3753 26.24C35.562 25.76 35.8553 25.32 36.2553 24.92C36.6553 24.4933 37.1753 24.0533 37.8153 23.6L40.6953 24.92C40.162 25.1067 39.7753 25.36 39.5353 25.68C39.322 25.9733 39.2153 26.2933 39.2153 26.64C39.2153 27.04 39.3353 27.32 39.5753 27.48C39.842 27.64 40.2553 27.7333 40.8153 27.76L47.2553 28.16C49.0953 28.2933 50.4286 28.84 51.2553 29.8C52.1086 30.7333 52.5353 32.0933 52.5353 33.88C52.5353 35.9867 51.762 37.5067 50.2153 38.44C48.6953 39.4 46.242 39.88 42.8553 39.88ZM43.2553 25.64C40.5886 25.64 38.6153 25.08 37.3353 23.96C36.082 22.8133 35.4553 21.08 35.4553 18.76C35.4553 16.4133 36.0953 14.68 37.3753 13.56C38.6553 12.4133 40.642 11.84 43.3353 11.84C45.9486 11.84 47.882 12.4133 49.1353 13.56C50.3886 14.7067 51.0153 16.4533 51.0153 18.8C51.0153 21.12 50.3886 22.84 49.1353 23.96C47.882 25.08 45.922 25.64 43.2553 25.64ZM43.2553 21.96C44.4553 21.96 45.282 21.72 45.7353 21.24C46.2153 20.7333 46.4553 19.9067 46.4553 18.76C46.4553 17.5867 46.2153 16.7467 45.7353 16.24C45.282 15.7333 44.4553 15.48 43.2553 15.48C42.0553 15.48 41.2153 15.7333 40.7353 16.24C40.2553 16.7467 40.0153 17.5867 40.0153 18.76C40.0153 19.9067 40.2553 20.7333 40.7353 21.24C41.2153 21.72 42.0553 21.96 43.2553 21.96ZM48.5353 14.04L45.1353 12.72C45.2153 11.6267 45.3086 10.6667 45.4153 9.84C45.5486 8.98667 45.6686 8.25333 45.7753 7.64C45.8553 7.32 46.0153 7.16 46.2553 7.16H49.4553C49.8286 7.16 49.962 7.33333 49.8553 7.68C49.562 8.56 49.3086 9.49333 49.0953 10.48C48.9086 11.44 48.722 12.6267 48.5353 14.04ZM69.0366 32C68.7166 32 68.5566 31.84 68.5566 31.52V19.2C68.5566 18.08 68.3299 17.2533 67.8766 16.72C67.4232 16.1867 66.7299 15.92 65.7966 15.92C64.8632 15.92 63.9432 16.2 63.0366 16.76C62.1566 17.2933 61.1432 18.1333 59.9966 19.28L59.8366 15.8C60.6099 14.9733 61.3832 14.2667 62.1566 13.68C62.9566 13.0933 63.7832 12.64 64.6366 12.32C65.4899 12 66.4232 11.84 67.4366 11.84C69.3566 11.84 70.8099 12.3867 71.7966 13.48C72.7832 14.5467 73.2766 16.2 73.2766 18.44V31.52C73.2766 31.84 73.1166 32 72.7966 32H69.0366ZM56.4766 32C56.1832 32 56.0366 31.84 56.0366 31.52V17.32C56.0366 16.5733 55.9966 15.7867 55.9166 14.96C55.8632 14.1333 55.8099 13.44 55.7566 12.88C55.7032 12.5067 55.8632 12.32 56.2366 12.32H59.5966C59.7566 12.32 59.8766 12.3467 59.9566 12.4C60.0366 12.4533 60.0899 12.5733 60.1166 12.76C60.1699 12.9733 60.2232 13.2933 60.2766 13.72C60.3299 14.12 60.3832 14.5467 60.4366 15C60.4899 15.4533 60.5166 15.8533 60.5166 16.2L60.7566 17.8V31.52C60.7566 31.84 60.5966 32 60.2766 32H56.4766Z" fill="black"/>
<path d="M96.9463 32.48C93.6129 32.48 91.0663 31.6533 89.3063 30C87.5463 28.3467 86.6663 25.88 86.6663 22.6V6.28C86.6663 5.96 86.8129 5.8 87.1063 5.8H90.9863C91.1463 5.8 91.2663 5.84 91.3463 5.92C91.4263 6 91.4663 6.12 91.4663 6.28V22.52C91.4663 24.36 91.9196 25.7867 92.8263 26.8C93.7329 27.7867 95.1063 28.28 96.9463 28.28C98.7863 28.28 100.16 27.7867 101.066 26.8C101.973 25.7867 102.426 24.36 102.426 22.52V6.28C102.426 5.96 102.573 5.8 102.866 5.8H106.746C107.066 5.8 107.226 5.96 107.226 6.28V22.68C107.226 25.8533 106.333 28.28 104.546 29.96C102.76 31.64 100.226 32.48 96.9463 32.48ZM122.361 32.48C121.428 32.48 120.414 32.3467 119.321 32.08C118.254 31.84 117.361 31.5067 116.641 31.08L116.561 27.32C117.254 27.72 118.001 28.0267 118.801 28.24C119.601 28.4267 120.348 28.52 121.041 28.52C122.321 28.52 123.254 28.1333 123.841 27.36C124.428 26.5867 124.721 25.4533 124.721 23.96V19.72C124.721 18.4133 124.494 17.4533 124.041 16.84C123.588 16.2267 122.881 15.92 121.921 15.92C121.094 15.92 120.254 16.1733 119.401 16.68C118.548 17.1867 117.534 17.9733 116.361 19.04L116.161 15.52C116.934 14.7733 117.708 14.1333 118.481 13.6C119.254 13.04 120.054 12.6133 120.881 12.32C121.708 12 122.601 11.84 123.561 11.84C125.508 11.84 126.974 12.4267 127.961 13.6C128.948 14.7467 129.441 16.52 129.441 18.92V24.4C129.441 27.12 128.828 29.1467 127.601 30.48C126.401 31.8133 124.654 32.48 122.361 32.48ZM112.961 39.4C112.668 39.4 112.521 39.24 112.521 38.92V17.08C112.521 16.3867 112.494 15.6667 112.441 14.92C112.388 14.1733 112.321 13.48 112.241 12.84C112.214 12.4933 112.374 12.32 112.721 12.32H116.081C116.374 12.32 116.548 12.4667 116.601 12.76C116.654 12.9733 116.708 13.2533 116.761 13.6C116.814 13.92 116.854 14.2533 116.881 14.6C116.908 14.9467 116.921 15.2267 116.921 15.44L117.241 17.68V38.92C117.241 39.24 117.081 39.4 116.761 39.4H112.961Z" fill="#1178F2"/>
<path d="M2.688 50.032V53.76H6.752V54.96H2.688V58.8H7.232V60H1.232V48.832H7.232V50.032H2.688ZM19.9791 51.072C20.6618 51.072 21.2698 51.216 21.8031 51.504C22.3365 51.7813 22.7578 52.2027 23.0671 52.768C23.3765 53.3333 23.5311 54.0213 23.5311 54.832V60H22.0911V55.04C22.0911 54.1653 21.8725 53.4987 21.4351 53.04C21.0085 52.5707 20.4271 52.336 19.6911 52.336C18.9338 52.336 18.3311 52.5813 17.8831 53.072C17.4351 53.552 17.2111 54.2507 17.2111 55.168V60H15.7711V55.04C15.7711 54.1653 15.5525 53.4987 15.1151 53.04C14.6885 52.5707 14.1071 52.336 13.3711 52.336C12.6138 52.336 12.0111 52.5813 11.5631 53.072C11.1151 53.552 10.8911 54.2507 10.8911 55.168V60H9.43513V51.232H10.8911V52.496C11.1791 52.0373 11.5631 51.6853 12.0431 51.44C12.5338 51.1947 13.0725 51.072 13.6591 51.072C14.3951 51.072 15.0458 51.2373 15.6111 51.568C16.1765 51.8987 16.5978 52.384 16.8751 53.024C17.1205 52.4053 17.5258 51.9253 18.0911 51.584C18.6565 51.2427 19.2858 51.072 19.9791 51.072ZM27.3755 52.848C27.6635 52.3467 28.0902 51.9307 28.6555 51.6C29.2315 51.2587 29.8982 51.088 30.6555 51.088C31.4342 51.088 32.1382 51.2747 32.7675 51.648C33.4075 52.0213 33.9088 52.5493 34.2715 53.232C34.6342 53.904 34.8155 54.688 34.8155 55.584C34.8155 56.4693 34.6342 57.2587 34.2715 57.952C33.9088 58.6453 33.4075 59.184 32.7675 59.568C32.1382 59.952 31.4342 60.144 30.6555 60.144C29.9088 60.144 29.2475 59.9787 28.6715 59.648C28.1062 59.3067 27.6742 58.8853 27.3755 58.384V64.16H25.9195V51.232H27.3755V52.848ZM33.3275 55.584C33.3275 54.9227 33.1942 54.3467 32.9275 53.856C32.6608 53.3653 32.2982 52.992 31.8395 52.736C31.3915 52.48 30.8955 52.352 30.3515 52.352C29.8182 52.352 29.3222 52.4853 28.8635 52.752C28.4155 53.008 28.0528 53.3867 27.7755 53.888C27.5088 54.3787 27.3755 54.9493 27.3755 55.6C27.3755 56.2613 27.5088 56.8427 27.7755 57.344C28.0528 57.8347 28.4155 58.2133 28.8635 58.48C29.3222 58.736 29.8182 58.864 30.3515 58.864C30.8955 58.864 31.3915 58.736 31.8395 58.48C32.2982 58.2133 32.6608 57.8347 32.9275 57.344C33.1942 56.8427 33.3275 56.256 33.3275 55.584ZM40.556 60.144C39.7347 60.144 38.988 59.9573 38.316 59.584C37.6547 59.2107 37.132 58.6827 36.748 58C36.3747 57.3067 36.188 56.5067 36.188 55.6C36.188 54.704 36.38 53.9147 36.764 53.232C37.1587 52.5387 37.692 52.0107 38.364 51.648C39.036 51.2747 39.788 51.088 40.62 51.088C41.452 51.088 42.204 51.2747 42.876 51.648C43.548 52.0107 44.076 52.5333 44.46 53.216C44.8547 53.8987 45.052 54.6933 45.052 55.6C45.052 56.5067 44.8493 57.3067 44.444 58C44.0493 58.6827 43.5107 59.2107 42.828 59.584C42.1453 59.9573 41.388 60.144 40.556 60.144ZM40.556 58.864C41.0787 58.864 41.5693 58.7413 42.028 58.496C42.4867 58.2507 42.8547 57.8827 43.132 57.392C43.42 56.9013 43.564 56.304 43.564 55.6C43.564 54.896 43.4253 54.2987 43.148 53.808C42.8707 53.3173 42.508 52.9547 42.06 52.72C41.612 52.4747 41.1267 52.352 40.604 52.352C40.0707 52.352 39.58 52.4747 39.132 52.72C38.6947 52.9547 38.3427 53.3173 38.076 53.808C37.8093 54.2987 37.676 54.896 37.676 55.6C37.676 56.3147 37.804 56.9173 38.06 57.408C38.3267 57.8987 38.6787 58.2667 39.116 58.512C39.5533 58.7467 40.0333 58.864 40.556 58.864ZM58.6464 51.232L55.9104 60H54.4064L52.2944 53.04L50.1824 60H48.6784L45.9264 51.232H47.4144L49.4304 58.592L51.6064 51.232H53.0944L55.2224 58.608L57.2064 51.232H58.6464ZM68.0914 55.28C68.0914 55.5573 68.0754 55.8507 68.0434 56.16H61.0354C61.0887 57.024 61.382 57.7013 61.9154 58.192C62.4594 58.672 63.1154 58.912 63.8834 58.912C64.5127 58.912 65.0354 58.768 65.4514 58.48C65.878 58.1813 66.1767 57.7867 66.3474 57.296H67.9154C67.6807 58.1387 67.2114 58.8267 66.5074 59.36C65.8034 59.8827 64.9287 60.144 63.8834 60.144C63.0514 60.144 62.3047 59.9573 61.6434 59.584C60.9927 59.2107 60.4807 58.6827 60.1074 58C59.734 57.3067 59.5474 56.5067 59.5474 55.6C59.5474 54.6933 59.7287 53.8987 60.0914 53.216C60.454 52.5333 60.9607 52.0107 61.6114 51.648C62.2727 51.2747 63.03 51.088 63.8834 51.088C64.7154 51.088 65.4514 51.2693 66.0914 51.632C66.7314 51.9947 67.222 52.496 67.5634 53.136C67.9154 53.7653 68.0914 54.48 68.0914 55.28ZM66.5874 54.976C66.5874 54.4213 66.4647 53.9467 66.2194 53.552C65.974 53.1467 65.638 52.8427 65.2114 52.64C64.7954 52.4267 64.3314 52.32 63.8194 52.32C63.0834 52.32 62.454 52.5547 61.9314 53.024C61.4194 53.4933 61.126 54.144 61.0514 54.976H66.5874ZM71.4693 52.656C71.7253 52.1547 72.0879 51.7653 72.5573 51.488C73.0373 51.2107 73.6186 51.072 74.3013 51.072V52.576H73.9173C72.2853 52.576 71.4693 53.4613 71.4693 55.232V60H70.0133V51.232H71.4693V52.656ZM87.7996 51.232L82.5196 64.128H81.0156L82.7436 59.904L79.2076 51.232H80.8236L83.5756 58.336L86.2956 51.232H87.7996ZM93.0873 60.144C92.2659 60.144 91.5193 59.9573 90.8473 59.584C90.1859 59.2107 89.6633 58.6827 89.2793 58C88.9059 57.3067 88.7193 56.5067 88.7193 55.6C88.7193 54.704 88.9113 53.9147 89.2953 53.232C89.6899 52.5387 90.2233 52.0107 90.8953 51.648C91.5673 51.2747 92.3193 51.088 93.1513 51.088C93.9833 51.088 94.7353 51.2747 95.4073 51.648C96.0793 52.0107 96.6073 52.5333 96.9913 53.216C97.3859 53.8987 97.5833 54.6933 97.5833 55.6C97.5833 56.5067 97.3806 57.3067 96.9753 58C96.5806 58.6827 96.0419 59.2107 95.3593 59.584C94.6766 59.9573 93.9193 60.144 93.0873 60.144ZM93.0873 58.864C93.6099 58.864 94.1006 58.7413 94.5593 58.496C95.0179 58.2507 95.3859 57.8827 95.6633 57.392C95.9513 56.9013 96.0953 56.304 96.0953 55.6C96.0953 54.896 95.9566 54.2987 95.6793 53.808C95.4019 53.3173 95.0393 52.9547 94.5913 52.72C94.1433 52.4747 93.6579 52.352 93.1353 52.352C92.6019 52.352 92.1113 52.4747 91.6633 52.72C91.2259 52.9547 90.8739 53.3173 90.6073 53.808C90.3406 54.2987 90.2073 54.896 90.2073 55.6C90.2073 56.3147 90.3353 56.9173 90.5913 57.408C90.8579 57.8987 91.2099 58.2667 91.6473 58.512C92.0846 58.7467 92.5646 58.864 93.0873 58.864ZM107.274 51.232V60H105.818V58.704C105.54 59.152 105.151 59.504 104.65 59.76C104.159 60.0053 103.615 60.128 103.018 60.128C102.335 60.128 101.722 59.9893 101.178 59.712C100.634 59.424 100.202 58.9973 99.8816 58.432C99.5723 57.8667 99.4176 57.1787 99.4176 56.368V51.232H100.858V56.176C100.858 57.04 101.076 57.7067 101.514 58.176C101.951 58.6347 102.548 58.864 103.306 58.864C104.084 58.864 104.698 58.624 105.146 58.144C105.594 57.664 105.818 56.9653 105.818 56.048V51.232H107.274ZM111.188 52.656C111.444 52.1547 111.807 51.7653 112.276 51.488C112.756 51.2107 113.337 51.072 114.02 51.072V52.576H113.636C112.004 52.576 111.188 53.4613 111.188 55.232V60H109.732V51.232H111.188V52.656ZM123.07 60.144C122.398 60.144 121.796 60.032 121.262 59.808C120.729 59.5733 120.308 59.2533 119.998 58.848C119.689 58.432 119.518 57.9573 119.486 57.424H120.99C121.033 57.8613 121.236 58.2187 121.598 58.496C121.972 58.7733 122.457 58.912 123.054 58.912C123.609 58.912 124.046 58.7893 124.366 58.544C124.686 58.2987 124.846 57.9893 124.846 57.616C124.846 57.232 124.676 56.9493 124.334 56.768C123.993 56.576 123.465 56.3893 122.75 56.208C122.1 56.0373 121.566 55.8667 121.15 55.696C120.745 55.5147 120.393 55.2533 120.094 54.912C119.806 54.56 119.662 54.1013 119.662 53.536C119.662 53.088 119.796 52.6773 120.062 52.304C120.329 51.9307 120.708 51.6373 121.198 51.424C121.689 51.2 122.249 51.088 122.878 51.088C123.849 51.088 124.633 51.3333 125.23 51.824C125.828 52.3147 126.148 52.9867 126.19 53.84H124.734C124.702 53.3813 124.516 53.0133 124.174 52.736C123.844 52.4587 123.396 52.32 122.83 52.32C122.308 52.32 121.892 52.432 121.582 52.656C121.273 52.88 121.118 53.1733 121.118 53.536C121.118 53.824 121.209 54.064 121.39 54.256C121.582 54.4373 121.817 54.5867 122.094 54.704C122.382 54.8107 122.777 54.9333 123.278 55.072C123.908 55.2427 124.42 55.4133 124.814 55.584C125.209 55.744 125.545 55.9893 125.822 56.32C126.11 56.6507 126.26 57.0827 126.27 57.616C126.27 58.096 126.137 58.528 125.87 58.912C125.604 59.296 125.225 59.6 124.734 59.824C124.254 60.0373 123.7 60.144 123.07 60.144ZM133.222 60L129.782 56.128V60H128.326V48.16H129.782V55.12L133.158 51.232H135.19L131.062 55.6L135.206 60H133.222ZM137.312 49.808C137.035 49.808 136.8 49.712 136.608 49.52C136.416 49.328 136.32 49.0933 136.32 48.816C136.32 48.5387 136.416 48.304 136.608 48.112C136.8 47.92 137.035 47.824 137.312 47.824C137.579 47.824 137.803 47.92 137.984 48.112C138.176 48.304 138.272 48.5387 138.272 48.816C138.272 49.0933 138.176 49.328 137.984 49.52C137.803 49.712 137.579 49.808 137.312 49.808ZM138.016 51.232V60H136.56V51.232H138.016ZM141.954 48.16V60H140.498V48.16H141.954ZM145.891 48.16V60H144.435V48.16H145.891ZM151.477 60.144C150.805 60.144 150.202 60.032 149.669 59.808C149.135 59.5733 148.714 59.2533 148.405 58.848C148.095 58.432 147.925 57.9573 147.893 57.424H149.397C149.439 57.8613 149.642 58.2187 150.005 58.496C150.378 58.7733 150.863 58.912 151.461 58.912C152.015 58.912 152.453 58.7893 152.773 58.544C153.093 58.2987 153.253 57.9893 153.253 57.616C153.253 57.232 153.082 56.9493 152.741 56.768C152.399 56.576 151.871 56.3893 151.157 56.208C150.506 56.0373 149.973 55.8667 149.557 55.696C149.151 55.5147 148.799 55.2533 148.501 54.912C148.213 54.56 148.069 54.1013 148.069 53.536C148.069 53.088 148.202 52.6773 148.469 52.304C148.735 51.9307 149.114 51.6373 149.605 51.424C150.095 51.2 150.655 51.088 151.285 51.088C152.255 51.088 153.039 51.3333 153.637 51.824C154.234 52.3147 154.554 52.9867 154.597 53.84H153.141C153.109 53.3813 152.922 53.0133 152.581 52.736C152.25 52.4587 151.802 52.32 151.237 52.32C150.714 52.32 150.298 52.432 149.989 52.656C149.679 52.88 149.525 53.1733 149.525 53.536C149.525 53.824 149.615 54.064 149.797 54.256C149.989 54.4373 150.223 54.5867 150.501 54.704C150.789 54.8107 151.183 54.9333 151.685 55.072C152.314 55.2427 152.826 55.4133 153.221 55.584C153.615 55.744 153.951 55.9893 154.229 56.32C154.517 56.6507 154.666 57.0827 154.677 57.616C154.677 58.096 154.543 58.528 154.277 58.912C154.01 59.296 153.631 59.6 153.141 59.824C152.661 60.0373 152.106 60.144 151.477 60.144ZM172.678 51.232L169.942 60H168.438L166.326 53.04L164.214 60H162.71L159.958 51.232H161.446L163.462 58.592L165.638 51.232H167.126L169.254 58.608L171.238 51.232H172.678ZM174.875 49.808C174.597 49.808 174.363 49.712 174.171 49.52C173.979 49.328 173.883 49.0933 173.883 48.816C173.883 48.5387 173.979 48.304 174.171 48.112C174.363 47.92 174.597 47.824 174.875 47.824C175.141 47.824 175.365 47.92 175.547 48.112C175.739 48.304 175.835 48.5387 175.835 48.816C175.835 49.0933 175.739 49.328 175.547 49.52C175.365 49.712 175.141 49.808 174.875 49.808ZM175.579 51.232V60H174.123V51.232H175.579ZM179.836 52.432V57.6C179.836 58.0267 179.927 58.3307 180.108 58.512C180.289 58.6827 180.604 58.768 181.052 58.768H182.124V60H180.812C180.001 60 179.393 59.8133 178.988 59.44C178.583 59.0667 178.38 58.4533 178.38 57.6V52.432H177.244V51.232H178.38V49.024H179.836V51.232H182.124V52.432H179.836ZM188.24 51.072C188.902 51.072 189.499 51.216 190.032 51.504C190.566 51.7813 190.982 52.2027 191.28 52.768C191.59 53.3333 191.744 54.0213 191.744 54.832V60H190.304V55.04C190.304 54.1653 190.086 53.4987 189.648 53.04C189.211 52.5707 188.614 52.336 187.856 52.336C187.088 52.336 186.475 52.576 186.016 53.056C185.568 53.536 185.344 54.2347 185.344 55.152V60H183.888V48.16H185.344V52.48C185.632 52.032 186.027 51.6853 186.528 51.44C187.04 51.1947 187.611 51.072 188.24 51.072ZM202.212 60.144C201.391 60.144 200.644 59.9573 199.972 59.584C199.311 59.2107 198.788 58.6827 198.404 58C198.031 57.3067 197.844 56.5067 197.844 55.6C197.844 54.704 198.036 53.9147 198.42 53.232C198.815 52.5387 199.348 52.0107 200.02 51.648C200.692 51.2747 201.444 51.088 202.276 51.088C203.108 51.088 203.86 51.2747 204.532 51.648C205.204 52.0107 205.732 52.5333 206.116 53.216C206.511 53.8987 206.708 54.6933 206.708 55.6C206.708 56.5067 206.506 57.3067 206.1 58C205.706 58.6827 205.167 59.2107 204.484 59.584C203.802 59.9573 203.044 60.144 202.212 60.144ZM202.212 58.864C202.735 58.864 203.226 58.7413 203.684 58.496C204.143 58.2507 204.511 57.8827 204.788 57.392C205.076 56.9013 205.22 56.304 205.22 55.6C205.22 54.896 205.082 54.2987 204.804 53.808C204.527 53.3173 204.164 52.9547 203.716 52.72C203.268 52.4747 202.783 52.352 202.26 52.352C201.727 52.352 201.236 52.4747 200.788 52.72C200.351 52.9547 199.999 53.3173 199.732 53.808C199.466 54.2987 199.332 54.896 199.332 55.6C199.332 56.3147 199.46 56.9173 199.716 57.408C199.983 57.8987 200.335 58.2667 200.772 58.512C201.21 58.7467 201.69 58.864 202.212 58.864ZM216.399 51.232V60H214.943V58.704C214.665 59.152 214.276 59.504 213.775 59.76C213.284 60.0053 212.74 60.128 212.143 60.128C211.46 60.128 210.847 59.9893 210.303 59.712C209.759 59.424 209.327 58.9973 209.007 58.432C208.697 57.8667 208.543 57.1787 208.543 56.368V51.232H209.983V56.176C209.983 57.04 210.201 57.7067 210.639 58.176C211.076 58.6347 211.673 58.864 212.431 58.864C213.209 58.864 213.823 58.624 214.271 58.144C214.719 57.664 214.943 56.9653 214.943 56.048V51.232H216.399ZM220.313 52.656C220.569 52.1547 220.932 51.7653 221.401 51.488C221.881 51.2107 222.462 51.072 223.145 51.072V52.576H222.761C221.129 52.576 220.313 53.4613 220.313 55.232V60H218.857V51.232H220.313V52.656ZM228.547 55.584C228.547 54.688 228.729 53.904 229.091 53.232C229.454 52.5493 229.95 52.0213 230.579 51.648C231.219 51.2747 231.934 51.088 232.723 51.088C233.481 51.088 234.142 51.2587 234.707 51.6C235.283 51.9307 235.705 52.3413 235.971 52.832V51.232H237.443V64.16H235.971V58.384C235.694 58.8747 235.267 59.2907 234.691 59.632C234.115 59.9733 233.443 60.144 232.675 60.144C231.907 60.144 231.209 59.952 230.579 59.568C229.95 59.184 229.454 58.6453 229.091 57.952C228.729 57.2587 228.547 56.4693 228.547 55.584ZM235.971 55.6C235.971 54.9387 235.838 54.3627 235.571 53.872C235.305 53.3813 234.942 53.008 234.483 52.752C234.035 52.4853 233.539 52.352 232.995 52.352C232.451 52.352 231.955 52.48 231.507 52.736C231.059 52.992 230.702 53.3653 230.435 53.856C230.169 54.3467 230.035 54.9227 230.035 55.584C230.035 56.256 230.169 56.8427 230.435 57.344C230.702 57.8347 231.059 58.2133 231.507 58.48C231.955 58.736 232.451 58.864 232.995 58.864C233.539 58.864 234.035 58.736 234.483 58.48C234.942 58.2133 235.305 57.8347 235.571 57.344C235.838 56.8427 235.971 56.2613 235.971 55.6ZM247.68 51.232V60H246.224V58.704C245.947 59.152 245.557 59.504 245.056 59.76C244.565 60.0053 244.021 60.128 243.424 60.128C242.741 60.128 242.128 59.9893 241.584 59.712C241.04 59.424 240.608 58.9973 240.288 58.432C239.979 57.8667 239.824 57.1787 239.824 56.368V51.232H241.264V56.176C241.264 57.04 241.483 57.7067 241.92 58.176C242.357 58.6347 242.955 58.864 243.712 58.864C244.491 58.864 245.104 58.624 245.552 58.144C246 57.664 246.224 56.9653 246.224 56.048V51.232H247.68ZM250.89 49.808C250.613 49.808 250.378 49.712 250.186 49.52C249.994 49.328 249.898 49.0933 249.898 48.816C249.898 48.5387 249.994 48.304 250.186 48.112C250.378 47.92 250.613 47.824 250.89 47.824C251.157 47.824 251.381 47.92 251.562 48.112C251.754 48.304 251.85 48.5387 251.85 48.816C251.85 49.0933 251.754 49.328 251.562 49.52C251.381 49.712 251.157 49.808 250.89 49.808ZM251.594 51.232V60H250.138V51.232H251.594ZM255.164 58.8H259.468V60H253.5V58.8L257.756 52.416H253.532V51.232H259.436V52.416L255.164 58.8ZM267.079 52.848C267.367 52.3467 267.793 51.9307 268.359 51.6C268.935 51.2587 269.601 51.088 270.359 51.088C271.137 51.088 271.841 51.2747 272.471 51.648C273.111 52.0213 273.612 52.5493 273.975 53.232C274.337 53.904 274.519 54.688 274.519 55.584C274.519 56.4693 274.337 57.2587 273.975 57.952C273.612 58.6453 273.111 59.184 272.471 59.568C271.841 59.952 271.137 60.144 270.359 60.144C269.612 60.144 268.951 59.9787 268.375 59.648C267.809 59.3067 267.377 58.8853 267.079 58.384V64.16H265.623V51.232H267.079V52.848ZM273.031 55.584C273.031 54.9227 272.897 54.3467 272.631 53.856C272.364 53.3653 272.001 52.992 271.543 52.736C271.095 52.48 270.599 52.352 270.055 52.352C269.521 52.352 269.025 52.4853 268.567 52.752C268.119 53.008 267.756 53.3867 267.479 53.888C267.212 54.3787 267.079 54.9493 267.079 55.6C267.079 56.2613 267.212 56.8427 267.479 57.344C267.756 57.8347 268.119 58.2133 268.567 58.48C269.025 58.736 269.521 58.864 270.055 58.864C270.599 58.864 271.095 58.736 271.543 58.48C272.001 58.2133 272.364 57.8347 272.631 57.344C272.897 56.8427 273.031 56.256 273.031 55.584ZM277.891 48.16V60H276.435V48.16H277.891ZM279.829 55.584C279.829 54.688 280.01 53.904 280.373 53.232C280.735 52.5493 281.231 52.0213 281.861 51.648C282.501 51.2747 283.21 51.088 283.989 51.088C284.757 51.088 285.423 51.2533 285.989 51.584C286.554 51.9147 286.975 52.3307 287.253 52.832V51.232H288.725V60H287.253V58.368C286.965 58.88 286.533 59.3067 285.957 59.648C285.391 59.9787 284.73 60.144 283.973 60.144C283.194 60.144 282.49 59.952 281.861 59.568C281.231 59.184 280.735 58.6453 280.373 57.952C280.01 57.2587 279.829 56.4693 279.829 55.584ZM287.253 55.6C287.253 54.9387 287.119 54.3627 286.853 53.872C286.586 53.3813 286.223 53.008 285.765 52.752C285.317 52.4853 284.821 52.352 284.277 52.352C283.733 52.352 283.237 52.48 282.789 52.736C282.341 52.992 281.983 53.3653 281.717 53.856C281.45 54.3467 281.317 54.9227 281.317 55.584C281.317 56.256 281.45 56.8427 281.717 57.344C281.983 57.8347 282.341 58.2133 282.789 58.48C283.237 58.736 283.733 58.864 284.277 58.864C284.821 58.864 285.317 58.736 285.765 58.48C286.223 58.2133 286.586 57.8347 286.853 57.344C287.119 56.8427 287.253 56.2613 287.253 55.6ZM292.961 52.432V57.6C292.961 58.0267 293.052 58.3307 293.233 58.512C293.414 58.6827 293.729 58.768 294.177 58.768H295.249V60H293.937C293.126 60 292.518 59.8133 292.113 59.44C291.708 59.0667 291.505 58.4533 291.505 57.6V52.432H290.369V51.232H291.505V49.024H292.961V51.232H295.249V52.432H292.961ZM300.581 52.432H298.741V60H297.285V52.432H296.149V51.232H297.285V50.608C297.285 49.6267 297.536 48.912 298.037 48.464C298.549 48.0053 299.365 47.776 300.485 47.776V48.992C299.845 48.992 299.392 49.12 299.125 49.376C298.869 49.6213 298.741 50.032 298.741 50.608V51.232H300.581V52.432ZM306.103 60.144C305.282 60.144 304.535 59.9573 303.863 59.584C303.202 59.2107 302.679 58.6827 302.295 58C301.922 57.3067 301.735 56.5067 301.735 55.6C301.735 54.704 301.927 53.9147 302.311 53.232C302.706 52.5387 303.239 52.0107 303.911 51.648C304.583 51.2747 305.335 51.088 306.167 51.088C306.999 51.088 307.751 51.2747 308.423 51.648C309.095 52.0107 309.623 52.5333 310.007 53.216C310.402 53.8987 310.599 54.6933 310.599 55.6C310.599 56.5067 310.396 57.3067 309.991 58C309.596 58.6827 309.058 59.2107 308.375 59.584C307.692 59.9573 306.935 60.144 306.103 60.144ZM306.103 58.864C306.626 58.864 307.116 58.7413 307.575 58.496C308.034 58.2507 308.402 57.8827 308.679 57.392C308.967 56.9013 309.111 56.304 309.111 55.6C309.111 54.896 308.972 54.2987 308.695 53.808C308.418 53.3173 308.055 52.9547 307.607 52.72C307.159 52.4747 306.674 52.352 306.151 52.352C305.618 52.352 305.127 52.4747 304.679 52.72C304.242 52.9547 303.89 53.3173 303.623 53.808C303.356 54.2987 303.223 54.896 303.223 55.6C303.223 56.3147 303.351 56.9173 303.607 57.408C303.874 57.8987 304.226 58.2667 304.663 58.512C305.1 58.7467 305.58 58.864 306.103 58.864ZM313.969 52.656C314.225 52.1547 314.588 51.7653 315.057 51.488C315.537 51.2107 316.119 51.072 316.801 51.072V52.576H316.417C314.785 52.576 313.969 53.4613 313.969 55.232V60H312.513V51.232H313.969V52.656ZM329.026 51.072C329.709 51.072 330.317 51.216 330.85 51.504C331.383 51.7813 331.805 52.2027 332.114 52.768C332.423 53.3333 332.578 54.0213 332.578 54.832V60H331.138V55.04C331.138 54.1653 330.919 53.4987 330.482 53.04C330.055 52.5707 329.474 52.336 328.738 52.336C327.981 52.336 327.378 52.5813 326.93 53.072C326.482 53.552 326.258 54.2507 326.258 55.168V60H324.818V55.04C324.818 54.1653 324.599 53.4987 324.162 53.04C323.735 52.5707 323.154 52.336 322.418 52.336C321.661 52.336 321.058 52.5813 320.61 53.072C320.162 53.552 319.938 54.2507 319.938 55.168V60H318.482V51.232H319.938V52.496C320.226 52.0373 320.61 51.6853 321.09 51.44C321.581 51.1947 322.119 51.072 322.706 51.072C323.442 51.072 324.093 51.2373 324.658 51.568C325.223 51.8987 325.645 52.384 325.922 53.024C326.167 52.4053 326.573 51.9253 327.138 51.584C327.703 51.2427 328.333 51.072 329.026 51.072Z" fill="black"/>
</svg>

