<svg width="127" height="29" viewBox="0 0 127 29" fill="none" xmlns="http://www.w3.org/2000/svg">
<path d="M1.4 28C1.10667 28 0.96 27.84 0.96 27.52V2.28C0.96 1.96 1.10667 1.8 1.4 1.8H9.8C13.24 1.8 15.7467 2.46667 17.32 3.8C18.8933 5.10666 19.68 7.02666 19.68 9.56C19.68 11.4 19.2533 12.96 18.4 14.24C17.5733 15.4933 16.3333 16.36 14.68 16.84V16.92L21.12 27.44C21.2267 27.6 21.24 27.7333 21.16 27.84C21.1067 27.9467 20.9867 28 20.8 28H16.36C16.12 28 15.9333 27.8933 15.8 27.68L9.76 17.56H5.76V27.52C5.76 27.84 5.6 28 5.28 28H1.4ZM5.76 13.76H9.6C11.44 13.76 12.7733 13.44 13.6 12.8C14.4533 12.16 14.88 11.1333 14.88 9.72C14.88 8.33333 14.4933 7.34667 13.72 6.76C12.9467 6.17333 11.64 5.88 9.8 5.88H5.76V13.76ZM32.6644 28.48C29.7844 28.48 27.6244 27.8533 26.1844 26.6C24.7444 25.32 24.0244 23.4267 24.0244 20.92V15.96C24.0244 13.2933 24.731 11.28 26.1444 9.92C27.5844 8.53333 29.7444 7.84 32.6244 7.84C35.451 7.84 37.5844 8.50667 39.0244 9.84C40.4644 11.1733 41.1844 13.12 41.1844 15.68V18.8C41.1844 19.12 41.0244 19.28 40.7044 19.28H28.7044V20.48C28.7044 21.9467 29.011 23.0267 29.6244 23.72C30.2644 24.3867 31.291 24.72 32.7044 24.72C33.7977 24.72 34.6377 24.5467 35.2244 24.2C35.8377 23.8533 36.1444 23.3333 36.1444 22.64C36.1444 22.32 36.3044 22.16 36.6244 22.16H40.3044C40.5977 22.16 40.7577 22.3067 40.7844 22.6C40.8644 24.52 40.1977 25.9867 38.7844 27C37.3977 27.9867 35.3577 28.48 32.6644 28.48ZM28.7044 16.08H36.5444V15.88C36.5444 14.4133 36.2244 13.3333 35.5844 12.64C34.9444 11.9467 33.971 11.6 32.6644 11.6C31.3044 11.6 30.3044 11.96 29.6644 12.68C29.0244 13.3733 28.7044 14.4533 28.7044 15.92V16.08ZM52.5953 28.48C49.9553 28.48 48.0086 27.96 46.7553 26.92C45.5286 25.88 44.9553 24.2667 45.0353 22.08C45.0353 21.7867 45.1953 21.64 45.5153 21.64H49.1153C49.382 21.64 49.5153 21.7867 49.5153 22.08C49.5153 23.04 49.7686 23.7467 50.2753 24.2C50.782 24.6533 51.5553 24.88 52.5953 24.88C53.6886 24.88 54.502 24.7067 55.0353 24.36C55.5686 24.0133 55.8353 23.48 55.8353 22.76C55.8353 22.2533 55.662 21.8267 55.3153 21.48C54.9686 21.1067 54.4086 20.76 53.6353 20.44L49.0753 18.52C47.6886 17.9333 46.6886 17.24 46.0753 16.44C45.4886 15.64 45.1953 14.6 45.1953 13.32C45.1953 11.5067 45.782 10.1467 46.9553 9.24C48.1553 8.30667 49.9953 7.84 52.4753 7.84C55.0086 7.84 56.9153 8.32 58.1953 9.28C59.4753 10.24 60.1153 11.64 60.1153 13.48C60.1153 13.7733 59.9553 13.92 59.6353 13.92H56.0353C55.902 13.92 55.782 13.88 55.6753 13.8C55.5953 13.6933 55.5553 13.52 55.5553 13.28C55.5553 12.6933 55.302 12.24 54.7953 11.92C54.2886 11.5733 53.582 11.4 52.6753 11.4C51.742 11.4 51.0486 11.56 50.5953 11.88C50.142 12.2 49.9153 12.68 49.9153 13.32C49.9153 13.8 50.0486 14.1733 50.3153 14.44C50.6086 14.7067 51.1686 15.0133 51.9953 15.36L56.5553 17.28C57.9686 17.8667 58.982 18.5733 59.5953 19.4C60.2353 20.2 60.5553 21.2533 60.5553 22.56C60.5553 24.5067 59.8753 25.9867 58.5153 27C57.1553 27.9867 55.182 28.48 52.5953 28.48Z" fill="black"/>
<path d="M69.9434 28.48C68.1834 28.48 66.8501 27.9333 65.9434 26.84C65.0368 25.72 64.5834 24.0667 64.5834 21.88V8.8C64.5834 8.48 64.7301 8.32 65.0234 8.32H68.8234C69.1434 8.32 69.3034 8.48 69.3034 8.8V21.12C69.3034 22.24 69.4901 23.0667 69.8634 23.6C70.2634 24.1333 70.8768 24.4 71.7034 24.4C72.5834 24.4 73.4634 24.12 74.3434 23.56C75.2501 22.9733 76.2634 22.1067 77.3834 20.96L77.5434 24.48C76.7701 25.2533 75.9834 25.9467 75.1834 26.56C74.4101 27.1467 73.5834 27.6133 72.7034 27.96C71.8501 28.3067 70.9301 28.48 69.9434 28.48ZM77.8634 28C77.7034 28 77.5701 27.9733 77.4634 27.92C77.3834 27.84 77.3301 27.72 77.3034 27.56C77.2234 27.08 77.1434 26.5733 77.0634 26.04C77.0101 25.5067 76.9701 24.9733 76.9434 24.44L76.5834 22.4V8.8C76.5834 8.48 76.7434 8.32 77.0634 8.32H80.8634C81.1568 8.32 81.3034 8.48 81.3034 8.8V23C81.3034 23.7733 81.3168 24.5467 81.3434 25.32C81.3968 26.0667 81.4768 26.8 81.5834 27.52C81.6368 27.84 81.4768 28 81.1034 28H77.8634ZM86.8594 28C86.566 28 86.4194 27.84 86.4194 27.52V1.16C86.4194 0.839999 86.566 0.679999 86.8594 0.679999H90.6594C90.9794 0.679999 91.1394 0.839999 91.1394 1.16V27.52C91.1394 27.84 90.9794 28 90.6594 28H86.8594ZM103.984 28.48C102.437 28.48 101.197 28.24 100.264 27.76C99.3574 27.28 98.6907 26.5333 98.2641 25.52C97.8641 24.5067 97.6641 23.2133 97.6641 21.64V12.28H94.7441C94.4241 12.28 94.2641 12.12 94.2641 11.8V8.8C94.2641 8.48 94.4241 8.32 94.7441 8.32H97.8241L98.3441 3.52C98.3974 3.22667 98.5707 3.08 98.8641 3.08H101.904C102.224 3.08 102.384 3.24 102.384 3.56V8.32H107.864C108.184 8.32 108.344 8.48 108.344 8.8V11.8C108.344 12.12 108.184 12.28 107.864 12.28H102.384V21.4C102.384 22.4667 102.584 23.24 102.984 23.72C103.384 24.2 104.051 24.44 104.984 24.44C105.464 24.44 105.944 24.3867 106.424 24.28C106.931 24.1733 107.397 24.0267 107.824 23.84C107.984 23.7867 108.117 23.8 108.224 23.88C108.331 23.9333 108.384 24.04 108.384 24.2V27.28C108.384 27.5467 108.264 27.72 108.024 27.8C107.491 28.0133 106.877 28.1733 106.184 28.28C105.517 28.4133 104.784 28.48 103.984 28.48ZM119.002 28.48C116.362 28.48 114.415 27.96 113.162 26.92C111.935 25.88 111.362 24.2667 111.442 22.08C111.442 21.7867 111.602 21.64 111.922 21.64H115.522C115.788 21.64 115.922 21.7867 115.922 22.08C115.922 23.04 116.175 23.7467 116.682 24.2C117.188 24.6533 117.962 24.88 119.002 24.88C120.095 24.88 120.908 24.7067 121.442 24.36C121.975 24.0133 122.242 23.48 122.242 22.76C122.242 22.2533 122.068 21.8267 121.722 21.48C121.375 21.1067 120.815 20.76 120.042 20.44L115.482 18.52C114.095 17.9333 113.095 17.24 112.482 16.44C111.895 15.64 111.602 14.6 111.602 13.32C111.602 11.5067 112.188 10.1467 113.362 9.24C114.562 8.30667 116.402 7.84 118.882 7.84C121.415 7.84 123.322 8.32 124.602 9.28C125.882 10.24 126.522 11.64 126.522 13.48C126.522 13.7733 126.362 13.92 126.042 13.92H122.442C122.308 13.92 122.188 13.88 122.082 13.8C122.002 13.6933 121.962 13.52 121.962 13.28C121.962 12.6933 121.708 12.24 121.202 11.92C120.695 11.5733 119.988 11.4 119.082 11.4C118.148 11.4 117.455 11.56 117.002 11.88C116.548 12.2 116.322 12.68 116.322 13.32C116.322 13.8 116.455 14.1733 116.722 14.44C117.015 14.7067 117.575 15.0133 118.402 15.36L122.962 17.28C124.375 17.8667 125.388 18.5733 126.002 19.4C126.642 20.2 126.962 21.2533 126.962 22.56C126.962 24.5067 126.282 25.9867 124.922 27C123.562 27.9867 121.588 28.48 119.002 28.48Z" fill="#1178F2"/>
</svg>
