<svg width="470" height="500" viewBox="0 0 470 500" fill="none" xmlns="http://www.w3.org/2000/svg">
<path d="M65.6505 465.164H42.524L43.4023 475.995C50.6622 479.508 61.2594 476.874 65.6505 475.117V465.164Z" fill="#FFA49D"/>
<path d="M64.1868 474.239L42.524 475.995V494.145H97.2664C99.14 488.525 75.994 478.532 64.1868 474.239Z" fill="#4B5173"/>
<path d="M97.5592 494.145H42.2313V500H97.5592V494.145Z" fill="#D9D9D9"/>
<path d="M141.763 465.164H118.636L119.515 475.995C126.775 479.508 137.372 476.874 141.763 475.117V465.164Z" fill="#FFA49D"/>
<path d="M140.299 474.239L118.636 475.995V494.145H173.379C175.252 488.525 152.106 478.532 140.299 474.239Z" fill="#4B5173"/>
<path d="M173.672 494.145H118.344V500H173.672V494.145Z" fill="#D9D9D9"/>
<path d="M52.4772 138.759L45.4514 258.782C52.7699 269.028 125.369 266.393 134.737 258.782C133.098 258.782 127.809 214.676 125.369 192.623C127.711 190.515 130.053 188.037 130.932 187.061L142.056 190.574C148.379 179.333 150.545 159.348 150.838 150.761C134.913 135.539 114.343 130.562 106.341 129.977C105.405 153.864 87.3132 140.515 79.9947 129.977C62.4303 131.148 54.3312 136.319 52.4772 138.759Z" fill="#A4F2FC"/>
<path d="M120.978 157.201V147.541L123.028 157.201C134.737 177.342 129.273 185.304 125.077 186.768C129.292 179.742 124.101 164.13 120.978 157.201Z" fill="#6BC8D7"/>
<path d="M56.2034 196.465C57.6034 191.958 59.8977 167.045 60.8699 155.152C66.2362 165.024 62.5225 186.807 59.9949 196.465C65.3613 197.967 93.5349 201.204 106.951 202.635L113.367 231.339L34.9128 235.363V231.339L50.662 196.465H56.2034Z" fill="#6BC8D7"/>
<path d="M114.831 43.911C107.571 38.2904 76.4819 41.5691 61.8449 43.911C50.6037 45.3866 49.745 66.3837 50.7208 76.6979C46.7395 97.0726 27.0089 106.501 17.6412 110.656C-9.29092 122.6 0.369506 144.321 9.15169 151.932C-4.60707 172.717 18.9097 178.376 29.6435 176.815C37.606 143.091 65.6505 131.148 73.5545 131.148L123.906 136.124C128.59 123.244 125.857 109.29 123.906 103.923C116.88 91.5105 122.149 75.9172 125.662 69.6721C130.58 54.918 120.491 46.3505 114.831 43.911Z" fill="#30323E"/>
<path d="M79.9948 129.684L83.5076 107.436C92.1727 117.506 101.365 121.975 104.878 122.951C108.156 135.363 104.487 141.003 102.243 142.272C93.3437 146.253 83.7028 135.539 79.9948 129.684Z" fill="#FFA49D"/>
<path d="M163.133 160.421L151.423 152.225C151.423 154.801 147.715 172.619 145.861 181.206L175.428 187.939C185.264 183.489 208.996 165.984 219.632 157.787C262.489 143.735 254.858 141.393 245.686 141.979C256.927 135.656 251.736 134.66 247.735 134.953C254.761 129.801 249.296 129.489 245.686 129.977C251.072 118.97 238.562 126.756 231.634 132.026C242.641 111.183 221.779 128.61 209.971 139.93L163.133 160.421Z" fill="#FFA49D"/>
<path d="M127.419 180.913H131.517C128.473 182.084 127.516 184.329 127.419 185.304L118.344 236.827C118.11 238.934 120.003 240.242 120.978 240.632C115.826 241.101 114.148 238.29 113.953 236.827C112.782 235.656 119.515 202.771 123.028 186.475C122.793 182.963 125.857 181.304 127.419 180.913Z" fill="#30323E"/>
<path d="M159.035 181.206H131.81C129 181.206 127.516 184.914 127.126 186.768L118.051 234.777C117.348 239.227 121.076 240.925 123.028 241.218H150.252C152.594 241.218 154.156 239.071 154.644 237.998L163.426 188.525C164.597 183.138 160.986 181.401 159.035 181.206Z" fill="#4B5173"/>
<path d="M117.758 75.8197C110.498 72.7752 98.3397 74.5512 93.168 75.8197C88.9525 78.1617 88.4842 83.4309 88.7769 85.7728C88.7769 93.384 86.0447 92.7985 83.8003 91.3349C77.4771 83.8407 71.6028 84.5043 69.4561 85.7728C59.8542 93.7353 72.0907 105.972 78.531 107.143C90.0064 122.834 103.219 124.219 108.39 122.951C120.568 118.735 119.71 89.7736 117.758 75.8197Z" fill="#FFA49D"/>
<path d="M22.0323 163.934C35.3812 136.3 57.8442 131.148 67.407 132.026L56.5756 201.991C49.5499 203.864 25.7403 201.991 14.7138 200.82C13.3086 196.136 19.0073 174.278 22.0323 163.934Z" fill="#A4F2FC"/>
<path d="M132.688 260.831C95.6857 270.199 61.6498 264.735 49.2571 260.831L39.5967 464.286C48.9644 467.096 67.8949 465.457 76.1892 464.286C72.6763 462.881 87.4109 376.073 95.2173 332.845L116.002 466.042C126.54 469.789 143.227 467.603 150.252 466.042L132.688 260.831Z" fill="#4B5173"/>
<path d="M49.5498 200.82C37.3718 202.225 22.2274 200.234 16.1774 199.063C7.98072 236.066 23.4959 234.485 34.6201 238.29C52.887 241.803 90.631 235.851 107.22 232.436C131.81 238.29 132.688 231.265 129.175 229.508C134.327 226.23 133.078 223.653 131.81 222.775C135.088 219.496 132.786 217.116 131.224 216.335C136.611 208.372 124.882 209.309 118.344 210.773L120.686 199.941C116.939 199.239 108.391 205.894 104.585 209.309L49.5498 206.967V200.82Z" fill="#FFA49D"/>
<path d="M49.5498 200.82C37.3718 202.225 22.2274 200.234 16.1774 199.063C7.98072 236.066 23.4959 234.485 34.6201 238.29C52.887 241.803 90.631 235.851 107.22 232.436C131.81 238.29 132.688 231.265 129.175 229.508C134.327 226.23 133.078 223.653 131.81 222.775C135.088 219.496 132.786 217.116 131.224 216.335C136.611 208.372 124.882 209.309 118.344 210.773L120.686 199.941C116.939 199.239 108.391 205.894 104.585 209.309L49.5498 206.967V200.82Z" fill="#FFA49D"/>
<path d="M94.6318 83.7747C95.8028 82.4086 98.6131 80.3789 100.487 83.1892" stroke="black"/>
<path d="M110.44 82.8964C111.513 81.5303 114.187 79.4421 116.294 82.0182" stroke="black"/>
<ellipse cx="99.0229" cy="88.7002" rx="1.4637" ry="2.63466" fill="black"/>
<ellipse cx="113.66" cy="88.1148" rx="1.4637" ry="2.63466" fill="black"/>
<path d="M97.2665 108.021C99.5108 107.436 105.17 106.382 109.854 106.85C111.318 111.827 101.365 120.023 97.2665 108.021Z" fill="#F43F62"/>
<path d="M97.5592 108.021C100.584 107.24 107.278 105.913 109.854 106.85C108.781 107.924 104.819 109.66 97.5592 108.021Z" fill="white"/>
<path d="M107.805 84.6019C107.415 87.8221 107.161 94.3794 109.269 94.8478C111.903 95.4333 108.976 101.874 107.512 100.117" stroke="#F79188" stroke-width="2"/>
<path d="M103.351 124.658C97.9246 124.408 87.4708 116.297 82.9222 112.272C85.0848 118.436 97.6547 125.626 103.669 128.45L103.351 124.658Z" fill="#F9968D"/>
<path d="M276.697 0C270.571 1.17932 267.763 7.37075 267.125 10.3191L255.639 220.828C256.66 232.385 264.998 234.095 269.04 233.505H449.952C456.844 230.675 458.992 223.874 459.205 220.828L469.415 20.0485C471.968 5.66074 464.31 0.687937 460.162 0H276.697Z" fill="#EAE8FE"/>
<ellipse cx="44.9861" cy="41.5553" rx="44.9861" ry="41.5553" transform="matrix(0.998831 0.0483332 -0.0566682 0.998393 323.779 47.0901)" fill="#FE6081"/>
<path d="M334.679 119.747C342.625 129.265 371.87 141.757 397.299 121.234C398.571 100.116 352.162 80.4849 334.679 119.747Z" fill="white"/>
<ellipse cx="14.9944" cy="13.8509" rx="14.9944" ry="13.8509" transform="matrix(0.998831 0.0483332 -0.0566682 0.998393 352.851 64.6533)" fill="white"/>
<path d="M416.014 146.37H310.219C305.288 146.37 301.094 149.964 300.337 154.836L300.17 155.913C299.229 161.975 303.917 167.447 310.051 167.447H416.014C421.536 167.447 426.014 162.97 426.014 157.447V156.37C426.014 150.847 421.536 146.37 416.014 146.37Z" fill="#A7ABC6"/>
<path d="M413.086 175.644H307.327C302.381 175.644 298.178 179.26 297.439 184.15L297.188 185.813C296.274 191.862 300.958 197.307 307.076 197.307H413.086C418.609 197.307 423.086 192.83 423.086 187.307V185.644C423.086 180.121 418.609 175.644 413.086 175.644Z" fill="#A7ABC6"/>
<ellipse cx="329.663" cy="186.712" rx="4.46697" ry="4.12449" fill="#EAE8FE"/>
<ellipse cx="392.2" cy="186.712" rx="4.46697" ry="4.12449" fill="#EAE8FE"/>
<ellipse cx="376.247" cy="186.712" rx="4.46697" ry="4.12449" fill="#EAE8FE"/>
<ellipse cx="360.294" cy="186.712" rx="4.46697" ry="4.12449" fill="#EAE8FE"/>
<ellipse cx="344.978" cy="186.712" rx="4.46697" ry="4.12449" fill="#EAE8FE"/>
<rect x="321.798" y="153.981" width="46.2529" height="5.26932" fill="#EAE8FE"/>
<rect x="378.59" y="154.567" width="25.1756" height="4.09836" fill="#EAE8FE"/>
<rect x="159.62" y="51.5222" width="138.173" height="32.7869" fill="#FABE25"/>
<path d="M289.597 84.3091L291.06 92.7985C288.953 94.4379 277.692 87.822 272.325 84.3091H289.597Z" fill="#FABE25"/>
<path d="M391.909 205.211H323.701C319.578 205.211 316.236 208.553 316.236 212.676C316.236 216.798 319.578 220.141 323.701 220.141H391.909C396.032 220.141 399.374 216.798 399.374 212.676C399.374 208.553 396.032 205.211 391.909 205.211Z" fill="#3B6AEB"/>
<ellipse cx="181.797" cy="67.9418" rx="6.36925" ry="5.88093" fill="#EAE8FE"/>
<ellipse cx="270.967" cy="67.9418" rx="6.36925" ry="5.88093" fill="#EAE8FE"/>
<ellipse cx="248.219" cy="67.9418" rx="6.36925" ry="5.88093" fill="#EAE8FE"/>
<ellipse cx="225.472" cy="67.9418" rx="6.36925" ry="5.88093" fill="#EAE8FE"/>
<ellipse cx="203.635" cy="67.9418" rx="6.36925" ry="5.88093" fill="#EAE8FE"/>
</svg>
