<svg width="533" height="450" viewBox="0 0 533 450" fill="none" xmlns="http://www.w3.org/2000/svg">
<path d="M533 11.4826C530.715 2.83042 510.555 0.212064 506.15 0C513.007 3.05372 522.893 10.1607 523.131 12.7055L514.98 366.16C512.263 377.805 500.857 382.343 498 382.98C516.339 383.585 525.263 370.613 525.858 366.16L533 11.4826Z" fill="#1C5AB5"/>
<path d="M298.032 363.465L311.118 19.2402C311.526 8.49793 320.353 1.52588e-05 331.103 1.52588e-05H504.083C515.329 1.52588e-05 524.364 9.26965 524.076 20.5123L515.257 364.737C514.98 375.58 506.11 384.225 495.264 384.225H318.017C306.674 384.225 297.601 374.8 298.032 363.465Z" fill="#3A6DC9"/>
<path d="M495.166 37.1523H338.958C328.242 37.1523 319.43 45.5986 318.976 56.3051L307.652 323.367C307.17 334.735 316.256 344.215 327.634 344.215H487.985C498.821 344.215 507.687 335.585 507.978 324.752L515.158 57.6899C515.461 46.4377 506.422 37.1523 495.166 37.1523Z" fill="white"/>
<path d="M476.018 86.0537C479.066 70.3036 470.937 65.731 466.492 65.4135C483.258 65.4135 484.062 79.1736 482.369 86.0537L471.89 305.792C471.128 313.413 462.258 315.742 457.918 315.953C463.253 314.175 464.057 308.438 464.904 305.792L476.018 86.0537Z" fill="#D7DAF4"/>
<path d="M94.9687 197.828C86.5856 199.098 67.766 201.109 59.4041 201.956C82.9021 234.98 86.395 265.464 88.9354 310.873C90.106 331.798 91.4224 353.278 90.8406 367.713C92.6189 369.237 103.436 368.348 108.623 367.713L94.9687 197.828Z" fill="#EAE8FE"/>
<path d="M19.0764 449.956V414.391V368.03H107.988L142.917 414.391V449.956H89.5705L83.2197 425.505L77.504 449.956H19.0764Z" fill="#3A6DC9"/>
<path d="M105.13 317.859L94.3336 196.558C120.245 202.655 155.937 220.479 170.543 228.63L212.141 187.984L232.464 210.847C200.71 264.194 186.738 267.37 185.15 270.545C183.88 273.085 154.772 269.487 140.377 267.37C134.534 273.72 142.812 367.607 147.681 413.756C107.797 417.821 102.696 351.518 105.13 317.859Z" fill="#FE6081"/>
<path d="M180.07 298.171H121.96C119.927 298.171 118.361 301.135 117.832 302.617L102.59 376.286C101.574 381.113 104.495 383.166 106.083 383.59H164.193C166.225 383.336 167.791 381.579 168.321 380.732L184.198 306.427C185.214 301.347 181.869 298.806 180.07 298.171Z" fill="#070D2B"/>
<path d="M38.1288 92.4045C31.778 91.6424 28.4968 92.722 27.65 93.3571C9.10558 112.918 38.1288 161.84 54.9585 183.856C56.2287 167.344 52.7357 157.712 50.8305 154.96C34.5724 143.275 36.8587 134.637 40.0341 131.78C47.6551 125.175 51.0422 133.05 51.7831 137.813C53.3073 139.083 55.1702 138.342 55.9111 137.813L57.1813 122.253C69.6289 124.54 70.6239 116.855 69.5654 112.727C85.8235 121.11 91.5816 113.045 92.4284 107.964L102.907 110.822C105.956 116.411 108.623 125.852 109.576 129.874C115.672 125.048 117.62 116.432 117.832 112.727C136.63 96.9771 125.664 83.5134 117.832 78.7502C105.638 71.1293 86.7126 77.2684 78.7741 81.2906C50.3224 73.6696 40.4575 78.1152 39.0815 81.2906C36.5411 81.2906 42.2569 90.8169 38.1288 92.4045Z" fill="#0E1738"/>
<path d="M56.2286 136.86V123.206C57.4986 123.573 58.6602 123.789 59.7216 123.877C68.2141 124.578 70.2945 117.055 70.2004 112.727C84.1723 121.11 91.4757 113.045 93.3809 107.964L103.225 111.457C122.912 168.614 105.659 183.221 93.3809 183.856C97.4455 205.957 91.6874 214.023 88.3003 215.293C75.0906 216.817 61.4151 204.285 56.2286 197.828L55.276 183.856C56.2921 175.219 54.3234 160.676 51.148 154.96C38.1923 145.815 36.6469 139.083 37.4937 136.86C41.3042 123.396 51.148 129.239 51.148 136.86C53.4343 139.655 55.4877 138.025 56.2286 136.86Z" fill="#FEC3BD"/>
<path d="M90.5231 392.798C89.761 414.391 40.0341 415.979 15.2659 414.074V214.975C29.9998 203.544 48.9252 198.992 56.5462 198.146C97.1915 244.126 90.5231 343.897 90.5231 392.798Z" fill="#FE6081"/>
<path d="M5.42199 342.627C-7.53369 289.28 5.73953 236.568 13.9956 216.881C52.1005 218.913 44.2679 282.082 35.5884 313.413C47.2739 313.921 78.5623 318.07 92.7458 320.081V350.565C34.8263 356.916 10.3968 347.919 5.42199 342.627Z" fill="#FE6081"/>
<path d="M32.0955 223.867C33.485 224.973 35.0138 227.04 36.4002 230.22C43.3622 242.229 45.1835 255.981 43.5269 270.228C41.9392 283.882 41.9392 297.854 41.9392 305.475C44.9876 305.475 75.8103 313.942 90.8406 318.176C77.1228 316.398 47.0199 312.566 33.6832 310.873C44.3488 266.038 41.2447 241.333 36.4002 230.22C35.1376 228.043 33.706 225.922 32.0955 223.867Z" fill="#B94768"/>
<path d="M15.901 368.665V349.613C34.4454 351.391 68.9304 350.354 83.8548 349.613L15.901 368.665Z" fill="#B94768"/>
<path d="M91.4757 348.978L92.4283 321.352C95.4767 317.795 108.305 313.519 114.339 311.825L112.116 322.622C141.012 318.811 135.614 327.067 127.358 329.925C149.713 332.212 140.695 338.181 132.439 338.181C141.012 338.181 142.6 345.802 129.581 344.85C133.899 347.136 133.92 349.189 133.391 349.93C135.677 354.249 106.4 351.095 91.4757 348.978Z" fill="#FDD1C4"/>
<path d="M90.2055 140.671C89.8879 142.364 90.142 146.641 93.6984 150.197C95.1803 151.996 97.6995 156.04 95.9212 157.818" stroke="#F08684" stroke-width="2"/>
<path d="M87.0302 164.804C87.8769 166.392 90.8406 169.376 95.9213 168.614" stroke="#F08684" stroke-width="2"/>
<path d="M76.2338 132.415C77.5039 131.145 80.7428 129.176 83.5372 131.462" stroke="#0E1738" stroke-width="2"/>
<path d="M97.8265 132.415C98.885 131.144 101.891 129.112 105.448 131.144" stroke="#0E1738" stroke-width="2"/>
<ellipse cx="2.85787" cy="3.17541" rx="2.85787" ry="3.17541" transform="matrix(1 0 0 -1 76.8688 141.623)" fill="#0E1738"/>
<ellipse cx="2.85787" cy="3.17541" rx="2.85787" ry="3.17541" transform="matrix(1 0 0 -1 99.0967 141.623)" fill="#0E1738"/>
<path d="M93.0634 189.255C85.6964 188.492 74.1168 179.834 69.2478 175.6C77.1228 182.205 88.4061 183.645 93.0634 183.539V189.255Z" fill="#F18B89"/>
<path d="M233.099 210.53L213.729 189.572C232.527 152.483 232.993 166.074 230.876 177.505C253.485 156.928 252.151 166.815 248.659 174.33C267.711 161.311 263.583 173.377 256.597 177.505C270.061 171.662 265.806 181.316 259.137 184.809C279.968 183.031 250.458 201.215 233.099 210.53Z" fill="#FEC3BD"/>
<path d="M284.541 64.7784C278.444 66.0486 275.65 72.7169 275.014 75.8923L263.583 302.617C264.599 315.064 272.898 316.906 276.92 316.271H456.966C463.824 313.223 465.963 305.898 466.174 302.617L476.336 86.3712C478.876 70.8752 471.255 65.5193 467.127 64.7784H284.541Z" fill="#EAE8FE"/>
<circle cx="373.772" cy="162.67" r="44.7797" transform="rotate(3 373.772 162.67)" fill="#FE6081"/>
<path d="M341.698 194.018C349.637 204.179 378.85 217.516 404.254 195.605C405.524 173.06 359.163 152.102 341.698 194.018Z" fill="white"/>
<circle cx="374.454" cy="150.225" r="14.9257" transform="rotate(3 374.454 150.225)" fill="white"/>
<path d="M423.15 222.279H318.1C313.108 222.279 308.88 225.961 308.195 230.906L307.71 234.404C306.877 240.415 311.546 245.777 317.615 245.777H423.15C428.673 245.777 433.15 241.3 433.15 235.777V232.279C433.15 226.756 428.673 222.279 423.15 222.279Z" fill="#A7ABC6"/>
<path d="M420.61 254.033H315.56C310.567 254.033 306.34 257.715 305.654 262.66L305.17 266.158C304.336 272.169 309.006 277.531 315.075 277.531H420.61C426.133 277.531 430.61 273.054 430.61 267.531V264.033C430.61 258.51 426.133 254.033 420.61 254.033Z" fill="#A7ABC6"/>
<circle cx="337.253" cy="266.099" r="4.44558" fill="#EAE8FE"/>
<circle cx="399.491" cy="266.099" r="4.44558" fill="#EAE8FE"/>
<circle cx="383.614" cy="266.099" r="4.44558" fill="#EAE8FE"/>
<circle cx="367.736" cy="266.099" r="4.44558" fill="#EAE8FE"/>
<circle cx="352.495" cy="266.099" r="4.44558" fill="#EAE8FE"/>
<rect x="329.632" y="231.17" width="45.7259" height="5.08066" fill="#EAE8FE"/>
<rect x="385.519" y="231.805" width="25.4033" height="3.81049" fill="#EAE8FE"/>
<path d="M83.2197 425.505L95.6038 368.348L88.3004 449.003L83.2197 425.505Z" fill="#1C5AB5"/>
</svg>
