<svg width="69" height="80" viewBox="0 0 69 80" fill="none" xmlns="http://www.w3.org/2000/svg">
<path d="M44.514 0H6.90553C6.20137 0.192043 5.97199 0.933545 5.94531 1.28029V40.5692H63.1583V18.5642L44.514 0Z" fill="#D9D9D9"/>
<rect x="0.0244141" y="43.3699" width="68.9756" height="25.4458" rx="10" fill="#D9D9D9"/>
<path d="M5.94531 70.7361H63.0782C63.0782 75.5973 59.1375 79.5381 54.2763 79.5381H14.7473C9.8861 79.5381 5.94531 75.5973 5.94531 70.7361Z" fill="#D9D9D9"/>
<rect x="15.5479" y="18.0842" width="34.8879" height="2.56058" rx="1.28029" fill="black"/>
<rect x="15.5479" y="34.2478" width="34.8879" height="2.56058" rx="1.28029" fill="black"/>
<rect x="15.5479" y="26.0857" width="34.8879" height="2.56058" rx="1.28029" fill="black"/>
<path d="M37.0724 51.0515H32.4314C31.2791 51.3076 30.831 52.2785 30.751 52.7319V59.4534C31.0071 60.5417 31.8179 61.0805 32.1913 61.2138H37.0724C38.5448 62.2381 37.6859 63.2943 37.0724 63.6944H32.1913C29.6308 63.5664 28.4572 61.1338 28.1904 59.9336V52.7319C28.3185 49.9153 30.911 48.731 32.1913 48.491H37.0724C38.5448 49.7713 37.6859 50.7315 37.0724 51.0515Z" fill="black"/>
</svg>
